<svg height="137" node-id="1" sillyvg="true" template-height="137" template-width="151" version="1.1" viewBox="0 0 151 137" width="151" xmlns="http://www.w3.org/2000/svg" xmlns:xlink="http://www.w3.org/1999/xlink"><defs node-id="21"></defs><g node-id="23"><path d="M 117.80 111.20 L 33.80 111.20 L 32.50 111.00 L 30.50 109.80 L 29.30 107.80 L 29.10 106.50 L 29.10 45.90 L 38.40 27.20 L 113.10 27.20 L 122.40 45.80 L 122.40 106.50 L 122.30 107.70 L 121.10 109.80 L 120.10 110.60 L 117.80 111.20 Z M 44.20 36.50 L 39.50 45.80 L 112.00 45.80 L 107.30 36.50 Z" fill="#e2e5f1" fill-opacity="0.8" fill-rule="nonzero" group-id="1" id="路径_2358" node-id="3" stroke="none" target-height="84" target-width="93.3" target-x="29.1" target-y="27.2"/></g><g node-id="24"><path d="M 83.60 80.70 L 92.10 72.20 L 96.40 76.50 L 87.90 85.00 Z M 55.20 76.00 L 59.40 71.70 L 67.90 80.20 L 63.70 84.50 Z M 72.80 78.20 L 72.80 66.20 L 78.80 66.20 L 78.80 78.20 Z" fill="#ffffff" fill-opacity="0.8" fill-rule="nonzero" group-id="2" id="联合_24" node-id="4" stroke="none" target-height="18.800003" target-width="41.2" target-x="55.2" target-y="66.2"/></g><g node-id="25"><path d="M 59.30 116.80 L 30.20 133.60 L 28.40 134.40 L 26.60 134.60 L 24.80 134.30 L 23.10 133.60 L 21.60 132.50 L 20.40 131.00 L 1.20 97.70 L 1.00 95.90 L 2.10 94.50 L 31.20 77.70 L 33.00 77.40 L 34.50 78.50 L 48.90 103.50 L 57.20 98.70 L 62.00 107.00 L 62.70 108.80 L 62.90 110.60 L 62.70 112.50 L 62.00 114.20 L 60.90 115.60 L 59.30 116.80 Z M 51.30 107.60 L 54.30 112.50 L 56.00 113.00 L 56.90 112.70 L 57.70 112.00 L 58.10 110.30 L 55.40 105.20 Z M 14.30 101.20 L 16.70 105.40 L 33.30 95.80 L 30.90 91.60 Z M 19.10 109.60 L 21.50 113.70 L 38.10 104.10 L 35.70 100.00 Z M 23.90 117.90 L 26.30 122.00 L 36.70 116.00 L 34.30 111.90 Z" fill="#61c1e4" fill-rule="nonzero" group-id="3" id="路径_2357" node-id="5" stroke="none" target-height="57.200005" target-width="61.9" target-x="1" target-y="77.4"/></g><g node-id="26"><path d="M 92.20 34.70 L 99.60 38.50 L 109.70 44.60 L 115.50 49.40 L 117.40 51.60 L 118.20 53.20 L 118.50 54.60 L 118.40 55.90 L 117.50 57.70 L 116.60 58.70 L 115.50 59.30 L 113.20 59.30 L 112.00 58.70 L 110.40 57.00 L 109.80 54.70 L 110.20 53.50 L 111.10 52.30 L 112.40 51.30 L 113.90 50.70 L 117.50 50.70 L 121.30 52.40 L 123.00 53.80 L 124.60 55.70 L 126.10 58.10 L 127.10 60.80 L 127.80 64.00 L 128.10 68.00 L 127.60 74.50 L 125.80 81.60 L 122.30 88.80 L 119.90 92.20 L 117.00 95.70 L 113.40 99.30 L 109.40 102.50 L 104.70 105.70 L 99.00 108.80 L 93.10 111.50 L 86.20 114.20 L 78.10 116.70" fill="none" group-id="4" id="路径_2313" node-id="6" stroke="#c2c8d8" stroke-dasharray="2 2" stroke-linecap="butt" stroke-opacity="0.8" stroke-width="1" target-height="82" target-width="50.000008" target-x="78.1" target-y="34.7"/></g><g node-id="27"><g node-id="36"><g node-id="38"><path d="M 145.60 93.90 L 144.10 93.70 L 141.80 92.30 L 140.40 90.00 L 140.20 88.50 L 140.90 85.80 L 142.90 83.80 L 144.10 83.30 L 145.60 83.10 L 148.40 83.80 L 150.30 85.80 L 151.10 88.50 L 150.80 90.00 L 149.50 92.30 L 147.10 93.70 L 145.60 93.90 Z M 145.60 84.90 L 144.20 85.20 L 143.10 86.00 L 142.30 87.10 L 142.00 88.50 L 142.30 89.90 L 143.10 91.00 L 144.20 91.80 L 145.60 92.10 L 147.00 91.80 L 148.10 91.00 L 148.90 89.90 L 149.20 88.50 L 148.90 87.10 L 148.10 86.00 L 147.00 85.20 L 145.60 84.90 Z" fill="#61c1e4" fill-opacity="0.6" fill-rule="nonzero" group-id="5,14,16" id="路径_2292" node-id="9" stroke="none" target-height="10.800003" target-width="10.900009" target-x="140.2" target-y="83.1"/></g></g></g><g node-id="28"><g node-id="37"><g node-id="39"><path d="M 27.30 49.60 L 19.10 41.40 L 27.30 33.10 L 35.60 41.40 Z M 22.00 41.40 L 27.40 46.80 L 32.90 41.40 L 27.40 35.90 Z" fill="#c2c8d8" fill-opacity="0.8" fill-rule="nonzero" group-id="6,15,17" id="路径_2294" node-id="12" stroke="none" target-height="16.5" target-width="16.499998" target-x="19.1" target-y="33.1"/></g></g></g><g node-id="29"><path d="M 64.20 132.40 L 63.50 132.10 L 63.20 131.40 L 63.20 127.80 L 59.50 127.80 L 58.80 127.50 L 58.50 125.70 L 58.80 125.00 L 59.50 124.70 L 63.20 124.70 L 63.20 121.10 L 63.50 120.40 L 65.20 120.10 L 65.90 120.40 L 66.20 121.10 L 66.20 124.70 L 69.90 124.70 L 70.60 125.00 L 70.90 125.70 L 70.60 127.50 L 69.90 127.80 L 66.20 127.80 L 66.20 131.40 L 65.90 132.10 L 65.20 132.40 Z" fill="#c2c8d8" fill-opacity="0.8" fill-rule="nonzero" group-id="7" id="联合_16" node-id="13" stroke="none" target-height="12.299995" target-width="12.400002" target-x="58.5" target-y="120.1"/></g><g node-id="30"><path d="M 12.80 20.90 L 12.10 20.60 L 11.80 19.90 L 11.80 17.40 L 9.30 17.40 L 8.60 17.10 L 8.30 16.40 L 8.60 15.30 L 9.30 15.00 L 11.80 15.00 L 11.80 12.40 L 12.10 11.70 L 12.80 11.40 L 13.90 11.70 L 14.20 12.40 L 14.20 15.00 L 16.80 15.00 L 17.50 15.30 L 17.80 16.00 L 17.50 17.10 L 16.80 17.40 L 14.20 17.40 L 14.20 19.90 L 13.90 20.60 L 13.20 20.90 Z" fill="#417aff" fill-opacity="0" fill-rule="nonzero" group-id="8" id="联合_17" node-id="14" stroke="none" target-height="9.5" target-width="9.499999" target-x="8.3" target-y="11.4"/></g><g node-id="31"><path d="M 98.00 28.50 L 94.70 31.00 L 91.30 33.10 L 85.20 35.60 L 80.30 36.70 L 77.80 36.70 L 75.20 36.10 L 72.80 34.90 L 69.90 32.50 L 66.70 29.00 L 66.00 28.90 L 64.40 29.50 L 63.20 31.20 L 62.20 31.90 L 61.60 31.40 L 61.60 30.70 L 62.70 29.20 L 64.50 28.20 L 66.20 27.70 L 66.40 26.40 L 67.90 23.30 L 71.10 19.90 L 73.90 18.40 L 76.60 17.60 L 79.50 17.30 L 82.40 17.60 L 85.20 18.20 L 90.60 20.80 L 95.20 24.40 L 97.60 27.30 L 98.00 28.50 Z" fill="#697391" fill-opacity="0.8" fill-rule="nonzero" group-id="9" id="路径_2314" node-id="15" stroke="none" target-height="19.400002" target-width="36.4" target-x="61.6" target-y="17.3"/></g><g node-id="32"><path d="M 130.30 51.50 L 127.80 50.40 L 125.50 48.80 L 123.80 47.30 L 122.50 45.50 L 122.10 43.10 L 122.90 39.10 L 122.30 38.60 L 121.10 38.50 L 120.80 38.10 L 121.20 37.80 L 122.40 38.10 L 123.40 38.90 L 126.20 38.70 L 127.60 39.10 L 129.30 40.20 L 130.50 41.80 L 131.20 43.60 L 131.60 47.60 L 131.00 50.10 L 130.30 51.50 Z" fill="#697391" fill-opacity="0.8" fill-rule="nonzero" group-id="10" id="路径_2316" node-id="16" stroke="none" target-height="13.700001" target-width="10.800003" target-x="120.8" target-y="37.8"/></g><g node-id="33"><path d="M 91.80 10.90 L 88.10 9.20 L 86.80 8.20 L 85.90 7.00 L 85.60 5.30 L 86.40 2.60 L 84.90 2.20 L 84.70 1.90 L 85.00 1.70 L 86.00 1.90 L 86.70 2.40 L 88.40 2.10 L 90.00 2.40 L 91.40 3.20 L 92.30 4.20 L 92.80 5.40 L 93.10 7.40 L 92.60 9.50 L 91.80 10.90 Z" fill="#697391" fill-opacity="0" fill-rule="nonzero" group-id="11" id="路径_2317" node-id="17" stroke="none" target-height="9.2" target-width="8.400002" target-x="84.7" target-y="1.7"/></g><g node-id="34"><path d="M 113.30 85.50 L 115.30 82.70 L 116.80 79.70 L 117.80 76.10 L 117.90 74.20 L 116.90 71.40 L 113.60 68.00 L 113.90 66.80 L 115.10 65.90 L 115.10 65.40 L 114.50 65.30 L 113.40 66.30 L 112.90 67.80 L 110.40 68.70 L 108.50 70.50 L 107.70 72.10 L 107.10 75.20 L 107.40 77.60 L 108.20 79.90 L 109.50 82.10 L 111.60 84.50 L 113.30 85.50 Z" fill="#697391" fill-opacity="0" fill-rule="nonzero" group-id="12" id="路径_2318" node-id="18" stroke="none" target-height="20.199997" target-width="10.800003" target-x="107.1" target-y="65.3"/></g><path d="M 107.80 112.50 L 109.40 112.20 L 112.00 111.10 L 113.00 110.20 L 113.60 109.00 L 113.70 106.60 L 115.10 106.40 L 114.20 106.10 L 113.50 106.40 L 112.40 105.90 L 111.20 105.90 L 109.10 107.00 L 107.80 109.50 L 107.50 111.20 L 107.80 112.50 Z" fill="#697391" fill-opacity="0" fill-rule="nonzero" group-id="13" id="路径_2319" node-id="19" stroke="none" target-height="6.5999985" target-width="7.5999985" target-x="107.5" target-y="105.9"/></svg>
