<svg height="1000" node-id="1" sillyvg="true" template-height="1000" template-width="1287" version="1.1" viewBox="0 0 1287 1000" width="1287" xmlns="http://www.w3.org/2000/svg" xmlns:xlink="http://www.w3.org/1999/xlink"><defs node-id="34"></defs><path d="M 342.52 443.93 L 347.02 442.88 L 349.42 443.78 L 350.62 446.03 L 353.02 444.53 L 355.12 444.98 L 356.77 446.18 L 357.97 447.83 L 358.42 449.93 L 341.47 490.73 L 314.62 552.68 L 311.62 554.63 L 301.27 554.93 L 294.07 554.63 L 279.82 552.23 L 269.47 549.38 L 260.02 545.93 L 251.17 542.18 L 233.92 533.63 L 201.67 609.98 L 192.52 633.38 L 186.52 650.63 L 182.92 664.58 L 180.67 678.08 L 175.72 714.53 L 175.72 726.68 L 181.87 764.33 L 185.47 779.18 L 188.17 787.13 L 191.17 794.93 L 195.07 802.88 L 199.87 810.98 L 205.42 818.78 L 212.02 826.58 L 219.97 834.68 L 226.12 840.23 L 241.42 851.33 L 250.57 856.88 L 250.27 838.43 L 252.67 817.88 L 257.62 794.63 L 264.52 773.18 L 268.87 762.23 L 274.12 750.83 L 280.27 738.98 L 287.17 727.43 L 295.27 715.88 L 304.57 704.33 L 311.92 696.08 L 320.17 687.98 L 329.17 680.03 L 338.92 672.23 L 349.12 665.18 L 360.07 658.28 L 372.22 651.83 L 385.27 645.68 L 398.47 640.43 L 412.87 635.63 L 428.32 631.43 L 445.27 627.68 L 444.52 619.88 L 416.02 431.03 L 416.17 405.53 L 417.37 394.88 L 419.17 384.23 L 421.72 373.88 L 424.87 363.53 L 428.77 353.48 L 433.27 343.73 L 438.37 334.28 L 444.22 325.13 L 450.52 316.28 L 457.42 307.88 L 465.07 299.93 L 473.02 292.28 L 481.57 285.23 L 490.72 278.78 L 500.47 272.63 L 510.37 267.23 L 520.87 262.58 L 531.97 258.38 L 543.52 254.78 L 555.22 252.08 L 567.22 250.13 L 579.97 248.93 L 593.17 248.48 L 610.57 249.38 L 620.77 250.88 L 641.62 255.38 L 652.87 258.83 L 663.82 262.88 L 674.92 267.98 L 686.32 273.83 L 702.52 284.18 L 718.27 296.93 L 725.62 303.98 L 732.67 311.78 L 739.57 320.33 L 746.02 329.48 L 751.87 339.08 L 757.27 349.43 L 762.22 360.68 L 766.72 372.83 L 812.62 615.98 L 828.22 624.68 L 835.42 629.63 L 914.02 687.08 L 921.82 667.73 L 930.07 649.28 L 938.47 631.58 L 947.47 614.18 L 965.02 582.83 L 978.52 560.78 L 991.12 541.73 L 1013.77 509.63 L 1030.57 487.58 L 1025.02 477.38 L 1017.97 461.78 L 1014.22 451.73 L 1010.92 441.08 L 1008.22 429.38 L 1006.12 413.18 L 1005.82 404.63 L 1006.72 395.63 L 1008.97 389.48 L 1011.82 385.88 L 1014.37 384.38 L 1016.47 383.93 L 1018.72 384.38 L 1020.97 385.58 L 1023.22 387.98 L 1026.22 392.18 L 1029.22 398.03 L 1037.92 417.23 L 1041.07 422.78 L 1049.92 415.13 L 1073.77 390.83 L 1067.92 379.58 L 1061.62 368.78 L 1054.57 358.28 L 1046.92 348.08 L 954.07 392.63 L 945.82 395.63 L 940.27 393.68 L 929.02 387.38 L 922.12 382.88 L 914.17 376.58 L 903.82 366.83 L 898.57 360.83 L 888.82 347.33 L 884.32 339.53 L 880.42 331.28 L 876.97 322.28 L 873.97 312.38 L 871.12 296.93 L 870.37 288.23 L 870.07 279.08 L 870.97 261.53 L 874.42 243.53 L 876.97 235.13 L 883.87 216.23 L 880.12 208.13 L 875.77 201.08 L 861.22 180.08 L 843.67 158.63 L 826.12 140.18 L 816.52 131.03 L 794.77 112.73 L 782.92 104.03 L 770.32 95.78 L 756.97 87.98 L 746.62 82.58 L 724.72 72.98 L 713.02 68.78 L 701.17 65.18 L 689.02 62.18 L 676.27 59.93 L 663.22 58.13 L 659.32 72.08 L 654.97 84.68 L 650.32 96.23 L 645.22 106.73 L 639.52 117.08 L 633.67 126.53 L 627.52 135.08 L 614.47 150.08 L 600.97 162.53 L 594.22 167.63 L 584.77 173.93 L 575.62 179.18 L 566.92 183.38 L 549.97 189.68 L 542.62 191.63 L 529.12 193.73 L 517.27 193.88 L 511.72 193.43 L 506.77 192.53 L 502.42 190.88 L 498.22 188.33 L 493.87 184.58 L 484.27 173.03 L 451.87 125.93 L 451.57 123.98 L 452.02 122.03 L 453.22 120.38 L 454.87 119.18 L 458.02 118.88 L 461.32 116.33 L 463.27 115.88 L 471.07 116.48 L 477.97 115.88 L 484.87 114.53 L 491.77 112.13 L 498.52 109.13 L 504.97 105.53 L 511.27 101.18 L 522.97 91.58 L 533.02 80.93 L 540.67 70.73 L 523.87 74.63 L 512.32 77.93 L 487.42 87.08 L 464.02 97.88 L 452.02 104.18 L 439.42 111.68 L 426.07 120.23 L 413.32 129.38 L 400.12 139.88 L 386.62 151.73 L 376.87 161.03 L 357.67 182.03 L 347.92 193.88 L 338.92 205.88 L 330.07 218.93 L 321.37 233.03 L 312.82 248.03 L 305.17 263.33 L 297.82 279.68 L 290.77 297.23 L 284.02 315.98 L 278.32 334.58 L 273.07 354.68 L 268.27 375.98 L 264.07 398.93 L 274.72 411.23 L 280.72 416.78 L 287.02 422.03 L 300.37 431.18 L 307.42 434.93 L 321.52 440.48 L 328.72 442.43 L 335.77 443.48 L 342.52 443.93 Z M 866.92 520.73 L 867.67 515.93 L 870.82 510.23 L 874.72 506.63 L 877.57 504.98 L 884.32 502.73 L 888.97 502.28 L 897.07 503.33 L 899.02 503.03 L 902.32 500.63 L 909.67 491.48 L 912.67 488.78 L 917.17 486.38 L 919.87 486.08 L 922.57 486.38 L 930.82 489.38 L 933.97 489.23 L 937.27 486.98 L 944.47 477.83 L 947.32 474.98 L 951.67 472.73 L 954.07 472.28 L 956.77 472.88 L 963.07 476.48 L 965.17 479.33 L 965.47 480.98 L 965.02 483.23 L 963.97 484.73 L 962.47 485.63 L 957.67 487.13 L 956.02 486.83 L 954.52 487.43 L 944.92 496.58 L 941.32 498.83 L 935.47 500.78 L 924.67 501.23 L 920.62 502.58 L 918.07 504.53 L 911.17 511.43 L 908.32 513.53 L 904.57 515.48 L 898.42 516.83 L 888.37 517.28 L 883.12 518.03 L 880.57 520.13 L 875.47 527.63 L 872.92 529.58 L 871.27 529.88 L 869.02 529.43 L 867.37 528.23 L 866.17 526.43 L 865.72 524.33 L 866.92 520.73 Z M 770.47 245.63 L 775.12 246.38 L 777.52 247.43 L 780.67 250.73 L 781.57 255.23 L 781.27 258.68 L 780.37 261.68 L 778.87 264.53 L 775.87 268.13 L 771.97 271.43 L 767.62 273.98 L 758.17 277.88 L 746.92 280.13 L 744.82 279.53 L 743.02 278.18 L 741.82 276.23 L 741.37 273.98 L 742.87 269.48 L 747.07 262.28 L 753.37 254.48 L 757.12 251.03 L 761.32 248.18 L 764.32 246.83 L 770.47 245.63 Z M 450.22 222.53 L 453.52 222.98 L 456.22 224.03 L 458.77 225.98 L 461.92 229.58 L 464.47 234.23 L 466.57 239.18 L 471.97 254.63 L 471.37 256.58 L 470.02 258.38 L 468.67 259.43 L 467.02 259.88 L 464.32 258.98 L 461.47 257.48 L 450.37 249.83 L 444.97 245.03 L 442.12 240.68 L 440.02 234.83 L 440.77 230.63 L 441.82 227.78 L 443.32 225.38 L 444.97 224.03 L 446.77 223.13 L 450.22 222.53 Z M 357.52 613.88 L 355.87 613.43 L 352.72 609.23 L 351.22 608.18 L 348.97 607.73 L 345.82 608.18 L 342.97 609.38 L 334.12 614.93 L 330.52 616.58 L 326.77 617.78 L 322.12 618.23 L 318.67 617.93 L 313.27 615.53 L 306.97 610.88 L 304.87 609.83 L 302.62 609.53 L 299.92 609.98 L 288.97 615.38 L 284.92 616.88 L 280.87 617.48 L 277.12 617.03 L 273.82 615.83 L 264.67 611.78 L 261.37 611.18 L 259.72 611.48 L 257.47 612.98 L 254.02 617.18 L 252.52 617.78 L 251.17 617.33 L 249.37 615.53 L 249.37 612.68 L 250.42 610.43 L 252.22 608.33 L 254.92 606.23 L 259.87 604.58 L 263.32 604.28 L 266.92 604.73 L 269.47 605.48 L 276.82 609.23 L 280.87 609.98 L 284.47 609.38 L 298.27 602.63 L 302.47 602.03 L 305.92 602.48 L 308.77 603.38 L 317.92 609.38 L 320.02 610.43 L 322.27 610.73 L 325.72 610.28 L 329.02 609.08 L 341.32 601.88 L 344.62 600.68 L 348.52 600.23 L 351.67 600.53 L 354.52 601.43 L 357.07 602.93 L 359.17 604.88 L 360.52 607.28 L 361.12 609.98 L 360.82 611.48 L 360.07 612.68 L 357.52 613.88 Z M 344.92 359.63 L 345.52 355.43 L 347.47 352.28 L 348.97 351.08 L 352.57 349.73 L 358.87 350.03 L 362.92 351.08 L 370.87 355.43 L 380.92 362.78 L 385.72 367.13 L 386.77 368.48 L 387.07 369.83 L 386.77 371.18 L 384.52 374.78 L 381.67 375.98 L 375.52 376.43 L 362.62 374.33 L 354.22 371.18 L 349.27 367.88 L 346.72 365.18 L 345.52 362.93 L 344.92 359.63 Z" fill="#9fe6f3" fill-rule="nonzero" node-id="36" stroke="none" target-height="798.75" target-width="898.05005" target-x="175.72499" target-y="58.125023"/><path d="M 380.70 720.30 L 380.70 709.30 L 380.70 720.30 Z" fill="#9fe6f3" fill-rule="nonzero" node-id="38" stroke="none" target-height="11" target-width="0" target-x="380.7" target-y="709.3"/><path d="M 435.20 452.80 L 435.70 451.80 L 434.90 451.70 L 435.20 452.80 Z" fill="#9fe6f3" fill-rule="nonzero" node-id="40" stroke="none" target-height="1.0999756" target-width="0.8000183" target-x="434.9" target-y="451.7"/><g node-id="88"><path d="M 753.60 634.46 L 752.10 641.81 L 747.75 655.16 L 744.90 661.01 L 740.25 668.51 L 735.00 675.26 L 729.15 681.41 L 722.70 686.96 L 716.10 692.06 L 708.90 696.41 L 694.05 703.91 L 675.00 710.51 L 664.05 713.36 L 653.25 715.31 L 643.95 716.66 L 628.65 717.56 L 615.90 717.11 L 604.80 715.91 L 595.50 714.11 L 586.35 711.56 L 578.70 708.71 L 572.10 705.41 L 565.95 701.36 L 560.85 697.31 L 556.65 693.11 L 549.75 683.96 L 544.20 672.71 L 539.25 656.51 L 460.50 669.11 L 453.45 669.71 L 452.40 669.26 L 451.50 668.06 L 450.60 665.21 L 445.35 632.51 L 433.65 634.61 L 422.10 637.46 L 410.40 640.91 L 398.85 645.11 L 387.60 649.91 L 376.35 655.31 L 365.55 661.46 L 354.75 668.21 L 344.40 675.41 L 334.50 683.21 L 324.90 691.61 L 315.75 700.61 L 307.20 710.06 L 299.10 719.96 L 291.60 730.46 L 284.55 741.41 L 278.40 752.66 L 272.85 764.36 L 268.05 776.51 L 263.85 789.26 L 260.70 802.01 L 258.30 815.36 L 256.95 829.01 L 256.35 843.11 L 256.95 856.31 L 258.30 868.61 L 260.40 880.01 L 263.25 891.41 L 266.40 901.61 L 270.00 910.76 L 278.25 927.56 L 282.30 934.16 L 290.70 945.71 L 331.50 988.76 L 341.55 997.31 L 351.60 1003.76 L 363.60 1008.56 L 377.55 1011.86 L 400.35 1014.41 L 418.50 1015.31 L 463.50 1015.76 L 593.85 1015.31 L 597.00 1015.16 L 597.15 1014.26 L 597.45 1004.36 L 597.00 990.56 L 595.65 977.21 L 593.40 964.31 L 590.40 951.71 L 586.65 939.26 L 582.30 927.26 L 577.20 915.56 L 571.65 904.16 L 563.25 889.31 L 554.10 875.21 L 544.35 861.71 L 533.85 848.66 L 523.05 836.36 L 500.40 813.56 L 477.90 793.76 L 460.95 780.26 L 445.65 768.71 L 418.35 750.11 L 393.45 734.21 L 392.40 733.31 L 392.70 731.96 L 393.45 730.76 L 396.15 729.56 L 403.05 731.36 L 409.35 734.21 L 418.80 739.31 L 431.25 747.11 L 444.30 756.26 L 459.30 767.66 L 474.60 780.11 L 490.95 794.81 L 512.55 815.81 L 523.65 827.51 L 544.65 851.96 L 554.70 865.01 L 564.30 878.36 L 573.30 892.16 L 581.70 906.26 L 589.35 920.81 L 596.10 935.51 L 602.10 950.51 L 629.25 950.96 L 700.35 950.51 L 706.95 951.26 L 709.80 952.76 L 710.55 955.01 L 710.10 956.21 L 702.00 969.86 L 693.60 983.06 L 675.30 1009.91 L 668.10 1019.21 L 665.25 1022.21 L 664.20 1022.81 L 655.80 1022.51 L 636.90 1023.86 L 304.05 1023.11 L 241.35 1022.36 L 168.60 1020.71 L 152.25 1019.51 L 147.15 1018.91 L 143.25 1017.56 L 142.95 1016.81 L 144.45 1012.76 L 146.70 1009.01 L 154.20 999.86 L 185.70 965.21 L 193.20 956.36 L 195.45 952.91 L 196.20 950.06 L 197.55 948.71 L 201.15 947.96 L 281.85 948.41 L 272.40 933.11 L 267.75 924.26 L 263.40 914.66 L 258.75 902.81 L 253.80 885.41 L 250.05 864.86 L 249.15 853.61 L 248.70 841.46 L 249.75 825.86 L 251.25 815.06 L 253.95 801.26 L 259.20 781.46 L 263.10 770.36 L 267.45 759.41 L 272.70 748.01 L 278.85 736.16 L 285.75 724.61 L 293.85 713.06 L 303.15 701.51 L 310.50 693.26 L 318.75 685.16 L 327.75 677.21 L 337.50 669.41 L 347.70 662.36 L 358.65 655.46 L 370.80 649.01 L 383.85 642.86 L 397.05 637.61 L 411.45 632.81 L 426.90 628.61 L 443.85 624.86 L 443.10 617.06 L 414.60 428.21 L 414.75 402.71 L 415.95 392.06 L 417.75 381.41 L 420.30 371.06 L 423.45 360.71 L 427.35 350.66 L 431.85 340.91 L 436.95 331.46 L 442.80 322.31 L 449.10 313.46 L 456.00 305.06 L 463.65 297.11 L 471.60 289.46 L 480.15 282.41 L 489.30 275.96 L 499.05 269.81 L 508.95 264.41 L 519.45 259.76 L 530.55 255.56 L 542.10 251.96 L 553.80 249.26 L 565.80 247.31 L 578.55 246.11 L 591.75 245.66 L 609.15 246.56 L 619.35 248.06 L 640.20 252.56 L 651.45 256.01 L 662.40 260.06 L 673.50 265.16 L 684.90 271.01 L 693.00 275.96 L 709.05 287.36 L 716.85 294.11 L 724.20 301.16 L 731.25 308.96 L 738.15 317.51 L 744.60 326.66 L 750.45 336.26 L 755.85 346.61 L 760.80 357.86 L 765.30 370.01 L 811.20 613.16 L 826.80 621.86 L 834.00 626.81 L 912.60 684.26 L 920.40 664.91 L 928.65 646.46 L 937.05 628.76 L 946.05 611.36 L 963.60 580.01 L 977.10 557.96 L 989.70 538.91 L 1012.35 506.81 L 1029.15 484.76 L 1023.60 474.56 L 1016.55 458.96 L 1012.80 448.91 L 1009.50 438.26 L 1006.80 426.56 L 1004.70 410.36 L 1004.40 401.81 L 1005.30 392.81 L 1006.20 389.66 L 1008.90 384.56 L 1012.95 381.56 L 1015.05 381.11 L 1017.30 381.56 L 1019.55 382.76 L 1021.80 385.16 L 1024.80 389.36 L 1027.80 395.21 L 1036.50 414.41 L 1039.65 419.96 L 1049.85 410.81 L 1080.30 380.21 L 1096.35 364.76 L 1110.15 353.21 L 1114.50 350.51 L 1117.50 349.16 L 1119.90 348.71 L 1122.45 349.01 L 1124.40 350.06 L 1126.05 351.71 L 1127.70 355.76 L 1127.70 360.86 L 1125.45 367.46 L 1122.90 372.71 L 1109.10 393.86 L 1126.05 377.36 L 1131.15 373.31 L 1139.55 368.21 L 1145.25 366.71 L 1147.95 367.31 L 1150.50 369.71 L 1151.25 371.66 L 1151.55 374.96 L 1151.25 378.11 L 1150.05 382.01 L 1147.95 386.66 L 1138.50 402.26 L 1125.00 422.06 L 1125.60 422.66 L 1145.55 408.11 L 1155.00 402.56 L 1158.15 401.21 L 1163.40 400.31 L 1167.00 401.21 L 1169.70 404.06 L 1170.45 407.66 L 1170.00 410.36 L 1166.70 417.71 L 1162.80 423.71 L 1138.65 454.76 L 1132.20 463.76 L 1126.35 473.21 L 1114.80 495.26 L 1110.75 501.71 L 1107.45 505.61 L 1107.30 507.71 L 1109.70 529.46 L 1110.90 549.71 L 1111.80 580.31 L 1112.10 623.66 L 1111.65 661.61 L 1110.45 695.36 L 1108.65 725.21 L 1105.95 754.91 L 1102.80 781.01 L 1099.20 803.51 L 1095.00 826.16 L 1090.50 845.36 L 1086.00 861.56 L 1080.60 877.76 L 1075.50 891.11 L 1070.70 901.91 L 1065.00 912.56 L 1059.90 920.96 L 1055.10 927.41 L 1049.85 933.41 L 1045.35 937.76 L 1041.45 940.61 L 1037.25 943.01 L 1033.95 944.06 L 1031.40 944.36 L 1029.90 944.06 L 1027.95 942.41 L 1027.35 939.86 L 1027.65 938.66 L 1029.90 936.41 L 1041.60 929.51 L 1051.05 921.26 L 1059.60 910.16 L 1063.50 903.71 L 1067.85 895.46 L 1072.35 885.11 L 1076.25 874.76 L 1080.45 861.86 L 1084.50 846.41 L 1088.10 830.96 L 1091.55 812.51 L 1094.85 790.76 L 1097.55 769.01 L 1099.95 743.81 L 1101.90 714.71 L 1103.40 685.61 L 1104.30 652.61 L 1104.60 615.11 L 1104.00 579.41 L 1102.80 542.66 L 1084.05 538.46 L 1082.10 537.71 L 1080.90 536.51 L 1080.60 535.01 L 1080.90 533.51 L 1081.80 532.31 L 1083.00 531.56 L 1084.50 531.41 L 1102.65 534.86 L 1100.25 508.01 L 1041.00 491.96 L 1036.20 490.76 L 1034.55 491.06 L 1032.30 493.31 L 1019.10 510.86 L 1038.75 518.36 L 1040.55 519.56 L 1041.60 520.76 L 1041.90 522.11 L 1041.60 523.46 L 1040.85 524.66 L 1039.65 525.41 L 1038.15 525.71 L 1014.15 517.46 L 999.90 537.71 L 986.10 558.11 L 973.20 579.11 L 960.75 600.26 L 949.20 621.86 L 938.25 643.91 L 928.20 666.56 L 918.75 689.51 L 930.45 700.76 L 943.65 715.61 L 952.05 727.31 L 959.55 740.81 L 962.55 748.16 L 965.25 756.11 L 967.20 764.21 L 968.40 772.76 L 968.85 781.91 L 968.55 788.96 L 967.65 795.41 L 964.65 807.11 L 961.50 814.61 L 957.90 821.06 L 953.85 826.76 L 949.05 831.86 L 944.25 836.06 L 939.15 839.36 L 933.75 841.91 L 928.50 843.26 L 923.25 843.86 L 918.30 843.26 L 913.95 842.06 L 910.20 840.11 L 906.90 837.41 L 904.05 834.11 L 901.35 830.36 L 898.35 824.21 L 895.95 817.31 L 892.95 803.51 L 891.90 791.36 L 891.60 783.26 L 892.20 769.61 L 893.55 756.56 L 895.50 743.81 L 898.05 732.11 L 903.90 710.36 L 909.60 692.21 L 843.60 643.31 L 827.85 632.21 L 811.80 622.01 L 810.30 621.41 L 753.60 634.46 Z M 691.50 403.61 L 678.60 405.86 L 671.10 406.31 L 664.05 406.01 L 657.45 405.11 L 651.60 403.61 L 642.90 400.76 L 635.10 397.01 L 606.30 379.91 L 599.10 376.31 L 591.45 373.31 L 586.20 371.96 L 574.65 370.76 L 562.05 372.11 L 551.70 372.56 L 544.95 372.11 L 538.80 371.21 L 533.25 369.86 L 523.05 365.81 L 512.70 359.06 L 503.40 350.21 L 494.70 339.56 L 487.65 346.46 L 481.35 353.66 L 475.95 361.16 L 466.95 376.76 L 463.50 384.56 L 457.80 400.46 L 453.30 419.36 L 451.80 429.41 L 450.30 446.66 L 450.30 469.61 L 452.25 491.51 L 454.80 506.96 L 457.80 520.76 L 464.25 544.01 L 469.50 559.46 L 471.45 562.46 L 474.90 563.66 L 487.05 563.66 L 504.75 561.41 L 520.35 558.86 L 521.40 559.91 L 526.05 574.76 L 549.90 666.26 L 550.80 668.21 L 552.60 670.31 L 555.90 672.56 L 563.85 676.46 L 569.40 678.56 L 578.25 680.81 L 588.75 682.76 L 599.85 683.96 L 612.00 684.41 L 621.60 684.26 L 643.35 681.71 L 654.45 679.61 L 666.00 676.76 L 677.85 673.01 L 689.40 668.51 L 700.80 663.26 L 712.05 657.11 L 720.30 651.86 L 728.10 646.16 L 735.75 639.86 L 742.95 633.11 L 726.75 563.21 L 691.50 403.61 Z M 1120.20 358.76 L 1119.60 356.21 L 1113.15 360.41 L 1105.65 366.41 L 1090.20 380.96 L 1059.75 412.01 L 1052.85 418.46 L 1047.30 423.11 L 1043.40 425.66 L 1040.55 427.01 L 1038.45 427.46 L 1035.15 426.11 L 1031.25 421.31 L 1020.00 397.16 L 1014.90 389.21 L 1013.25 392.81 L 1012.35 396.41 L 1012.35 407.81 L 1013.10 415.31 L 1016.70 434.21 L 1019.70 445.01 L 1026.60 464.06 L 1030.35 472.01 L 1035.90 480.86 L 1038.90 483.26 L 1098.00 499.46 L 1101.45 499.31 L 1103.10 498.56 L 1105.50 496.16 L 1115.55 478.16 L 1129.35 455.36 L 1140.30 439.91 L 1155.60 421.16 L 1160.55 413.06 L 1162.65 408.11 L 1158.30 409.61 L 1153.35 412.16 L 1143.30 419.06 L 1128.90 430.16 L 1121.40 434.66 L 1118.85 435.26 L 1116.90 434.81 L 1115.25 433.76 L 1114.05 432.11 L 1113.45 430.16 L 1114.05 427.91 L 1115.70 423.86 L 1141.65 382.46 L 1143.30 378.56 L 1143.90 376.31 L 1143.30 375.26 L 1136.25 379.16 L 1132.35 382.01 L 1126.95 386.66 L 1106.40 407.21 L 1102.20 410.81 L 1096.80 413.81 L 1094.70 414.26 L 1092.90 413.81 L 1091.40 412.91 L 1090.35 411.26 L 1090.05 409.46 L 1091.25 405.56 L 1096.35 397.31 L 1113.75 373.01 L 1118.85 363.86 L 1120.20 358.76 Z M 915.90 698.06 L 908.85 720.86 L 903.45 743.96 L 901.35 756.86 L 899.85 770.06 L 899.40 783.41 L 900.45 801.86 L 903.00 815.06 L 906.60 824.06 L 908.85 827.66 L 912.90 832.31 L 916.20 834.41 L 918.90 835.46 L 922.65 836.06 L 926.25 835.76 L 934.20 832.91 L 938.25 830.66 L 942.45 827.36 L 946.65 823.31 L 950.40 818.66 L 953.85 812.96 L 956.85 806.21 L 959.85 795.26 L 961.05 781.31 L 960.75 773.36 L 959.55 765.71 L 957.75 758.51 L 955.50 751.31 L 949.65 738.41 L 944.25 729.56 L 938.85 721.76 L 933.15 714.71 L 923.10 704.21 L 915.90 698.06 Z M 735.75 490.01 L 734.10 482.51 L 735.30 479.81 L 736.50 478.91 L 738.00 478.76 L 739.50 479.06 L 740.55 479.81 L 743.10 486.56 L 746.25 485.06 L 750.30 481.76 L 752.25 478.91 L 753.45 476.06 L 754.20 469.46 L 751.50 451.01 L 748.20 433.31 L 743.70 413.06 L 738.00 392.96 L 734.85 383.66 L 728.85 370.46 L 723.75 363.26 L 720.90 360.56 L 718.05 359.06 L 715.20 358.61 L 709.80 359.06 L 705.90 360.11 L 703.05 361.46 L 700.80 363.56 L 699.15 366.11 L 698.10 369.26 L 697.35 374.36 L 697.50 391.61 L 701.55 415.46 L 710.55 456.86 L 719.40 493.91 L 735.75 490.01 Z" fill="#000000" fill-rule="nonzero" group-id="1" node-id="43" stroke="none" target-height="778.2001" target-width="1027.5" target-x="142.94633" target-y="245.65848"/><path d="M 302.85 544.76 L 292.35 543.56 L 273.90 539.66 L 264.75 536.96 L 252.90 532.61 L 241.20 527.51 L 229.80 521.66 L 218.85 515.06 L 208.20 508.16 L 198.15 500.66 L 188.40 492.56 L 179.40 484.46 L 171.00 476.06 L 163.05 467.21 L 156.00 458.51 L 149.85 449.81 L 144.30 440.81 L 139.80 432.26 L 136.20 424.16 L 133.95 417.71 L 132.45 411.71 L 131.25 400.91 L 131.70 398.36 L 132.60 395.96 L 134.25 394.01 L 136.35 392.51 L 237.30 336.56 L 243.30 333.71 L 245.10 334.01 L 247.05 335.81 L 247.50 337.16 L 245.70 342.86 L 244.95 349.01 L 245.55 356.51 L 246.90 364.16 L 249.15 371.66 L 252.30 379.01 L 256.05 386.21 L 260.55 393.11 L 265.65 399.86 L 271.20 406.16 L 277.20 412.16 L 283.65 417.71 L 297.45 427.31 L 304.65 431.36 L 312.00 434.81 L 319.35 437.51 L 326.85 439.46 L 334.05 440.66 L 341.10 441.11 L 345.60 440.06 L 346.95 440.36 L 348.90 442.31 L 349.20 443.66 L 346.95 449.81 L 323.55 505.46 L 310.35 533.36 L 304.80 542.81 L 302.85 544.76 Z M 236.85 345.86 L 169.95 382.46 L 143.25 398.21 L 139.05 401.51 L 139.35 406.46 L 141.90 418.01 L 144.30 424.46 L 148.05 432.86 L 152.85 441.71 L 159.00 451.01 L 165.90 460.01 L 173.85 469.16 L 182.85 478.31 L 192.60 487.01 L 203.25 495.41 L 214.95 503.51 L 233.70 514.46 L 243.90 519.41 L 265.50 528.11 L 276.75 531.71 L 288.60 534.71 L 301.05 537.11 L 339.15 448.91 L 328.50 447.11 L 318.90 444.86 L 310.35 442.16 L 302.40 439.01 L 294.75 435.26 L 281.40 426.86 L 275.70 422.21 L 268.65 415.31 L 262.50 408.41 L 257.40 401.36 L 248.85 386.51 L 245.70 379.61 L 241.95 368.96 L 239.40 360.11 L 236.85 345.86 Z" fill="#000000" fill-rule="nonzero" group-id="1" node-id="45" stroke="none" target-height="211.04999" target-width="217.94998" target-x="131.24637" target-y="333.7085"/><path d="M 878.85 270.41 L 879.45 259.76 L 880.65 249.11 L 882.75 238.61 L 885.45 228.41 L 888.90 218.21 L 893.10 208.31 L 898.95 205.91 L 933.90 195.71 L 1015.05 174.26 L 1020.45 172.76 L 1021.95 173.06 L 1023.15 173.96 L 1023.90 175.16 L 1024.05 176.66 L 1021.20 189.56 L 1018.65 208.01 L 1018.20 219.71 L 1018.50 230.21 L 1020.60 248.06 L 1022.10 255.71 L 1025.10 265.91 L 1028.40 274.76 L 1032.15 282.26 L 1040.70 295.76 L 1045.05 301.01 L 1051.95 308.06 L 1057.95 313.31 L 1070.40 322.76 L 1071.75 324.86 L 1070.85 327.56 L 1068.45 329.36 L 944.25 385.31 L 934.80 379.91 L 928.05 374.96 L 918.75 366.56 L 908.40 354.71 L 898.35 339.11 L 893.85 330.56 L 889.65 320.66 L 885.75 309.41 L 881.55 291.56 L 878.85 270.41 Z M 886.80 270.56 L 887.25 281.21 L 888.45 291.71 L 890.70 302.06 L 893.70 311.96 L 897.45 321.71 L 902.10 331.01 L 907.35 340.01 L 913.50 348.56 L 920.25 356.51 L 927.60 363.86 L 935.70 370.76 L 944.55 376.91 L 1060.05 324.71 L 1051.80 318.71 L 1046.40 313.91 L 1040.85 308.06 L 1034.55 300.26 L 1026.90 288.11 L 1023.00 280.46 L 1019.70 272.66 L 1016.70 263.81 L 1014.00 253.76 L 1012.20 243.71 L 1011.00 232.31 L 1010.55 219.71 L 1011.00 207.11 L 1012.05 197.36 L 1014.60 182.21 L 899.25 212.96 L 895.50 222.26 L 892.50 231.56 L 889.95 241.16 L 888.30 250.76 L 887.10 260.66 L 886.80 270.56 Z" fill="#000000" fill-rule="nonzero" group-id="1" node-id="47" stroke="none" target-height="212.55" target-width="192.89996" target-x="878.84625" target-y="172.75859"/><path d="M 526.05 181.01 L 515.55 180.26 L 505.65 178.61 L 502.95 178.91 L 501.75 178.31 L 498.90 175.61 L 491.70 167.06 L 472.95 142.61 L 458.10 122.21 L 455.70 118.46 L 456.00 117.11 L 457.95 114.71 L 460.65 113.21 L 469.65 113.66 L 475.20 113.36 L 485.85 110.96 L 493.65 107.96 L 501.15 104.06 L 509.55 98.66 L 516.90 93.11 L 523.35 87.26 L 534.45 74.66 L 538.80 68.51 L 544.65 58.91 L 552.75 41.36 L 559.80 22.76 L 561.15 20.21 L 563.25 18.56 L 600.00 29.21 L 638.10 41.21 L 654.75 47.96 L 656.55 49.61 L 656.25 51.26 L 652.35 63.26 L 644.40 82.01 L 638.70 93.26 L 632.25 104.81 L 619.05 124.91 L 606.45 140.51 L 599.40 147.86 L 591.90 154.61 L 583.95 160.91 L 575.55 166.61 L 566.70 171.41 L 557.25 175.46 L 549.90 177.71 L 542.40 179.51 L 534.45 180.56 L 526.05 181.01 Z M 565.35 26.96 L 560.85 40.16 L 556.20 51.86 L 551.40 61.76 L 545.70 71.51 L 540.00 79.76 L 534.30 86.81 L 528.15 93.41 L 522.00 98.96 L 516.15 103.61 L 509.85 107.81 L 498.45 113.81 L 490.05 117.11 L 483.15 119.06 L 476.70 120.56 L 466.95 121.76 L 494.40 157.91 L 504.60 170.21 L 519.60 172.76 L 527.10 173.21 L 534.90 172.76 L 542.40 171.71 L 549.60 169.91 L 556.50 167.51 L 565.50 163.31 L 574.20 158.21 L 582.30 152.21 L 590.10 145.76 L 597.45 138.56 L 604.20 131.06 L 610.65 123.11 L 622.05 107.06 L 629.40 94.91 L 635.40 83.66 L 640.50 72.86 L 643.95 64.31 L 647.70 52.01 Z" fill="#000000" fill-rule="nonzero" group-id="1" node-id="49" stroke="none" target-height="162.45001" target-width="200.84998" target-x="455.69635" target-y="18.558516"/><path d="M 757.65 926.21 L 762.00 929.81 L 770.10 935.21 L 780.30 940.91 L 785.85 943.46 L 796.35 946.91 L 800.85 947.36 L 808.35 946.01 L 811.05 947.06 L 811.95 948.26 L 812.10 949.76 L 811.65 951.41 L 810.60 952.61 L 806.85 954.26 L 802.95 954.86 L 795.15 954.56 L 789.00 953.06 L 781.80 950.21 L 767.70 942.71 L 752.25 931.76 L 736.80 918.56 L 725.70 907.61 L 715.05 896.06 L 702.15 879.86 L 691.65 863.66 L 684.00 848.36 L 681.45 840.56 L 679.80 833.66 L 679.35 827.51 L 679.95 821.36 L 680.85 818.21 L 682.50 815.36 L 684.75 812.66 L 687.75 810.56 L 690.15 809.66 L 696.90 808.76 L 705.60 809.81 L 710.25 811.16 L 717.00 813.71 L 729.90 820.61 L 748.80 833.81 L 764.40 820.01 L 777.45 810.71 L 784.80 806.66 L 792.30 803.36 L 797.40 801.86 L 802.50 800.81 L 807.60 800.36 L 812.25 800.96 L 815.55 801.86 L 821.70 805.16 L 825.90 810.41 L 827.25 813.71 L 828.30 818.06 L 828.75 823.46 L 827.70 832.46 L 824.40 844.46 L 821.85 851.06 L 814.80 865.46 L 804.90 880.91 L 792.45 896.36 L 784.95 904.16 L 776.85 911.66 L 767.70 919.01 L 757.65 926.21 Z M 749.40 843.86 L 734.10 832.61 L 722.10 824.96 L 715.65 821.51 L 705.00 817.46 L 697.20 816.26 L 694.05 816.56 L 691.50 817.46 L 689.55 818.66 L 688.20 820.61 L 687.30 823.31 L 686.85 827.51 L 687.30 832.61 L 688.50 838.16 L 690.60 844.31 L 696.30 856.46 L 706.35 872.51 L 713.25 881.81 L 727.65 898.76 L 741.00 912.56 L 751.20 921.11 L 761.85 913.61 L 771.60 905.66 L 780.45 897.41 L 788.85 888.56 L 796.05 879.71 L 802.50 871.01 L 808.20 861.71 L 812.70 853.16 L 816.30 845.21 L 819.00 836.96 L 820.50 829.91 L 820.95 823.91 L 820.80 820.01 L 819.30 814.76 L 817.50 811.91 L 815.40 810.11 L 810.75 808.46 L 806.85 808.16 L 801.90 808.61 L 796.80 809.81 L 791.40 811.91 L 783.60 815.96 L 775.80 821.21 L 761.25 832.91 L 749.40 843.86 Z" fill="#000000" fill-rule="nonzero" group-id="1" node-id="51" stroke="none" target-height="154.50006" target-width="149.39996" target-x="679.34625" target-y="800.35846"/><path d="M 261.75 601.46 L 268.05 602.66 L 275.40 606.41 L 279.45 607.16 L 283.05 606.56 L 296.85 599.81 L 301.05 599.21 L 304.50 599.66 L 307.35 600.56 L 316.50 606.56 L 318.60 607.61 L 320.85 607.91 L 324.30 607.46 L 327.60 606.26 L 339.90 599.06 L 343.20 597.86 L 347.10 597.41 L 350.25 597.71 L 353.10 598.61 L 355.65 600.11 L 357.75 602.06 L 359.10 604.46 L 359.70 607.16 L 359.40 608.66 L 358.65 609.86 L 357.45 610.76 L 356.10 611.06 L 354.45 610.61 L 351.30 606.41 L 349.80 605.36 L 347.55 604.91 L 344.40 605.36 L 341.55 606.56 L 332.70 612.11 L 329.10 613.76 L 325.35 614.96 L 320.70 615.41 L 317.25 615.11 L 314.40 614.06 L 305.55 608.06 L 303.45 607.01 L 301.20 606.71 L 298.50 607.16 L 287.55 612.56 L 283.50 614.06 L 279.45 614.66 L 275.70 614.21 L 272.40 613.01 L 263.25 608.96 L 259.95 608.36 L 258.30 608.66 L 256.05 610.16 L 252.60 614.36 L 251.10 614.96 L 249.75 614.51 L 247.95 612.71 L 247.95 609.86 L 249.00 607.61 L 250.80 605.51 L 253.50 603.41 L 258.45 601.76 L 261.75 601.46 Z" fill="#000000" fill-rule="nonzero" group-id="1" node-id="53" stroke="none" target-height="18" target-width="111.749985" target-x="247.94637" target-y="597.40845"/><path d="M 887.55 499.46 L 895.65 500.51 L 899.25 499.31 L 908.25 488.66 L 911.25 485.96 L 915.75 483.56 L 918.45 483.26 L 921.15 483.56 L 929.40 486.56 L 932.55 486.41 L 935.85 484.16 L 943.05 475.01 L 945.90 472.16 L 948.00 470.66 L 952.65 469.46 L 957.00 470.66 L 960.60 473.51 L 962.10 476.36 L 961.20 478.91 L 958.65 479.96 L 956.25 479.21 L 953.40 477.26 L 951.30 477.41 L 948.75 479.81 L 941.70 488.81 L 936.45 493.01 L 931.20 494.21 L 928.50 493.91 L 920.25 490.91 L 917.10 491.06 L 913.95 493.46 L 906.75 502.46 L 901.50 506.66 L 896.25 508.01 L 889.50 507.11 L 884.25 506.96 L 879.00 508.61 L 876.75 509.81 L 873.60 513.41 L 871.35 519.26 L 870.45 520.46 L 868.80 520.91 L 867.00 520.31 L 866.25 519.56 L 865.50 517.01 L 866.25 513.11 L 869.40 507.41 L 873.30 503.81 L 876.15 502.16 L 882.90 499.91 L 887.55 499.46 Z" fill="#000000" fill-rule="nonzero" group-id="1" node-id="55" stroke="none" target-height="51.450043" target-width="96.599976" target-x="865.49634" target-y="469.45853"/><path d="M 745.50 277.31 L 743.40 276.71 L 741.60 275.36 L 740.40 273.41 L 739.95 271.16 L 741.45 266.66 L 743.10 263.51 L 748.50 255.56 L 755.70 248.21 L 759.90 245.36 L 765.90 243.11 L 769.05 242.81 L 773.70 243.56 L 776.10 244.61 L 779.25 247.91 L 780.15 252.41 L 779.85 255.86 L 778.95 258.86 L 777.45 261.71 L 774.45 265.31 L 770.55 268.61 L 766.20 271.16 L 756.75 275.06 L 745.50 277.31 Z M 748.05 268.91 L 752.85 268.16 L 761.70 265.01 L 765.60 262.76 L 768.30 260.51 L 770.40 257.81 L 772.35 253.46 L 772.35 251.66 L 770.70 250.61 L 768.75 250.46 L 765.75 251.06 L 762.45 252.71 L 756.60 257.81 L 748.05 268.91 Z" fill="#000000" fill-rule="nonzero" group-id="1" node-id="57" stroke="none" target-height="34.5" target-width="40.19995" target-x="739.94635" target-y="242.80856"/><path d="M 374.10 373.61 L 366.90 372.71 L 357.00 370.16 L 349.80 366.71 L 345.30 362.36 L 343.50 358.01 L 343.65 354.56 L 344.10 352.61 L 346.05 349.46 L 347.55 348.26 L 351.15 346.91 L 356.70 347.06 L 363.15 349.01 L 367.80 351.56 L 372.75 355.01 L 385.05 365.21 L 385.65 367.01 L 385.35 368.36 L 383.10 371.96 L 380.25 373.16 L 374.10 373.61 Z M 373.50 366.26 L 374.40 365.66 L 366.00 359.36 L 359.85 356.06 L 356.70 355.01 L 353.70 354.71 L 351.75 355.31 L 351.90 357.86 L 354.45 360.56 L 361.05 363.56 L 368.55 365.51 L 373.50 366.26 Z" fill="#000000" fill-rule="nonzero" group-id="1" node-id="59" stroke="none" target-height="26.700012" target-width="42.150024" target-x="343.4963" target-y="346.9086"/><path d="M 438.60 232.01 L 439.35 227.81 L 440.40 224.96 L 441.90 222.56 L 443.55 221.21 L 445.35 220.31 L 448.80 219.71 L 452.10 220.16 L 454.80 221.21 L 457.35 223.16 L 460.50 226.76 L 463.05 231.41 L 470.10 250.16 L 470.55 251.81 L 469.95 253.76 L 467.25 256.61 L 464.55 256.91 L 460.05 254.66 L 448.95 247.01 L 443.55 242.21 L 440.70 237.86 L 438.60 232.01 Z M 460.50 245.36 L 457.35 236.06 L 453.15 230.06 L 451.20 228.41 L 448.95 227.51 L 447.30 228.41 L 446.55 231.11 L 447.15 233.66 L 448.50 236.21 L 450.60 238.46 L 457.80 243.86 L 460.50 245.36 Z" fill="#000000" fill-rule="nonzero" group-id="1" node-id="61" stroke="none" target-height="37.200012" target-width="31.950012" target-x="438.59628" target-y="219.70853"/><path d="M 575.10 531.11 L 576.15 522.71 L 578.70 517.46 L 581.85 514.31 L 584.55 512.81 L 589.35 511.76 L 593.25 512.51 L 596.10 513.71 L 601.20 517.46 L 604.80 522.56 L 606.90 529.61 L 607.05 536.51 L 605.55 542.06 L 604.05 544.76 L 602.25 547.16 L 599.70 549.26 L 595.50 550.76 L 592.80 551.06 L 589.50 550.76 L 586.65 549.86 L 584.25 548.36 L 581.10 545.66 L 578.70 542.36 L 576.90 538.76 L 575.85 535.61 L 575.10 531.11 Z M 599.55 534.56 L 599.10 529.91 L 598.05 526.61 L 594.90 522.11 L 591.60 520.01 L 589.50 519.56 L 587.40 520.01 L 585.60 521.21 L 584.40 522.86 L 582.90 527.21 L 583.05 532.91 L 584.10 536.06 L 585.75 539.06 L 589.50 542.51 L 592.80 543.41 L 595.95 542.36 L 598.20 539.36 L 599.55 534.56 Z" fill="#000000" fill-rule="nonzero" group-id="1" node-id="63" stroke="none" target-height="39.299988" target-width="31.950012" target-x="575.0963" target-y="511.75848"/><path d="M 530.40 407.06 L 531.75 407.36 L 533.70 409.61 L 534.00 411.41 L 533.10 413.21 L 516.30 431.51 L 512.70 434.21 L 510.45 433.91 L 509.40 433.16 L 508.20 430.61 L 508.65 428.96 L 510.60 426.41 L 525.90 409.76 L 528.60 407.51 L 530.40 407.06 Z" fill="#000000" fill-rule="nonzero" group-id="1" node-id="65" stroke="none" target-height="27.149994" target-width="25.799988" target-x="508.19635" target-y="407.05856"/><path d="M 610.20 410.06 L 594.75 406.61 L 584.25 403.31 L 582.90 401.66 L 583.05 398.96 L 585.15 397.01 L 586.65 396.71 L 602.55 400.31 L 612.45 403.16 L 614.25 404.96 L 613.95 407.81 L 613.05 409.01 L 611.70 409.91 L 610.20 410.06 Z" fill="#000000" fill-rule="nonzero" group-id="1" node-id="67" stroke="none" target-height="13.350006" target-width="31.349976" target-x="582.8963" target-y="396.7086"/><path d="M 534.00 455.96 L 534.15 454.46 L 534.90 453.11 L 536.25 452.21 L 537.75 452.06 L 540.00 452.66 L 541.35 454.76 L 545.10 467.51 L 545.85 470.66 L 544.65 473.36 L 542.10 474.41 L 540.90 474.11 L 538.95 472.76 L 536.10 464.36 L 534.00 455.96 Z" fill="#000000" fill-rule="nonzero" group-id="1" node-id="69" stroke="none" target-height="22.349976" target-width="11.850037" target-x="533.99634" target-y="452.05856"/><path d="M 543.75 490.16 L 543.45 491.66 L 542.55 493.01 L 541.35 493.76 L 539.70 494.06 L 537.60 493.31 L 526.80 486.41 L 525.75 485.36 L 525.00 483.11 L 526.05 480.41 L 527.10 479.66 L 529.65 479.51 L 542.10 487.16 L 543.75 489.11 L 543.75 490.16 Z" fill="#000000" fill-rule="nonzero" group-id="1" node-id="71" stroke="none" target-height="14.549988" target-width="18.75" target-x="524.99634" target-y="479.5086"/><path d="M 590.40 442.46 L 590.70 440.96 L 591.45 439.61 L 592.65 438.71 L 594.15 438.41 L 595.65 438.71 L 597.45 440.51 L 599.85 447.71 L 601.50 455.06 L 601.35 456.41 L 600.60 457.76 L 599.25 458.51 L 596.55 458.51 L 594.60 456.86 L 590.40 442.46 Z" fill="#000000" fill-rule="nonzero" group-id="1" node-id="73" stroke="none" target-height="20.100006" target-width="11.099976" target-x="590.3963" target-y="438.40854"/><path d="M 612.90 473.06 L 611.40 472.91 L 609.15 470.96 L 608.70 469.46 L 609.00 467.96 L 610.95 464.81 L 615.75 458.66 L 616.95 457.76 L 618.45 457.46 L 621.15 458.51 L 621.90 459.71 L 622.20 462.26 L 616.65 470.36 L 615.15 472.01 L 612.90 473.06 Z" fill="#000000" fill-rule="nonzero" group-id="1" node-id="75" stroke="none" target-height="15.600006" target-width="13.5" target-x="608.6963" target-y="457.45856"/><path d="M 727.95 437.81 L 732.45 439.31 L 736.35 443.36 L 739.35 450.11 L 741.00 459.71 L 741.00 464.51 L 740.25 465.86 L 738.90 466.76 L 737.40 467.21 L 734.70 466.16 L 733.50 462.86 L 732.15 452.81 L 730.95 449.36 L 728.85 446.21 L 725.40 448.16 L 722.85 448.01 L 721.65 446.81 L 720.90 444.56 L 715.20 395.66 L 715.35 394.16 L 716.10 392.66 L 717.45 391.76 L 718.95 391.46 L 720.45 391.61 L 721.50 392.36 L 723.15 396.71 L 726.15 425.51 L 727.95 437.81 Z" fill="#000000" fill-rule="nonzero" group-id="1" node-id="77" stroke="none" target-height="75.75" target-width="25.799988" target-x="715.19635" target-y="391.45853"/><path d="M 223.65 425.06 L 214.05 424.16 L 226.50 434.21 L 246.90 449.06 L 248.10 451.16 L 247.35 453.41 L 246.15 455.21 L 254.85 456.71 L 259.80 458.21 L 260.85 459.56 L 261.30 461.36 L 260.85 463.31 L 259.80 464.96 L 267.30 469.61 L 285.00 478.31 L 285.90 479.51 L 289.05 488.36 L 287.85 490.46 L 285.60 491.21 L 283.50 490.91 L 280.80 489.26 L 279.45 487.31 L 278.40 483.41 L 265.50 477.41 L 257.70 472.76 L 253.50 468.56 L 251.55 463.91 L 240.90 461.21 L 235.35 458.51 L 234.00 457.16 L 232.95 454.31 L 233.55 451.76 L 234.60 449.51 L 219.60 438.41 L 210.15 430.61 L 204.45 424.46 L 200.10 417.56 L 191.40 410.96 L 187.95 407.21 L 187.50 405.56 L 187.80 404.36 L 189.45 402.56 L 190.65 402.26 L 192.90 403.16 L 200.10 409.01 L 204.15 403.91 L 207.30 401.81 L 212.70 400.16 L 216.45 399.86 L 220.50 400.16 L 224.55 401.51 L 229.20 404.51 L 232.65 408.86 L 233.55 411.71 L 233.70 417.11 L 232.20 420.86 L 230.85 422.36 L 227.55 424.46 L 223.65 425.06 Z M 207.30 412.76 L 213.30 415.31 L 220.95 417.56 L 224.25 417.56 L 226.05 416.36 L 226.05 412.91 L 225.15 411.11 L 221.85 408.41 L 219.45 407.51 L 214.80 407.36 L 210.75 408.41 L 207.75 410.81 L 207.30 412.76 Z" fill="#000000" fill-rule="nonzero" group-id="1" node-id="79" stroke="none" target-height="91.350006" target-width="101.54999" target-x="187.49634" target-y="399.85855"/><path d="M 976.35 289.46 L 974.25 289.16 L 972.45 288.11 L 969.90 291.56 L 966.90 294.26 L 965.25 295.16 L 961.20 295.31 L 958.50 298.91 L 956.85 300.26 L 954.75 300.86 L 952.95 300.26 L 951.45 299.21 L 949.35 296.06 L 944.25 301.31 L 941.40 303.56 L 938.40 305.36 L 934.95 306.56 L 930.75 307.01 L 927.75 312.71 L 926.55 314.06 L 925.05 314.51 L 923.70 314.36 L 921.90 312.41 L 921.75 311.21 L 923.85 305.36 L 920.55 301.16 L 919.05 298.46 L 918.00 295.16 L 917.55 290.21 L 917.85 285.26 L 918.90 280.61 L 920.55 276.41 L 922.65 273.11 L 924.45 271.46 L 926.55 270.56 L 928.80 270.11 L 931.35 270.56 L 933.30 271.76 L 934.65 273.41 L 936.30 277.46 L 936.75 282.56 L 936.30 288.41 L 934.05 298.76 L 936.45 297.86 L 939.00 295.91 L 948.60 285.11 L 950.85 283.16 L 952.50 282.56 L 954.00 283.01 L 955.20 283.91 L 956.85 286.46 L 960.30 285.41 L 964.20 286.61 L 970.05 277.76 L 971.10 277.16 L 973.50 277.16 L 974.55 277.76 L 977.25 280.91 L 982.95 274.31 L 986.25 271.16 L 988.65 271.31 L 989.70 272.21 L 990.75 274.61 L 990.15 276.86 L 980.55 287.66 L 979.20 288.71 L 976.35 289.46 Z M 929.25 283.16 L 928.80 277.91 L 927.15 280.01 L 925.95 282.86 L 925.05 289.16 L 925.05 291.86 L 927.00 296.66 L 928.20 292.31 L 929.25 283.16 Z" fill="#000000" fill-rule="nonzero" group-id="1" node-id="81" stroke="none" target-height="44.400024" target-width="73.19995" target-x="917.5463" target-y="270.10852"/><path d="M 540.45 119.66 L 556.80 105.86 L 559.65 103.91 L 561.75 103.61 L 564.15 104.21 L 568.65 95.21 L 570.60 93.11 L 571.95 92.81 L 573.60 93.26 L 574.95 94.16 L 576.00 95.81 L 580.20 91.16 L 584.55 85.01 L 588.45 73.91 L 593.40 66.11 L 594.45 65.21 L 595.80 64.91 L 598.35 65.96 L 599.55 68.51 L 599.25 70.16 L 595.05 76.76 L 592.95 83.81 L 591.00 88.16 L 588.60 92.36 L 583.05 99.41 L 580.20 101.81 L 577.50 103.46 L 575.40 103.91 L 573.15 103.46 L 569.55 109.16 L 566.85 112.46 L 563.70 113.51 L 560.10 112.76 L 541.50 128.21 L 533.55 138.56 L 529.65 141.56 L 527.40 142.01 L 525.30 141.71 L 523.80 140.81 L 522.15 138.11 L 521.70 136.31 L 522.75 133.01 L 520.65 129.41 L 520.35 127.31 L 520.80 124.61 L 522.30 121.61 L 524.40 118.91 L 527.10 116.51 L 529.05 115.31 L 533.25 114.41 L 536.55 115.31 L 540.45 119.66 Z M 528.30 126.56 L 531.75 125.66 L 532.65 124.91 L 532.50 122.06 L 530.70 123.26 L 528.30 126.56 Z" fill="#000000" fill-rule="nonzero" group-id="1" node-id="83" stroke="none" target-height="77.10001" target-width="79.20001" target-x="520.3463" target-y="64.90853"/></g><path d="M 807.07 809.06 L 802.12 809.51 L 797.02 810.71 L 791.62 812.81 L 783.82 816.86 L 776.02 822.11 L 768.37 827.81 L 749.62 844.76 L 728.62 829.61 L 715.87 822.41 L 709.57 819.71 L 701.17 817.46 L 694.27 817.46 L 691.72 818.36 L 689.77 819.56 L 688.42 821.51 L 687.52 824.21 L 687.07 828.41 L 687.52 833.51 L 688.72 839.06 L 693.37 851.21 L 700.27 863.96 L 706.57 873.41 L 713.47 882.71 L 727.87 899.66 L 741.22 913.46 L 751.42 922.01 L 761.92 914.66 L 771.82 906.56 L 781.12 898.01 L 789.82 888.56 L 797.17 879.41 L 803.17 871.01 L 812.47 855.11 L 815.77 847.76 L 819.97 834.86 L 821.02 829.31 L 821.02 820.91 L 819.52 815.66 L 817.72 812.81 L 815.62 811.01 L 810.97 809.36 L 807.07 809.06 Z" fill="#9fe6f3" fill-rule="nonzero" node-id="86" stroke="none" target-height="112.95001" target-width="133.95001" target-x="687.0713" target-y="809.0605"/></svg>
