<svg height="1000" node-id="1" sillyvg="true" template-height="1000" template-width="1287" version="1.1" viewBox="0 0 1287 1000" width="1287" xmlns="http://www.w3.org/2000/svg" xmlns:xlink="http://www.w3.org/1999/xlink"><defs node-id="40"></defs><path d="M 193.15 784.45 L 203.20 752.95 L 224.35 693.85 L 230.05 675.85 L 234.70 659.20 L 239.95 635.20 L 241.00 627.10 L 242.50 608.20 L 243.10 606.10 L 244.45 604.75 L 249.70 602.65 L 237.40 578.65 L 232.75 568.45 L 228.70 557.80 L 225.25 546.55 L 223.45 538.90 L 222.40 531.25 L 222.10 523.60 L 222.40 517.00 L 224.50 506.95 L 226.00 503.20 L 229.90 496.00 L 232.45 483.85 L 234.55 478.00 L 241.75 464.65 L 243.55 462.85 L 246.70 461.35 L 252.85 461.35 L 260.20 463.75 L 268.30 469.15 L 272.80 473.20 L 283.60 485.95 L 302.20 513.10 L 314.80 529.75 L 323.80 538.75 L 332.05 544.15 L 335.65 545.50 L 343.45 546.70 L 347.35 546.40 L 354.70 544.15 L 359.95 541.45 L 364.75 538.00 L 378.25 527.20 L 382.30 524.50 L 387.85 522.25 L 390.55 521.95 L 393.40 522.40 L 395.50 523.15 L 397.30 524.50 L 399.25 527.05 L 400.45 529.90 L 401.05 532.60 L 401.20 536.50 L 398.95 541.75 L 395.65 546.40 L 384.40 559.00 L 363.70 577.75 L 347.80 596.35 L 339.25 607.45 L 335.65 613.30 L 340.75 615.55 L 342.55 617.95 L 342.85 619.60 L 338.05 664.00 L 337.45 674.50 L 337.45 694.30 L 339.70 714.85 L 342.40 730.75 L 349.75 762.85 L 358.15 792.25 L 371.80 832.60 L 387.55 821.65 L 410.65 808.60 L 426.10 800.80 L 491.65 770.65 L 521.80 755.50 L 531.10 750.25 L 546.40 740.20 L 553.15 734.65 L 558.40 729.40 L 562.45 724.45 L 560.05 724.15 L 437.05 725.95 L 433.15 725.35 L 431.20 723.70 L 430.00 719.80 L 426.25 688.90 L 423.85 663.40 L 421.45 623.05 L 421.00 601.75 L 421.45 573.10 L 422.80 547.45 L 425.05 522.40 L 430.15 485.35 L 437.35 450.55 L 441.85 433.30 L 446.80 416.95 L 452.35 401.20 L 458.20 386.05 L 464.95 371.20 L 472.15 357.25 L 479.95 344.05 L 488.05 331.60 L 495.25 322.00 L 502.75 313.15 L 510.55 304.75 L 518.65 296.95 L 527.20 289.75 L 536.05 283.00 L 545.35 277.00 L 555.10 271.60 L 565.15 266.80 L 575.65 262.75 L 586.30 259.30 L 597.55 256.75 L 609.10 254.80 L 621.40 253.60 L 634.15 253.15 L 646.60 253.60 L 659.20 254.80 L 671.80 256.90 L 684.55 259.60 L 697.00 263.20 L 709.30 267.55 L 721.45 272.50 L 733.45 278.35 L 745.00 284.65 L 756.25 291.70 L 767.05 299.35 L 777.40 307.60 L 787.30 316.45 L 796.60 325.90 L 805.15 335.80 L 813.10 346.15 L 820.30 357.25 L 826.75 368.50 L 832.30 380.35 L 836.95 392.80 L 840.10 402.85 L 842.50 413.05 L 844.30 423.70 L 845.35 434.50 L 845.80 445.75 L 845.35 456.40 L 844.45 464.50 L 840.85 484.15 L 851.20 526.00 L 853.75 542.50 L 854.05 549.85 L 853.75 554.65 L 852.85 558.85 L 851.35 562.45 L 847.15 568.90 L 844.60 571.60 L 840.25 574.90 L 835.60 577.30 L 829.15 703.15 L 828.10 717.55 L 827.05 723.70 L 826.30 724.90 L 825.40 725.05 L 782.80 724.60 L 784.30 727.90 L 786.40 730.90 L 788.95 733.75 L 797.20 739.15 L 803.05 741.85 L 821.20 748.00 L 847.60 755.65 L 872.05 764.20 L 892.60 773.65 L 902.65 779.20 L 912.70 785.80 L 922.90 793.30 L 930.10 799.45 L 944.20 814.00 L 951.25 822.40 L 957.70 788.95 L 961.30 774.70 L 967.45 753.85 L 973.45 735.70 L 991.75 686.80 L 997.00 671.65 L 1002.70 651.10 L 1006.45 629.35 L 1007.50 617.65 L 1007.95 605.05 L 1007.50 586.00 L 1013.50 585.25 L 1023.25 585.40 L 1023.25 584.80 L 1017.70 574.75 L 1007.20 558.40 L 999.25 547.45 L 974.35 517.30 L 970.90 511.90 L 969.10 508.30 L 968.05 504.85 L 967.60 501.55 L 968.80 496.30 L 970.30 493.60 L 974.20 490.15 L 978.40 489.10 L 981.40 489.55 L 984.25 490.60 L 987.25 492.40 L 991.30 495.70 L 1004.20 509.05 L 1009.00 513.25 L 1014.40 516.55 L 1018.15 518.35 L 1022.35 519.40 L 1027.00 519.85 L 1034.65 518.65 L 1042.30 515.05 L 1052.20 507.70 L 1064.65 495.25 L 1087.15 469.90 L 1094.80 462.10 L 1102.30 455.50 L 1098.85 439.60 L 1095.40 427.00 L 1091.50 415.60 L 1084.60 399.70 L 1078.75 388.60 L 1094.20 379.00 L 1096.00 376.90 L 1095.85 374.20 L 1093.90 372.25 L 1090.90 372.25 L 1074.40 380.95 L 1043.65 331.30 L 1050.40 326.20 L 1025.80 326.05 L 1023.40 326.65 L 1009.00 334.45 L 1002.10 337.30 L 993.25 340.15 L 986.95 341.50 L 979.60 342.25 L 971.05 342.70 L 962.20 342.25 L 955.60 341.35 L 950.80 340.00 L 947.20 338.50 L 945.10 336.85 L 943.90 335.50 L 943.60 334.00 L 943.90 332.35 L 946.00 330.25 L 947.65 329.95 L 957.85 333.40 L 962.50 334.30 L 969.25 334.60 L 977.65 334.30 L 992.20 332.05 L 998.50 330.25 L 1006.75 326.95 L 1013.95 323.20 L 1020.40 318.85 L 1026.25 313.75 L 1031.35 308.50 L 1035.70 302.95 L 1042.75 291.10 L 1045.45 285.10 L 1048.60 276.25 L 1050.55 268.15 L 1051.75 260.35 L 1052.05 254.50 L 1051.75 246.40 L 1050.55 238.60 L 1048.60 230.95 L 1046.05 223.45 L 1042.60 216.40 L 1038.55 209.65 L 1033.90 203.20 L 1028.50 197.20 L 1022.50 191.80 L 1016.05 187.15 L 1009.30 183.10 L 1002.10 179.80 L 994.75 177.10 L 987.10 175.15 L 979.15 174.10 L 971.20 173.65 L 951.40 175.60 L 949.75 175.45 L 948.40 174.55 L 947.50 173.20 L 947.50 170.35 L 949.00 168.25 L 950.20 167.80 L 957.25 166.45 L 971.35 165.55 L 980.80 166.00 L 989.20 167.20 L 996.55 169.00 L 1003.60 171.40 L 1015.45 177.10 L 1022.95 182.20 L 1040.95 197.50 L 1042.90 198.70 L 1071.85 203.05 L 1075.60 204.40 L 1076.05 205.15 L 1075.90 207.10 L 1075.30 208.00 L 1073.35 208.75 L 1046.05 205.30 L 1046.95 207.70 L 1048.30 209.05 L 1050.10 210.10 L 1076.80 213.85 L 1078.90 214.60 L 1080.25 215.80 L 1079.65 218.50 L 1077.25 219.40 L 1052.35 216.10 L 1059.70 239.80 L 1082.05 243.25 L 1084.60 243.85 L 1086.85 245.20 L 1087.00 246.85 L 1086.55 247.90 L 1085.80 248.65 L 1083.85 248.95 L 1059.85 245.65 L 1060.15 253.75 L 1059.85 262.15 L 1058.65 270.40 L 1056.70 278.50 L 1054.00 286.60 L 1073.35 288.70 L 1075.45 289.30 L 1076.80 290.20 L 1076.95 292.60 L 1076.50 293.20 L 1073.95 294.10 L 1052.05 291.55 L 1048.45 298.30 L 1067.50 300.40 L 1069.45 301.00 L 1070.50 301.75 L 1070.65 304.15 L 1069.15 305.50 L 1067.65 305.80 L 1045.90 303.85 L 1044.10 304.90 L 1040.95 309.40 L 1061.80 310.45 L 1063.60 311.65 L 1063.45 314.20 L 1071.55 304.45 L 1078.90 292.30 L 1082.05 285.25 L 1084.75 277.45 L 1086.70 269.35 L 1088.05 260.35 L 1088.50 250.15 L 1088.05 241.45 L 1087.00 233.20 L 1085.20 225.55 L 1082.95 218.20 L 1079.95 211.00 L 1076.35 204.25 L 1072.45 197.95 L 1067.95 192.10 L 1057.60 181.45 L 1046.05 172.60 L 1037.50 167.65 L 1028.65 163.60 L 1019.50 160.45 L 1010.05 158.05 L 1000.60 156.70 L 991.15 156.25 L 976.60 157.30 L 961.15 160.60 L 953.50 163.30 L 941.05 169.15 L 932.95 173.95 L 932.65 167.20 L 931.30 162.25 L 929.05 157.15 L 922.75 146.95 L 918.55 141.70 L 911.80 134.20 L 896.65 119.80 L 867.10 95.05 L 875.50 77.05 L 875.35 74.35 L 873.25 72.40 L 870.55 72.40 L 869.50 73.15 L 866.35 78.25 L 860.20 89.95 L 844.60 80.20 L 830.20 71.95 L 816.85 65.20 L 790.90 53.80 L 768.10 46.15 L 748.75 41.20 L 735.25 38.65 L 702.70 33.55 L 697.45 31.30 L 688.00 24.25 L 681.70 20.35 L 673.60 16.00 L 661.15 11.35 L 653.80 9.25 L 646.15 7.75 L 637.75 6.85 L 628.45 6.40 L 619.15 6.70 L 610.90 7.60 L 596.20 10.90 L 584.20 15.40 L 576.25 19.30 L 556.45 32.05 L 554.50 32.80 L 518.35 39.40 L 502.90 43.00 L 473.95 50.95 L 445.00 61.00 L 432.10 66.40 L 404.35 79.45 L 398.65 67.90 L 395.20 61.90 L 393.55 60.55 L 392.20 60.25 L 390.55 60.40 L 388.45 62.50 L 388.45 65.80 L 397.30 84.25 L 380.35 96.70 L 364.60 109.15 L 338.35 131.95 L 322.30 148.15 L 315.70 155.80 L 311.80 161.05 L 306.55 170.35 L 297.85 168.55 L 289.15 167.50 L 280.45 167.05 L 271.90 167.50 L 263.95 168.40 L 256.15 169.90 L 248.65 172.15 L 241.15 174.85 L 227.50 181.60 L 215.20 190.45 L 209.65 195.40 L 199.90 206.35 L 195.55 212.50 L 188.65 225.25 L 183.85 239.05 L 182.20 246.25 L 181.30 253.45 L 181.00 260.95 L 181.30 268.45 L 183.10 281.20 L 185.35 289.75 L 188.05 296.95 L 194.05 308.50 L 200.80 319.00 L 201.25 320.35 L 200.80 322.75 L 196.90 336.10 L 193.45 352.00 L 188.50 377.50 L 182.50 415.15 L 180.85 415.45 L 152.95 414.55 L 151.45 414.85 L 150.10 415.60 L 149.20 416.95 L 148.90 418.45 L 149.20 419.95 L 149.95 421.15 L 154.30 422.50 L 181.30 424.45 L 179.35 452.50 L 178.75 503.50 L 178.00 519.70 L 175.15 547.90 L 167.65 592.75 L 164.80 614.50 L 163.75 638.80 L 164.05 651.70 L 165.85 676.45 L 168.25 694.45 L 171.25 711.25 L 174.85 727.45 L 182.50 755.50 L 186.25 766.75 L 193.15 784.45 Z M 935.35 306.70 L 932.05 304.90 L 923.20 297.25 L 917.35 290.35 L 915.25 287.05 L 913.60 283.75 L 913.30 279.70 L 913.90 278.50 L 916.45 277.45 L 919.30 278.35 L 927.55 290.20 L 939.25 301.30 L 939.70 302.95 L 939.25 304.45 L 937.00 306.40 L 935.35 306.70 Z M 937.75 238.75 L 938.05 236.20 L 938.80 234.70 L 940.15 233.65 L 942.25 233.05 L 952.90 232.90 L 954.55 233.20 L 956.05 233.95 L 957.10 235.45 L 957.55 237.10 L 957.25 238.75 L 956.50 239.80 L 954.40 240.85 L 947.35 241.00 L 945.70 241.45 L 946.45 247.00 L 954.70 246.55 L 958.75 248.05 L 961.90 251.05 L 963.55 255.10 L 963.70 257.20 L 963.55 260.35 L 961.75 265.00 L 959.65 267.85 L 957.10 270.10 L 954.25 271.75 L 948.70 273.40 L 945.10 273.40 L 943.75 272.50 L 942.85 271.15 L 942.55 269.50 L 943.45 266.95 L 953.05 262.15 L 954.70 259.60 L 955.00 257.50 L 954.70 256.15 L 953.80 255.40 L 952.30 255.10 L 943.15 256.75 L 940.30 255.85 L 939.25 254.50 L 938.35 251.05 L 937.75 238.75 Z M 973.30 188.35 L 979.15 188.80 L 984.85 189.70 L 990.55 191.50 L 992.50 191.35 L 992.35 192.10 L 1002.55 196.75 L 1007.65 200.05 L 1017.10 207.85 L 1021.45 212.65 L 1025.35 217.90 L 1028.65 223.75 L 1031.50 230.35 L 1033.60 237.25 L 1034.95 244.90 L 1035.40 253.45 L 1034.50 263.50 L 1031.80 274.45 L 1026.85 285.40 L 1023.55 290.65 L 1019.50 295.75 L 1014.85 300.55 L 1009.75 304.75 L 1003.60 308.65 L 996.70 312.10 L 991.30 314.05 L 978.85 317.20 L 971.65 318.10 L 967.30 317.80 L 952.60 315.55 L 948.10 314.20 L 943.00 311.35 L 941.65 308.80 L 941.95 307.30 L 942.70 306.10 L 944.05 305.35 L 947.95 305.50 L 958.75 308.65 L 963.70 309.40 L 970.45 309.85 L 976.75 309.55 L 988.15 307.15 L 998.35 302.65 L 1003.00 299.65 L 1011.25 292.60 L 1015.90 286.90 L 1019.95 280.90 L 1023.10 274.30 L 1025.35 267.55 L 1026.70 260.35 L 1027.30 253.00 L 1026.85 245.95 L 1025.50 239.20 L 1023.55 232.90 L 1020.70 226.75 L 1017.40 221.05 L 1013.35 215.80 L 1008.70 211.15 L 1003.60 206.95 L 997.90 203.35 L 991.75 200.50 L 985.30 198.40 L 978.40 196.90 L 971.20 196.30 L 970.00 195.85 L 969.25 194.80 L 968.80 192.55 L 969.10 190.90 L 970.15 189.40 L 971.65 188.50 L 973.30 188.35 Z M 976.60 243.40 L 976.90 240.40 L 977.65 238.75 L 980.35 235.30 L 980.65 233.80 L 980.05 227.05 L 980.50 224.80 L 981.40 223.60 L 982.75 222.85 L 983.95 222.55 L 985.90 223.00 L 986.95 224.20 L 988.15 227.80 L 988.60 231.85 L 993.25 233.65 L 995.20 235.00 L 996.85 237.70 L 997.15 239.50 L 996.85 241.00 L 994.75 243.10 L 993.25 243.55 L 991.90 243.25 L 988.90 240.25 L 986.05 241.60 L 985.00 243.55 L 985.60 244.90 L 987.10 246.25 L 994.15 250.75 L 996.40 253.00 L 998.20 256.75 L 998.50 259.45 L 998.05 262.45 L 997.00 264.70 L 993.85 268.15 L 991.00 269.95 L 991.90 276.85 L 991.75 279.10 L 991.00 280.60 L 989.80 281.35 L 988.15 281.80 L 986.65 281.50 L 984.85 280.15 L 982.75 271.00 L 977.20 266.65 L 976.15 265.15 L 975.70 263.35 L 976.15 261.70 L 978.25 259.60 L 981.25 259.45 L 985.00 261.85 L 986.20 262.00 L 988.45 261.40 L 989.65 259.45 L 989.05 257.80 L 987.55 256.45 L 980.65 252.40 L 978.55 250.15 L 976.90 246.25 L 976.60 243.40 Z M 959.65 188.95 L 962.35 189.70 L 963.55 190.75 L 964.00 192.55 L 963.70 193.90 L 962.05 196.30 L 948.10 201.40 L 942.85 204.10 L 936.85 207.85 L 929.35 214.15 L 922.45 222.40 L 919.60 227.20 L 917.20 232.90 L 915.40 238.75 L 914.20 245.50 L 913.75 253.15 L 914.95 265.60 L 914.65 267.25 L 913.90 268.45 L 912.55 269.35 L 911.05 269.65 L 908.35 268.60 L 906.70 264.55 L 905.50 253.15 L 905.95 244.60 L 907.15 237.40 L 908.95 231.10 L 911.65 224.95 L 914.65 219.40 L 917.95 214.60 L 925.90 206.05 L 936.55 198.10 L 948.55 192.10 L 953.35 190.30 L 959.65 188.95 Z M 574.75 153.25 L 567.55 148.30 L 563.95 144.85 L 557.50 137.05 L 553.45 130.00 L 553.00 127.60 L 554.05 125.05 L 556.45 124.00 L 559.00 124.75 L 560.35 126.25 L 564.55 133.00 L 567.70 137.05 L 571.00 140.35 L 578.05 146.20 L 579.25 147.85 L 579.70 149.35 L 579.25 151.00 L 578.20 152.20 L 574.75 153.25 Z M 581.65 155.20 L 582.70 152.65 L 585.40 151.75 L 588.10 152.05 L 598.75 155.20 L 603.70 155.95 L 610.45 156.40 L 617.80 155.95 L 624.85 154.60 L 631.45 152.35 L 637.90 149.35 L 643.75 145.75 L 649.15 141.25 L 653.95 136.30 L 658.00 130.75 L 661.45 124.60 L 664.15 118.15 L 666.10 111.25 L 667.15 103.90 L 667.15 96.55 L 666.40 89.50 L 664.60 82.60 L 662.20 76.15 L 658.90 70.00 L 654.85 64.30 L 650.20 59.20 L 645.10 54.70 L 639.25 50.80 L 632.95 47.50 L 626.20 45.25 L 619.00 43.60 L 611.35 42.85 L 610.00 42.40 L 609.25 41.35 L 608.95 39.40 L 609.10 37.60 L 611.05 35.20 L 612.40 34.90 L 616.30 35.05 L 620.80 35.80 L 631.60 38.65 L 637.00 40.90 L 648.25 47.05 L 653.65 51.10 L 658.75 55.90 L 663.25 61.30 L 667.30 67.45 L 670.75 74.35 L 672.55 79.90 L 674.05 85.90 L 674.95 92.50 L 675.40 99.85 L 675.10 105.70 L 672.85 117.10 L 668.50 128.35 L 662.05 138.85 L 653.65 148.15 L 648.85 152.05 L 643.45 155.65 L 637.75 158.65 L 631.60 161.20 L 625.15 163.00 L 618.10 164.05 L 606.25 164.35 L 596.50 163.00 L 592.00 161.80 L 584.65 158.95 L 582.85 157.60 L 581.65 155.20 Z M 596.20 104.05 L 591.40 104.20 L 589.90 103.15 L 588.85 101.80 L 588.40 100.00 L 588.70 98.20 L 592.90 90.25 L 587.35 91.00 L 585.70 90.70 L 584.35 89.95 L 583.45 88.60 L 583.30 87.10 L 583.60 85.30 L 584.95 83.95 L 586.45 83.35 L 594.85 81.85 L 598.45 81.55 L 600.55 81.85 L 602.05 82.75 L 603.10 84.10 L 603.25 87.55 L 600.10 95.35 L 604.60 98.35 L 606.40 100.30 L 607.75 104.05 L 608.05 106.60 L 607.75 109.45 L 605.50 114.40 L 601.60 118.45 L 599.05 119.95 L 593.50 121.75 L 590.50 122.05 L 587.80 121.75 L 585.10 120.55 L 584.20 119.35 L 583.75 117.40 L 584.20 115.75 L 585.10 114.40 L 586.60 113.50 L 593.05 112.90 L 595.45 111.85 L 598.45 109.00 L 599.35 106.45 L 598.90 105.25 L 598.00 104.35 L 596.20 104.05 Z M 616.60 89.20 L 617.05 86.80 L 621.10 80.50 L 621.55 72.55 L 622.60 70.15 L 623.65 69.40 L 625.30 68.95 L 627.25 69.40 L 628.30 70.60 L 629.35 74.35 L 629.65 79.15 L 632.35 80.35 L 634.90 82.00 L 635.65 83.20 L 635.95 84.85 L 635.65 86.35 L 633.70 88.45 L 631.00 88.60 L 627.85 87.55 L 626.35 88.00 L 625.45 89.05 L 626.05 90.70 L 627.55 92.65 L 634.75 98.95 L 637.00 101.80 L 638.80 106.30 L 639.10 109.15 L 638.65 112.90 L 637.45 116.20 L 635.35 119.20 L 631.75 122.05 L 630.70 123.70 L 630.70 132.10 L 630.10 133.15 L 628.45 134.20 L 625.15 134.05 L 623.95 133.15 L 622.75 129.85 L 622.60 123.70 L 616.00 119.95 L 613.75 117.40 L 613.45 115.90 L 613.75 114.25 L 616.00 112.15 L 619.00 112.00 L 624.55 114.70 L 626.05 114.85 L 627.70 114.40 L 628.90 113.50 L 629.65 112.15 L 630.40 109.00 L 629.80 107.05 L 628.15 104.80 L 618.85 95.20 L 617.65 93.25 L 616.60 89.20 Z M 589.90 14.50 L 597.10 13.15 L 611.50 12.10 L 621.10 12.55 L 629.50 13.75 L 636.70 15.55 L 643.90 17.95 L 655.45 23.65 L 662.95 28.75 L 678.25 41.95 L 682.75 45.25 L 714.70 50.50 L 716.05 51.70 L 715.90 53.80 L 715.30 54.55 L 713.35 55.30 L 685.90 51.55 L 686.95 54.25 L 688.30 55.75 L 690.25 56.65 L 708.40 59.05 L 716.65 60.40 L 719.80 61.60 L 720.25 62.35 L 720.10 64.30 L 719.50 65.35 L 717.40 65.95 L 692.35 62.80 L 699.70 86.50 L 722.50 89.95 L 726.10 91.15 L 727.00 92.95 L 726.40 94.75 L 723.85 95.65 L 700.45 92.35 L 699.55 110.50 L 698.95 115.15 L 694.75 133.15 L 714.85 135.55 L 716.80 137.20 L 716.80 139.60 L 714.25 140.65 L 692.05 138.10 L 688.60 145.00 L 709.30 147.40 L 710.65 148.60 L 710.35 151.15 L 709.60 151.90 L 707.50 152.35 L 685.90 150.40 L 684.10 151.45 L 681.10 155.95 L 701.80 157.00 L 703.60 158.20 L 703.90 159.25 L 703.45 160.90 L 702.55 161.65 L 700.30 162.10 L 677.35 161.65 L 674.80 162.70 L 670.75 166.30 L 671.05 166.90 L 674.65 167.35 L 686.95 167.20 L 692.65 167.80 L 694.60 169.15 L 694.60 171.25 L 694.00 172.00 L 690.40 172.90 L 665.80 172.60 L 663.40 173.20 L 649.00 181.00 L 642.10 183.85 L 633.10 186.70 L 626.95 188.05 L 619.60 188.95 L 611.05 189.25 L 602.20 188.80 L 595.45 187.90 L 590.65 186.55 L 587.05 185.05 L 584.95 183.40 L 583.90 182.05 L 583.60 180.55 L 584.80 177.70 L 587.50 176.50 L 597.70 179.95 L 602.50 180.85 L 609.25 181.15 L 618.10 180.85 L 626.20 179.80 L 633.70 178.15 L 640.45 175.90 L 647.20 173.05 L 653.20 169.90 L 658.75 166.15 L 663.85 162.25 L 670.00 156.25 L 675.40 149.80 L 679.90 143.05 L 683.65 136.00 L 686.80 128.80 L 689.05 121.75 L 690.85 114.40 L 691.75 107.50 L 692.05 101.05 L 691.75 92.95 L 690.55 85.15 L 688.60 77.50 L 686.05 70.00 L 682.60 62.95 L 678.55 56.20 L 673.90 49.75 L 668.50 43.75 L 662.35 38.35 L 656.05 33.70 L 649.30 29.65 L 642.10 26.20 L 634.60 23.65 L 626.95 21.70 L 619.15 20.65 L 611.05 20.35 L 591.40 22.15 L 589.75 22.00 L 588.40 21.10 L 587.50 19.75 L 587.20 18.10 L 587.95 15.85 L 589.90 14.50 Z M 599.65 35.65 L 602.35 36.25 L 603.40 37.30 L 604.00 39.10 L 603.70 40.60 L 602.05 42.85 L 588.10 48.10 L 582.85 50.65 L 576.85 54.40 L 569.35 60.70 L 562.45 68.95 L 559.60 73.90 L 557.20 79.45 L 555.40 85.30 L 554.20 92.05 L 553.75 99.85 L 554.80 113.65 L 553.90 115.00 L 552.70 115.90 L 549.70 116.05 L 547.75 114.40 L 546.40 108.70 L 545.35 99.55 L 545.80 90.70 L 547.15 83.05 L 549.25 76.45 L 551.95 70.00 L 555.25 64.30 L 558.85 59.50 L 562.90 54.85 L 571.45 47.80 L 578.20 43.45 L 584.35 40.45 L 594.70 36.70 L 599.65 35.65 Z M 230.80 311.05 L 230.05 313.00 L 229.30 313.90 L 225.70 314.80 L 218.50 309.85 L 214.90 306.40 L 208.45 298.60 L 206.05 295.15 L 204.40 291.85 L 203.95 289.75 L 204.10 288.25 L 204.85 286.90 L 206.20 285.85 L 207.70 285.55 L 209.95 286.30 L 218.50 298.45 L 221.95 302.05 L 229.15 307.90 L 230.35 309.40 L 230.80 310.90 Z M 244.15 280.15 L 251.65 280.45 L 254.65 281.50 L 255.40 282.70 L 255.85 284.50 L 255.40 286.45 L 253.30 288.25 L 250.45 288.85 L 234.25 288.70 L 229.45 288.10 L 227.20 287.50 L 226.15 286.60 L 225.55 284.20 L 225.85 282.55 L 226.60 281.35 L 229.00 280.30 L 235.30 280.00 L 235.30 252.40 L 229.90 256.30 L 228.40 256.60 L 226.75 256.30 L 225.40 255.40 L 224.50 254.05 L 224.05 252.40 L 225.25 249.55 L 238.00 238.45 L 239.95 237.85 L 241.45 238.15 L 243.25 239.65 L 244.30 243.40 L 244.15 280.15 Z M 232.75 317.05 L 233.05 315.55 L 233.95 314.20 L 235.30 313.45 L 236.80 313.30 L 249.85 316.75 L 254.80 317.65 L 266.35 317.80 L 272.65 316.90 L 279.25 315.10 L 286.60 312.25 L 291.40 309.70 L 296.05 306.40 L 300.70 302.50 L 304.90 298.00 L 308.80 292.60 L 312.25 286.00 L 316.15 275.35 L 318.40 261.40 L 317.95 254.20 L 316.60 247.45 L 314.65 241.00 L 311.80 234.85 L 308.35 229.15 L 304.15 223.90 L 299.50 219.10 L 294.25 214.90 L 288.40 211.30 L 282.25 208.45 L 275.65 206.35 L 268.75 205.15 L 262.00 204.40 L 260.95 203.95 L 260.20 202.90 L 259.90 200.80 L 260.20 199.15 L 261.25 197.65 L 262.75 196.75 L 264.40 196.45 L 269.05 196.75 L 279.55 198.85 L 290.35 203.20 L 301.30 210.10 L 306.25 214.30 L 311.05 219.25 L 315.25 224.65 L 319.00 230.80 L 322.15 237.70 L 323.95 243.10 L 326.05 255.25 L 326.50 262.15 L 325.30 273.70 L 323.65 279.70 L 318.85 291.40 L 315.55 296.95 L 311.80 302.35 L 307.45 307.30 L 302.35 311.80 L 296.95 315.85 L 290.95 319.30 L 284.35 322.30 L 277.30 324.40 L 269.80 325.60 L 257.65 326.05 L 243.40 323.65 L 235.90 320.80 L 233.95 319.60 L 232.75 317.05 Z M 260.80 251.35 L 261.10 248.35 L 262.45 244.15 L 264.10 241.90 L 268.75 238.45 L 268.60 230.05 L 269.35 227.50 L 271.15 226.00 L 272.50 225.70 L 275.05 226.75 L 276.40 229.00 L 277.00 237.25 L 282.55 238.30 L 286.00 240.10 L 287.05 241.30 L 287.35 242.95 L 287.20 244.15 L 286.15 245.95 L 283.75 246.70 L 276.85 245.65 L 272.05 246.40 L 269.95 248.50 L 269.50 252.10 L 271.45 254.20 L 279.40 257.50 L 286.00 262.00 L 288.70 265.00 L 290.80 270.10 L 291.25 273.25 L 290.80 276.55 L 288.70 281.50 L 286.15 284.35 L 278.20 289.45 L 278.35 298.00 L 277.00 300.55 L 274.30 301.60 L 272.20 301.00 L 270.55 298.90 L 270.25 289.45 L 267.40 288.10 L 262.90 284.50 L 260.50 280.60 L 260.20 279.10 L 260.50 277.60 L 262.75 275.35 L 264.25 275.05 L 266.20 275.50 L 271.75 280.60 L 273.85 281.05 L 276.40 280.30 L 278.35 279.40 L 281.35 276.40 L 282.40 272.65 L 282.10 271.00 L 280.15 268.30 L 277.90 266.80 L 268.45 262.30 L 265.45 260.50 L 263.05 258.10 L 261.85 256.30 L 260.80 251.35 Z M 306.85 170.35 L 306.85 170.35 L 306.85 170.35 Z M 242.20 175.75 L 252.25 174.25 L 262.30 173.80 L 271.90 174.25 L 280.30 175.45 L 287.65 177.25 L 294.85 179.65 L 306.55 185.35 L 314.20 190.45 L 333.70 206.95 L 362.65 211.30 L 365.35 212.05 L 366.40 212.65 L 367.15 214.75 L 366.70 215.95 L 364.30 216.85 L 337.00 213.25 L 337.75 215.50 L 339.25 217.15 L 341.20 218.35 L 359.50 220.60 L 367.75 222.10 L 370.90 223.45 L 371.35 224.05 L 371.20 226.00 L 370.60 226.75 L 368.05 227.50 L 343.00 224.20 L 347.80 237.40 L 349.75 246.10 L 351.10 248.05 L 374.50 251.80 L 377.50 253.00 L 378.10 254.50 L 377.50 256.30 L 374.95 257.20 L 350.95 253.75 L 351.25 261.85 L 350.80 270.25 L 349.75 278.50 L 347.80 286.75 L 345.10 294.70 L 357.70 296.05 L 366.55 297.40 L 368.05 298.75 L 367.90 300.70 L 367.30 301.75 L 365.20 302.35 L 343.00 299.95 L 339.55 306.55 L 360.25 309.10 L 361.75 310.30 L 361.60 312.40 L 361.00 313.30 L 358.75 313.90 L 337.00 312.10 L 334.90 313.45 L 332.20 317.50 L 352.45 318.70 L 354.55 320.05 L 354.85 321.10 L 354.40 322.45 L 353.35 323.35 L 351.10 323.80 L 328.15 323.35 L 326.05 324.40 L 321.55 328.75 L 343.30 329.20 L 344.20 329.50 L 345.25 330.70 L 345.85 332.20 L 345.25 333.55 L 344.20 334.15 L 341.05 334.45 L 317.05 334.30 L 314.65 334.90 L 300.10 342.55 L 293.20 345.55 L 284.35 348.25 L 278.05 349.60 L 270.85 350.50 L 262.45 350.95 L 254.95 350.65 L 248.65 349.90 L 242.65 348.55 L 238.60 346.90 L 236.35 345.40 L 235.15 343.75 L 234.70 342.25 L 235.00 340.60 L 237.10 338.50 L 239.80 338.35 L 246.40 341.05 L 255.40 342.25 L 270.25 342.10 L 277.15 341.35 L 289.45 338.35 L 297.10 335.35 L 304.00 331.75 L 310.15 327.70 L 315.85 322.90 L 320.95 317.95 L 325.45 312.55 L 332.95 301.00 L 335.80 295.15 L 340.15 283.45 L 343.15 269.95 L 343.45 263.05 L 343.15 256.30 L 342.10 249.10 L 340.30 241.60 L 337.90 234.25 L 334.75 226.90 L 330.85 219.70 L 326.20 212.95 L 320.95 206.65 L 314.80 200.65 L 304.45 193.00 L 298.60 189.85 L 292.30 187.00 L 285.85 184.90 L 278.80 183.25 L 271.30 182.20 L 263.05 181.90 L 256.30 182.20 L 246.25 183.55 L 241.00 183.70 L 239.50 182.80 L 238.60 181.45 L 238.30 179.80 L 239.50 177.10 L 242.20 175.75 Z M 196.45 261.40 L 197.05 252.70 L 198.25 245.65 L 200.05 239.20 L 202.60 233.05 L 205.60 227.65 L 212.95 218.20 L 221.20 210.85 L 227.65 206.20 L 239.80 200.20 L 244.60 198.55 L 251.05 197.20 L 252.55 197.50 L 253.90 198.55 L 254.95 201.25 L 254.35 203.35 L 252.55 205.00 L 239.95 209.20 L 234.55 211.75 L 228.55 215.50 L 220.90 221.80 L 213.85 230.05 L 210.85 235.00 L 208.30 240.70 L 206.50 246.70 L 205.30 253.45 L 204.85 261.40 L 206.05 274.15 L 205.00 276.70 L 202.00 277.90 L 199.60 276.85 L 198.70 275.35 L 197.20 269.05 L 196.45 261.40 Z" fill="#9fe6f3" fill-rule="nonzero" node-id="42" stroke="none" target-height="826.19995" target-width="953.3999" target-x="148.90004" target-y="6.4000134"/><path d="M 538.70 757.50 L 539.50 757.30 L 540.20 756.60 L 540.90 754.70 L 541.10 753.10 L 540.40 750.30 L 538.70 748.00 L 536.90 750.40 L 536.20 753.30 L 536.50 754.90 L 537.00 756.20 L 537.90 757.20 L 538.70 757.50 Z" fill="#9fe6f3" fill-rule="nonzero" node-id="44" stroke="none" target-height="9.5" target-width="4.8999634" target-x="536.2" target-y="748"/><path d="M 486.48 996.51 L 487.83 994.26 L 490.23 992.01 L 520.53 967.71 L 534.78 953.61 L 541.08 945.81 L 548.13 934.86 L 550.83 929.16 L 552.93 923.16 L 554.13 917.16 L 554.58 911.01 L 553.83 904.11 L 551.43 897.36 L 549.33 893.91 L 545.28 890.16 L 539.73 887.46 L 531.93 886.41 L 526.68 887.01 L 521.58 888.36 L 516.63 890.46 L 507.78 895.41 L 500.13 900.96 L 502.83 903.81 L 504.63 906.96 L 505.83 910.56 L 506.13 914.31 L 505.83 917.61 L 504.78 921.06 L 503.13 924.06 L 500.73 926.61 L 496.83 928.71 L 494.28 929.01 L 491.58 928.56 L 489.33 927.66 L 487.38 926.16 L 485.13 923.31 L 483.48 920.16 L 482.28 914.01 L 482.73 910.26 L 483.93 907.11 L 487.38 901.71 L 480.93 898.86 L 468.93 895.11 L 461.88 893.76 L 454.23 893.16 L 448.23 893.61 L 443.43 894.51 L 439.83 895.86 L 436.38 897.81 L 431.88 902.16 L 429.63 906.06 L 428.43 909.96 L 427.68 916.71 L 428.28 923.46 L 429.78 930.51 L 432.33 938.16 L 435.78 945.51 L 439.83 953.01 L 450.33 968.16 L 456.18 975.36 L 469.23 988.86 L 483.03 1000.56 L 486.78 998.01 L 486.48 996.51 Z" fill="#9fe6f3" fill-rule="nonzero" node-id="46" stroke="none" target-height="114.150024" target-width="126.89996" target-x="427.68048" target-y="886.4067"/><g node-id="105"><path d="M 1116.03 624.25 L 1106.73 624.10 L 1104.63 623.65 L 1102.83 622.00 L 1102.53 620.50 L 1102.98 618.70 L 1104.03 617.50 L 1105.68 616.90 L 1109.13 616.60 L 1114.83 616.90 L 1115.58 589.90 L 1014.63 587.80 L 1014.63 616.30 L 1018.08 616.15 L 1021.23 616.75 L 1022.88 618.40 L 1023.18 620.05 L 1022.73 621.85 L 1021.53 622.90 L 1020.03 623.65 L 1013.73 624.25 L 1010.88 639.25 L 1004.28 665.65 L 998.43 684.40 L 992.43 701.35 L 973.98 748.30 L 968.73 763.00 L 962.88 782.95 L 958.98 803.35 L 957.93 814.00 L 957.63 825.25 L 958.08 827.35 L 975.93 860.20 L 984.63 878.80 L 988.53 888.70 L 991.53 898.45 L 992.88 905.20 L 994.23 917.80 L 993.63 924.55 L 992.43 930.70 L 990.93 934.60 L 987.18 940.30 L 984.78 942.55 L 982.08 943.75 L 979.23 944.20 L 974.13 943.00 L 971.88 941.50 L 967.23 936.10 L 962.58 926.80 L 959.88 918.40 L 957.48 908.65 L 953.88 887.65 L 947.73 832.30 L 946.68 826.90 L 945.78 824.65 L 939.48 816.10 L 933.48 808.60 L 921.33 796.30 L 908.73 786.55 L 898.68 780.40 L 888.03 774.85 L 876.93 770.05 L 837.03 755.05 L 822.48 769.75 L 806.73 782.35 L 795.63 789.85 L 784.23 796.60 L 772.53 802.45 L 760.68 807.70 L 748.68 812.20 L 736.83 815.95 L 712.83 821.65 L 689.88 824.80 L 668.73 825.85 L 643.08 824.50 L 620.88 821.20 L 606.63 817.90 L 593.88 814.00 L 582.63 809.80 L 571.53 804.70 L 561.78 799.75 L 545.13 789.25 L 532.53 779.50 L 524.73 772.60 L 514.53 762.25 L 495.93 771.40 L 444.63 795.25 L 405.78 814.15 L 385.83 825.40 L 379.38 829.90 L 375.63 833.20 L 373.83 835.60 L 373.38 837.25 L 378.03 862.90 L 379.83 880.00 L 380.13 888.10 L 379.68 896.80 L 378.78 903.70 L 377.28 908.95 L 375.03 914.05 L 372.63 917.80 L 370.08 920.65 L 364.38 924.85 L 357.33 926.95 L 354.03 927.10 L 350.88 926.80 L 347.73 925.75 L 344.73 923.80 L 342.03 921.40 L 339.63 918.25 L 337.53 914.20 L 336.03 909.70 L 335.13 904.45 L 334.68 897.85 L 334.98 891.70 L 336.03 885.40 L 337.68 879.10 L 340.98 869.95 L 344.88 861.40 L 353.43 846.70 L 363.63 832.45 L 360.93 823.00 L 345.93 777.85 L 337.38 745.60 L 333.78 728.20 L 330.78 709.45 L 328.53 684.10 L 328.23 668.95 L 320.13 667.60 L 318.48 667.00 L 317.43 665.95 L 317.13 664.30 L 317.43 662.65 L 319.53 661.00 L 321.93 660.40 L 328.38 660.85 L 333.78 615.25 L 249.03 604.30 L 247.08 630.70 L 242.58 656.95 L 247.83 656.65 L 250.38 657.40 L 252.03 659.05 L 252.18 660.55 L 251.88 662.50 L 250.68 663.55 L 249.03 664.15 L 240.03 664.90 L 230.88 688.00 L 221.58 713.50 L 205.68 762.55 L 195.48 799.90 L 191.13 818.80 L 187.38 837.85 L 184.53 856.45 L 183.18 868.75 L 182.13 891.40 L 183.18 916.60 L 186.18 938.65 L 189.18 952.90 L 192.63 965.95 L 196.68 977.65 L 201.18 989.20 L 205.98 999.55 L 210.93 1008.85 L 221.58 1025.80 L 234.33 1042.30 L 255.48 1064.35 L 255.03 1065.85 L 252.78 1068.10 L 251.13 1068.40 L 249.78 1067.80 L 240.63 1061.05 L 233.88 1054.60 L 226.98 1047.10 L 218.88 1037.05 L 208.38 1021.60 L 202.83 1012.15 L 197.88 1002.40 L 193.08 991.60 L 188.43 979.60 L 184.53 967.30 L 180.93 953.95 L 177.93 939.25 L 175.08 916.45 L 173.88 890.80 L 175.08 862.60 L 176.58 848.35 L 178.83 832.90 L 181.98 817.00 L 186.33 799.15 L 191.58 780.70 L 198.18 759.40 L 223.38 688.15 L 229.08 670.15 L 233.73 653.50 L 238.98 629.50 L 240.03 621.40 L 241.53 602.50 L 242.13 600.40 L 243.48 599.05 L 248.73 596.95 L 236.43 572.95 L 231.78 562.75 L 227.73 552.10 L 224.28 540.85 L 222.48 533.20 L 221.43 525.55 L 221.13 517.90 L 221.43 511.30 L 222.33 506.05 L 225.03 497.50 L 228.93 490.30 L 231.48 478.15 L 233.58 472.30 L 239.43 460.90 L 240.78 458.95 L 243.93 456.25 L 247.98 455.35 L 251.88 455.65 L 259.23 458.05 L 267.33 463.45 L 271.83 467.50 L 282.63 480.25 L 301.23 507.40 L 313.83 524.05 L 322.83 533.05 L 331.08 538.45 L 334.68 539.80 L 342.48 541.00 L 346.38 540.70 L 353.73 538.45 L 358.98 535.75 L 363.78 532.30 L 377.28 521.50 L 381.33 518.80 L 386.88 516.55 L 389.58 516.25 L 392.43 516.70 L 394.53 517.45 L 396.33 518.80 L 398.28 521.35 L 399.48 524.20 L 400.38 529.60 L 399.78 532.75 L 398.28 536.20 L 395.43 540.40 L 390.03 546.40 L 357.18 577.75 L 348.63 587.05 L 343.23 593.65 L 334.23 607.45 L 339.78 609.85 L 340.83 610.75 L 341.88 613.90 L 337.08 658.30 L 336.48 668.80 L 336.48 688.60 L 338.73 709.15 L 341.43 725.05 L 348.78 757.15 L 357.18 786.55 L 370.83 826.90 L 386.58 815.95 L 409.68 802.90 L 425.13 795.10 L 506.58 757.30 L 530.13 744.55 L 545.43 734.50 L 552.18 728.95 L 557.43 723.70 L 561.48 718.75 L 559.08 718.45 L 436.08 720.25 L 433.83 720.10 L 430.98 719.05 L 429.48 716.35 L 429.03 714.10 L 425.28 683.20 L 421.23 634.30 L 420.03 596.05 L 420.48 567.40 L 421.83 541.75 L 424.08 516.70 L 426.33 497.95 L 429.18 479.65 L 436.38 444.85 L 440.88 427.60 L 445.83 411.25 L 451.38 395.50 L 457.23 380.35 L 463.98 365.50 L 471.18 351.55 L 478.98 338.35 L 487.08 325.90 L 494.28 316.30 L 501.78 307.45 L 509.58 299.05 L 517.68 291.25 L 526.23 284.05 L 535.08 277.30 L 544.38 271.30 L 554.13 265.90 L 564.18 261.10 L 574.68 257.05 L 585.33 253.60 L 596.58 251.05 L 608.13 249.10 L 620.43 247.90 L 633.18 247.45 L 645.63 247.90 L 658.23 249.10 L 670.83 251.20 L 683.58 253.90 L 696.03 257.50 L 708.33 261.85 L 720.48 266.80 L 732.48 272.65 L 744.03 278.95 L 755.28 286.00 L 766.08 293.65 L 776.43 301.90 L 786.33 310.75 L 795.63 320.20 L 804.18 330.10 L 812.13 340.45 L 819.33 351.55 L 825.78 362.80 L 831.33 374.65 L 835.98 387.10 L 839.13 397.15 L 841.53 407.35 L 843.33 418.00 L 844.38 428.80 L 844.83 440.05 L 844.38 450.70 L 843.48 458.80 L 839.88 478.45 L 850.23 520.30 L 852.78 536.80 L 853.08 544.15 L 852.78 548.95 L 851.88 553.15 L 850.38 556.75 L 846.18 563.20 L 843.63 565.90 L 839.28 569.20 L 834.63 571.60 L 828.18 697.45 L 827.13 711.85 L 826.08 718.00 L 825.33 719.20 L 824.43 719.35 L 781.83 718.90 L 783.33 722.20 L 785.43 725.20 L 787.98 728.05 L 791.43 730.60 L 796.23 733.45 L 802.08 736.15 L 820.23 742.30 L 846.63 749.95 L 871.08 758.50 L 891.63 767.95 L 901.68 773.50 L 911.73 780.10 L 921.93 787.60 L 929.13 793.75 L 936.18 800.65 L 943.23 808.30 L 950.28 816.70 L 956.73 783.25 L 960.33 769.00 L 966.48 748.15 L 972.48 730.00 L 990.78 681.10 L 996.03 665.95 L 1001.73 645.40 L 1005.48 623.65 L 1006.53 611.95 L 1006.98 599.35 L 1006.53 580.30 L 1012.53 579.55 L 1022.28 579.70 L 1022.28 579.10 L 1016.73 569.05 L 1006.23 552.70 L 998.28 541.75 L 973.38 511.60 L 969.93 506.20 L 968.13 502.60 L 967.08 499.15 L 966.63 495.85 L 967.83 490.60 L 969.33 487.90 L 971.43 485.65 L 975.18 483.70 L 977.43 483.40 L 980.43 483.85 L 983.28 484.90 L 990.33 490.00 L 1003.23 503.35 L 1008.03 507.55 L 1013.43 510.85 L 1017.18 512.65 L 1021.38 513.70 L 1026.03 514.15 L 1030.83 513.55 L 1035.48 512.20 L 1040.28 509.95 L 1049.43 503.65 L 1054.08 499.45 L 1060.98 492.55 L 1088.73 461.50 L 1095.63 454.75 L 1105.23 446.95 L 1109.88 444.10 L 1114.83 441.85 L 1119.63 440.50 L 1124.58 440.05 L 1128.03 440.50 L 1130.43 441.55 L 1133.28 444.25 L 1137.03 453.25 L 1140.03 463.00 L 1140.63 466.15 L 1141.23 476.50 L 1145.58 488.80 L 1146.33 497.80 L 1146.03 504.25 L 1144.98 510.85 L 1143.48 517.45 L 1140.18 527.20 L 1135.98 536.80 L 1131.33 546.10 L 1121.13 562.75 L 1108.23 581.35 L 1120.68 582.10 L 1122.93 583.30 L 1123.83 584.65 L 1124.13 586.60 L 1123.08 596.05 L 1122.78 602.80 L 1123.23 618.10 L 1124.43 632.80 L 1126.23 646.90 L 1129.83 667.75 L 1134.18 687.85 L 1147.98 747.70 L 1151.73 768.10 L 1153.38 781.75 L 1154.58 795.85 L 1155.03 810.55 L 1154.73 830.05 L 1152.63 865.15 L 1150.98 881.05 L 1147.83 902.35 L 1144.38 921.40 L 1140.33 938.65 L 1135.68 955.60 L 1130.73 970.75 L 1125.93 983.95 L 1115.13 1008.40 L 1110.03 1018.00 L 1102.08 1031.35 L 1095.33 1041.25 L 1084.38 1054.60 L 1079.73 1058.95 L 1078.23 1058.65 L 1077.03 1057.75 L 1075.83 1055.05 L 1077.33 1051.45 L 1096.38 1024.75 L 1108.68 1003.60 L 1119.18 981.10 L 1123.83 968.95 L 1128.48 954.85 L 1133.13 938.95 L 1136.88 922.75 L 1140.33 904.60 L 1143.33 884.20 L 1144.83 869.05 L 1146.93 834.85 L 1147.23 815.65 L 1146.93 803.20 L 1145.43 781.60 L 1143.33 766.15 L 1140.78 751.90 L 1123.98 680.05 L 1120.83 662.95 L 1118.28 644.95 L 1116.03 624.25 Z M 667.83 817.60 L 689.28 816.55 L 701.73 815.05 L 714.93 812.80 L 730.23 809.35 L 740.43 806.35 L 762.63 798.10 L 773.58 793.00 L 784.83 786.85 L 796.23 779.80 L 812.43 767.50 L 828.33 752.50 L 797.58 742.15 L 790.08 738.85 L 785.58 736.30 L 781.68 733.15 L 778.23 729.70 L 775.38 725.65 L 772.68 720.55 L 770.43 714.25 L 768.78 707.80 L 766.08 689.50 L 765.18 673.30 L 764.73 651.70 L 765.18 634.60 L 767.58 607.30 L 772.98 573.70 L 773.73 571.45 L 775.08 569.65 L 777.03 568.30 L 779.28 567.70 L 788.73 566.65 L 798.03 566.20 L 818.58 566.05 L 827.43 565.00 L 831.03 564.10 L 836.88 560.80 L 840.48 557.65 L 843.03 554.20 L 844.53 550.60 L 845.13 547.60 L 843.63 533.05 L 841.98 522.85 L 839.13 509.95 L 835.38 496.60 L 826.83 471.40 L 817.68 450.40 L 812.28 439.90 L 806.13 429.70 L 799.53 419.65 L 792.18 410.05 L 784.23 400.90 L 775.53 392.35 L 768.63 386.50 L 761.28 380.95 L 753.48 376.00 L 745.23 371.50 L 742.38 380.05 L 739.08 387.40 L 735.33 393.40 L 731.13 398.95 L 726.63 403.75 L 721.83 407.65 L 716.73 410.95 L 706.08 416.20 L 689.43 421.15 L 665.73 426.70 L 659.13 429.10 L 654.48 431.50 L 650.28 434.50 L 646.38 438.10 L 640.98 444.40 L 635.88 451.60 L 617.73 483.70 L 612.63 491.20 L 607.38 497.95 L 603.48 501.85 L 599.13 505.15 L 594.63 508.00 L 589.83 509.95 L 584.43 511.30 L 578.28 511.75 L 576.03 511.45 L 574.53 510.40 L 573.63 508.90 L 573.33 506.50 L 574.38 493.15 L 574.53 480.25 L 574.08 467.50 L 572.88 455.20 L 571.38 447.10 L 567.48 433.15 L 564.63 426.85 L 561.63 421.60 L 558.18 417.55 L 555.18 415.00 L 552.03 413.05 L 548.58 412.00 L 544.98 411.55 L 541.53 411.85 L 538.38 412.90 L 535.68 414.25 L 533.13 416.35 L 530.13 419.65 L 527.43 423.55 L 525.18 428.20 L 522.33 435.85 L 520.23 443.95 L 518.73 452.35 L 516.78 473.05 L 517.23 508.60 L 519.03 526.90 L 520.53 533.20 L 522.18 537.10 L 524.28 540.10 L 526.53 542.05 L 532.38 544.75 L 532.98 536.80 L 534.18 532.15 L 535.38 531.10 L 537.18 530.65 L 538.83 530.95 L 540.63 532.60 L 541.38 535.15 L 540.78 547.30 L 549.18 548.50 L 557.58 548.95 L 570.63 548.05 L 572.58 548.35 L 573.93 549.25 L 574.68 550.60 L 574.98 553.00 L 574.68 661.30 L 573.18 692.50 L 572.28 701.05 L 569.88 713.95 L 566.13 724.30 L 563.88 728.35 L 558.03 735.40 L 548.58 742.90 L 522.63 757.90 L 526.98 763.60 L 531.93 768.40 L 539.43 775.00 L 548.28 781.60 L 559.83 789.10 L 567.93 793.75 L 587.88 802.90 L 598.68 806.95 L 610.68 810.40 L 623.73 813.40 L 644.13 816.55 L 667.38 817.60 Z M 1098.33 581.35 L 1112.28 561.25 L 1124.73 541.15 L 1131.33 527.20 L 1135.98 512.65 L 1137.48 504.85 L 1138.38 496.60 L 1137.18 498.40 L 1133.73 507.70 L 1129.68 516.25 L 1125.03 524.35 L 1115.58 536.95 L 1111.68 541.00 L 1107.18 544.45 L 1105.98 544.75 L 1103.43 543.55 L 1102.23 541.00 L 1102.83 539.50 L 1117.53 520.30 L 1122.33 512.65 L 1127.73 501.40 L 1131.63 488.35 L 1132.68 481.30 L 1133.13 473.80 L 1132.53 465.55 L 1115.43 494.20 L 1101.63 514.15 L 1097.73 518.65 L 1093.08 522.40 L 1091.58 522.85 L 1090.08 522.55 L 1088.13 520.45 L 1087.83 518.95 L 1090.68 514.15 L 1112.28 484.75 L 1120.98 470.35 L 1124.28 463.60 L 1126.83 455.20 L 1126.98 450.10 L 1125.93 448.45 L 1124.73 448.15 L 1120.53 448.75 L 1116.18 450.10 L 1111.68 452.35 L 1103.13 458.65 L 1092.18 469.75 L 1071.78 493.15 L 1057.38 507.55 L 1047.33 515.35 L 1042.23 518.20 L 1036.83 520.45 L 1031.43 521.80 L 1025.88 522.25 L 1020.63 521.80 L 1015.83 520.75 L 1011.48 519.10 L 1007.28 516.85 L 999.93 511.30 L 981.78 492.55 L 978.33 491.20 L 976.53 491.65 L 975.48 492.85 L 974.88 494.35 L 975.33 497.65 L 976.98 501.25 L 982.98 509.95 L 991.08 520.60 L 1000.23 531.55 L 1012.98 545.80 L 1019.43 556.15 L 1026.78 570.70 L 1029.48 574.60 L 1032.18 577.60 L 1034.13 578.95 L 1036.38 579.85 L 1038.93 580.15 L 1098.33 581.35 Z M 229.68 510.70 L 229.38 515.65 L 230.58 530.65 L 231.93 537.70 L 234.93 547.90 L 238.68 557.80 L 243.03 567.40 L 257.88 596.35 L 260.73 597.70 L 320.58 604.90 L 322.98 604.45 L 325.38 603.25 L 327.93 601.15 L 331.23 597.10 L 342.93 580.15 L 347.73 574.45 L 371.28 553.45 L 381.33 543.40 L 385.83 538.45 L 391.08 531.55 L 391.98 529.60 L 392.13 527.05 L 390.48 524.50 L 388.98 523.90 L 385.53 525.10 L 366.63 540.40 L 361.38 543.85 L 355.38 546.70 L 351.33 548.20 L 341.88 549.40 L 333.48 548.20 L 329.28 546.70 L 320.28 541.30 L 315.33 537.25 L 310.38 532.45 L 303.63 524.50 L 296.88 515.65 L 272.28 480.70 L 264.18 471.70 L 260.58 468.40 L 256.38 465.70 L 252.48 464.20 L 248.73 463.60 L 247.08 464.35 L 246.48 465.55 L 246.48 472.45 L 248.43 481.15 L 250.98 488.05 L 254.28 495.55 L 261.78 510.25 L 276.93 536.80 L 277.38 537.85 L 276.93 539.35 L 274.83 541.45 L 272.43 541.60 L 269.58 539.35 L 264.78 532.60 L 257.28 519.10 L 252.18 508.60 L 239.58 480.85 L 238.38 483.85 L 237.18 495.40 L 237.63 503.05 L 239.58 515.95 L 242.28 524.80 L 245.28 532.30 L 248.88 539.05 L 259.68 556.30 L 260.28 558.10 L 259.83 559.45 L 257.88 561.40 L 256.53 561.70 L 255.18 561.40 L 252.63 559.75 L 250.08 557.20 L 246.48 552.25 L 242.88 546.10 L 238.53 536.65 L 234.48 525.85 L 229.68 510.70 Z M 366.48 844.00 L 365.73 843.70 L 360.33 850.45 L 355.83 857.50 L 351.93 865.00 L 348.93 872.35 L 344.43 886.15 L 342.18 896.65 L 341.43 902.05 L 341.73 905.65 L 343.53 911.35 L 346.68 915.40 L 350.73 917.80 L 355.68 918.70 L 358.23 918.40 L 360.78 917.50 L 363.33 915.85 L 365.58 913.75 L 367.68 910.75 L 369.48 906.55 L 370.83 902.20 L 371.58 896.50 L 371.88 884.05 L 370.08 866.20 L 366.48 844.00 Z M 957.93 844.75 L 957.78 853.90 L 958.53 863.20 L 961.08 882.85 L 962.88 892.90 L 967.08 911.65 L 969.33 919.45 L 971.88 926.50 L 974.28 931.45 L 976.23 934.30 L 977.73 935.65 L 979.23 936.10 L 980.43 935.50 L 982.08 933.70 L 983.43 931.00 L 984.78 927.25 L 985.98 917.95 L 984.78 907.15 L 980.58 891.55 L 973.08 872.95 L 961.98 851.35 L 957.93 844.75 Z" fill="#000000" fill-rule="nonzero" group-id="1" node-id="49" stroke="none" target-height="820.95" target-width="981.15" target-x="173.88046" target-y="247.45001"/><path d="M 500.13 901.15 L 502.83 904.00 L 504.63 907.15 L 505.83 910.75 L 506.13 914.50 L 505.83 917.80 L 504.78 921.25 L 503.13 924.25 L 500.73 926.80 L 496.83 928.90 L 494.28 929.20 L 491.58 928.75 L 489.33 927.85 L 487.38 926.35 L 485.13 923.50 L 483.48 920.35 L 482.58 916.90 L 482.28 914.20 L 482.73 910.45 L 483.93 907.30 L 487.38 901.90 L 475.68 897.10 L 468.93 895.30 L 461.88 893.95 L 454.23 893.35 L 448.23 893.80 L 443.43 894.70 L 439.83 896.05 L 436.38 898.00 L 431.88 902.35 L 429.63 906.25 L 428.43 910.15 L 427.68 916.90 L 428.13 922.90 L 429.48 929.80 L 432.18 938.05 L 434.73 943.90 L 442.23 957.10 L 447.33 964.45 L 456.33 975.55 L 464.88 984.85 L 472.83 992.35 L 481.38 999.40 L 489.18 1005.25 L 496.23 1009.75 L 507.03 1015.60 L 531.63 1026.55 L 532.98 1027.90 L 533.43 1029.10 L 533.13 1030.75 L 532.23 1032.10 L 530.88 1032.85 L 529.38 1033.15 L 522.03 1031.80 L 516.48 1029.85 L 508.23 1025.95 L 498.18 1020.25 L 487.98 1013.80 L 477.18 1005.85 L 466.53 997.00 L 456.03 987.10 L 449.43 980.20 L 437.58 965.50 L 432.33 957.70 L 427.98 949.75 L 424.53 941.80 L 420.78 929.50 L 419.88 923.20 L 419.58 916.30 L 419.88 911.20 L 422.13 903.25 L 424.23 899.05 L 427.53 894.70 L 430.23 892.30 L 433.68 889.90 L 437.88 887.95 L 442.23 886.45 L 447.78 885.55 L 454.38 885.10 L 461.58 885.55 L 474.63 888.40 L 493.68 895.15 L 495.03 894.70 L 506.58 886.75 L 511.83 883.75 L 518.13 881.05 L 527.13 878.80 L 532.38 878.50 L 539.73 879.40 L 543.93 880.75 L 548.28 882.70 L 552.63 885.85 L 555.33 888.40 L 557.58 891.55 L 559.83 895.60 L 561.33 899.95 L 562.38 905.20 L 562.68 911.65 L 562.23 918.10 L 560.88 924.55 L 558.78 930.85 L 552.63 943.15 L 548.58 949.15 L 541.98 957.70 L 534.63 965.65 L 526.83 973.30 L 511.83 986.05 L 505.23 991.00 L 490.38 1000.60 L 488.88 1000.30 L 486.78 998.20 L 486.48 996.70 L 487.83 994.45 L 520.53 967.90 L 534.78 953.80 L 541.08 946.00 L 544.83 940.60 L 550.83 929.35 L 552.93 923.35 L 554.13 917.35 L 554.58 911.20 L 554.28 907.15 L 552.93 900.85 L 551.43 897.55 L 547.53 892.15 L 542.58 888.85 L 539.73 887.65 L 531.93 886.60 L 526.68 887.20 L 521.58 888.55 L 511.98 893.05 L 500.13 901.15 Z M 497.88 914.20 L 496.83 910.00 L 494.28 906.55 L 492.78 908.20 L 490.83 912.25 L 490.53 914.50 L 490.98 916.90 L 491.73 918.85 L 493.08 920.35 L 494.28 920.80 L 495.48 920.50 L 496.53 919.45 L 497.58 916.60 L 497.88 914.20 Z" fill="#000000" fill-rule="nonzero" group-id="1" node-id="51" stroke="none" target-height="154.65002" target-width="143.1" target-x="419.58047" target-y="878.5"/><path d="M 684.93 45.85 L 685.98 48.55 L 687.33 50.05 L 689.28 50.95 L 715.68 54.70 L 717.93 55.45 L 719.28 56.65 L 719.13 58.60 L 718.53 59.65 L 716.43 60.25 L 691.38 57.10 L 698.73 80.80 L 721.53 84.25 L 724.08 84.85 L 725.88 86.20 L 725.88 88.15 L 725.43 89.05 L 722.88 89.95 L 699.48 86.65 L 698.58 104.80 L 697.98 109.45 L 693.78 127.45 L 713.88 129.85 L 715.08 130.60 L 716.13 132.85 L 714.93 134.50 L 713.28 134.95 L 691.08 132.40 L 687.63 139.30 L 708.33 141.70 L 709.68 142.90 L 709.38 145.45 L 708.63 146.20 L 706.53 146.65 L 684.93 144.70 L 683.13 145.75 L 680.13 150.25 L 700.83 151.30 L 702.63 152.50 L 702.93 153.55 L 702.48 155.20 L 701.58 155.95 L 699.33 156.40 L 676.38 155.95 L 673.83 157.00 L 669.78 160.60 L 670.08 161.20 L 673.68 161.65 L 685.98 161.50 L 691.68 162.10 L 692.88 162.70 L 693.93 164.50 L 693.03 166.30 L 691.68 166.90 L 664.83 166.90 L 662.43 167.50 L 648.03 175.30 L 641.13 178.15 L 632.13 181.00 L 625.98 182.35 L 618.63 183.25 L 610.08 183.55 L 601.23 183.10 L 594.48 182.20 L 589.68 180.85 L 586.08 179.35 L 583.98 177.70 L 582.93 176.35 L 582.63 174.85 L 582.93 173.35 L 585.03 171.10 L 586.53 170.80 L 587.88 171.10 L 596.73 174.25 L 601.53 175.15 L 608.28 175.45 L 617.13 175.15 L 625.23 174.10 L 632.73 172.45 L 639.48 170.20 L 646.23 167.35 L 652.23 164.20 L 657.78 160.45 L 662.88 156.55 L 669.03 150.55 L 674.43 144.10 L 678.93 137.35 L 682.68 130.30 L 685.83 123.10 L 688.08 116.05 L 689.88 108.70 L 690.78 101.80 L 691.08 95.35 L 690.78 87.25 L 689.58 79.45 L 687.63 71.80 L 685.08 64.30 L 681.63 57.25 L 677.58 50.50 L 672.93 44.05 L 667.53 38.05 L 661.38 32.65 L 655.08 28.00 L 648.33 23.95 L 641.13 20.50 L 633.63 17.95 L 625.98 16.00 L 618.18 14.95 L 610.08 14.65 L 590.43 16.45 L 588.78 16.30 L 587.43 15.40 L 586.53 14.05 L 586.23 12.40 L 586.98 10.15 L 588.93 8.80 L 596.13 7.45 L 610.53 6.40 L 620.13 6.85 L 628.53 8.05 L 635.73 9.85 L 642.93 12.25 L 654.48 17.95 L 661.98 23.05 L 677.28 36.25 L 681.78 39.55 L 711.18 44.05 L 714.63 45.25 L 715.08 46.00 L 714.93 48.10 L 713.43 49.45 L 712.38 49.60 L 684.93 45.85 Z" fill="#000000" fill-rule="nonzero" group-id="1" node-id="53" stroke="none" target-height="177.15" target-width="143.25" target-x="582.6305" target-y="6.4000487"/><path d="M 336.03 207.55 L 336.78 209.80 L 338.28 211.45 L 340.23 212.65 L 366.78 216.40 L 369.03 217.15 L 370.38 218.35 L 369.63 221.05 L 367.08 221.80 L 342.03 218.50 L 346.83 231.70 L 348.78 240.40 L 350.13 242.35 L 373.53 246.10 L 375.63 246.85 L 376.98 248.05 L 376.98 249.85 L 376.53 250.60 L 373.98 251.50 L 349.98 248.05 L 350.28 256.15 L 349.83 264.55 L 348.78 272.80 L 346.83 281.05 L 344.13 289.00 L 356.73 290.35 L 365.58 291.70 L 367.08 293.05 L 366.93 295.00 L 366.33 296.05 L 364.23 296.65 L 342.03 294.25 L 338.58 300.85 L 359.28 303.40 L 360.78 304.60 L 360.63 306.70 L 358.98 308.20 L 357.78 308.20 L 336.03 306.40 L 333.93 307.75 L 331.23 311.80 L 351.78 313.00 L 353.73 314.35 L 353.88 315.40 L 353.43 316.75 L 352.38 317.65 L 350.13 318.10 L 327.18 317.65 L 325.08 318.70 L 320.58 323.05 L 342.33 323.50 L 343.23 323.80 L 344.28 325.00 L 344.88 326.50 L 344.28 327.85 L 343.23 328.45 L 316.08 328.60 L 313.68 329.20 L 299.13 336.85 L 292.23 339.85 L 283.38 342.55 L 277.08 343.90 L 269.88 344.80 L 261.48 345.25 L 247.68 344.20 L 241.68 342.85 L 237.63 341.20 L 235.38 339.70 L 234.18 338.05 L 233.73 336.55 L 234.03 334.90 L 236.13 332.80 L 238.83 332.65 L 245.43 335.35 L 254.43 336.55 L 269.28 336.40 L 276.18 335.65 L 288.48 332.65 L 296.13 329.65 L 303.03 326.05 L 309.18 322.00 L 314.88 317.20 L 319.98 312.25 L 328.53 301.15 L 331.98 295.30 L 337.38 283.45 L 340.68 272.35 L 342.18 264.25 L 342.48 257.35 L 342.18 250.60 L 341.13 243.40 L 339.33 235.90 L 336.93 228.55 L 333.78 221.20 L 329.88 214.00 L 325.23 207.25 L 319.98 200.95 L 313.83 194.95 L 308.88 190.90 L 297.63 184.15 L 291.33 181.30 L 284.88 179.20 L 277.83 177.55 L 270.33 176.50 L 262.08 176.20 L 255.33 176.50 L 245.28 177.85 L 240.03 178.00 L 238.53 177.10 L 237.63 175.75 L 237.33 174.10 L 237.63 172.60 L 239.73 170.50 L 241.23 170.05 L 251.28 168.55 L 261.33 168.10 L 270.93 168.55 L 279.33 169.75 L 286.68 171.55 L 293.88 173.95 L 305.58 179.65 L 313.23 184.75 L 332.73 201.25 L 362.13 205.75 L 365.58 207.10 L 366.18 209.05 L 365.73 210.25 L 363.33 211.15 L 336.03 207.55 Z" fill="#000000" fill-rule="nonzero" group-id="1" node-id="55" stroke="none" target-height="177.15" target-width="143.25" target-x="233.73053" target-y="168.1"/><path d="M 1046.73 199.60 L 1045.08 199.60 L 1045.98 202.00 L 1047.33 203.35 L 1049.13 204.40 L 1075.83 208.15 L 1077.93 208.90 L 1079.28 210.10 L 1078.68 212.80 L 1077.93 213.40 L 1076.28 213.70 L 1051.38 210.40 L 1058.73 234.10 L 1083.63 238.15 L 1085.88 239.50 L 1086.03 240.55 L 1085.58 242.20 L 1084.83 242.95 L 1082.88 243.25 L 1058.88 239.95 L 1059.18 248.05 L 1058.88 256.45 L 1057.68 264.70 L 1055.73 272.80 L 1053.03 280.90 L 1072.38 283.00 L 1074.48 283.60 L 1075.83 284.50 L 1075.98 286.90 L 1075.53 287.50 L 1072.98 288.40 L 1051.08 285.85 L 1047.48 292.60 L 1066.53 294.70 L 1068.48 295.30 L 1069.53 296.05 L 1069.68 298.45 L 1068.18 299.80 L 1066.68 300.10 L 1044.93 298.15 L 1043.13 299.20 L 1039.98 303.70 L 1060.83 304.75 L 1062.63 305.95 L 1062.93 307.15 L 1062.48 308.65 L 1061.58 309.40 L 1059.48 309.85 L 1035.78 309.55 L 1034.28 310.15 L 1029.18 314.50 L 1051.83 315.55 L 1052.88 316.00 L 1053.78 317.80 L 1053.48 319.45 L 1052.43 320.20 L 1049.58 320.50 L 1024.83 320.35 L 1022.43 320.95 L 1008.03 328.75 L 1001.13 331.60 L 992.28 334.45 L 985.98 335.80 L 978.63 336.55 L 970.08 337.00 L 961.23 336.55 L 954.63 335.65 L 949.83 334.30 L 946.23 332.80 L 944.13 331.15 L 942.93 329.80 L 942.63 328.30 L 942.93 326.65 L 945.03 324.55 L 946.68 324.25 L 947.88 324.55 L 956.88 327.70 L 961.53 328.60 L 968.28 328.90 L 976.68 328.60 L 991.23 326.35 L 997.53 324.55 L 1005.78 321.25 L 1012.98 317.50 L 1019.43 313.15 L 1025.28 308.05 L 1030.38 302.80 L 1034.73 297.25 L 1041.78 285.40 L 1044.48 279.40 L 1047.63 270.55 L 1049.58 262.45 L 1050.78 254.65 L 1051.08 248.80 L 1050.78 240.70 L 1049.58 232.90 L 1047.63 225.25 L 1045.08 217.75 L 1041.63 210.70 L 1037.58 203.95 L 1032.93 197.50 L 1027.53 191.50 L 1021.53 186.10 L 1015.08 181.45 L 1008.33 177.40 L 1001.13 174.10 L 993.78 171.40 L 986.13 169.45 L 978.18 168.40 L 970.23 167.95 L 950.43 169.90 L 948.78 169.75 L 947.43 168.85 L 946.53 167.50 L 946.23 166.00 L 947.13 163.45 L 949.23 162.10 L 956.28 160.75 L 970.38 159.85 L 979.83 160.30 L 988.23 161.50 L 995.58 163.30 L 1002.63 165.70 L 1014.48 171.40 L 1021.98 176.50 L 1039.98 191.80 L 1041.93 193.00 L 1070.88 197.35 L 1074.63 198.70 L 1075.08 199.45 L 1074.93 201.40 L 1073.43 202.90 L 1072.38 203.05 L 1046.73 199.60 Z" fill="#000000" fill-rule="nonzero" group-id="1" node-id="57" stroke="none" target-height="177.15" target-width="143.39996" target-x="942.6307" target-y="159.85"/><path d="M 317.43 255.70 L 316.98 248.50 L 315.63 241.75 L 313.68 235.30 L 310.83 229.15 L 307.38 223.45 L 303.18 218.20 L 298.53 213.40 L 293.28 209.20 L 287.43 205.60 L 281.28 202.75 L 274.68 200.65 L 267.78 199.45 L 261.03 198.70 L 259.98 198.25 L 259.23 197.20 L 258.93 195.10 L 259.23 193.45 L 260.28 191.95 L 261.78 191.05 L 263.43 190.75 L 268.08 191.05 L 278.58 193.15 L 283.98 195.10 L 294.93 200.65 L 300.33 204.40 L 305.28 208.60 L 310.08 213.55 L 314.28 218.95 L 318.03 225.10 L 321.18 232.00 L 322.98 237.40 L 325.08 249.55 L 325.53 256.45 L 324.33 268.00 L 320.58 279.85 L 317.88 285.70 L 314.58 291.25 L 310.83 296.65 L 306.48 301.60 L 301.38 306.10 L 295.98 310.15 L 289.98 313.60 L 283.38 316.60 L 276.33 318.70 L 268.83 319.90 L 260.58 320.50 L 251.88 319.75 L 242.43 317.95 L 234.93 315.10 L 232.98 313.90 L 231.78 311.35 L 232.08 309.85 L 232.98 308.50 L 234.33 307.75 L 235.83 307.60 L 248.88 311.05 L 253.83 311.95 L 265.38 312.10 L 271.68 311.20 L 278.28 309.40 L 285.63 306.55 L 290.43 304.00 L 295.08 300.70 L 299.73 296.80 L 303.93 292.30 L 307.83 286.90 L 311.28 280.30 L 313.38 275.35 L 316.53 263.05 L 317.43 255.70 Z" fill="#000000" fill-rule="nonzero" group-id="1" node-id="59" stroke="none" target-height="129.75" target-width="93.749985" target-x="231.7805" target-y="190.75"/><path d="M 674.43 94.15 L 673.38 105.70 L 671.88 111.40 L 667.53 122.65 L 664.53 128.05 L 657.18 137.95 L 652.68 142.45 L 647.88 146.35 L 642.48 149.95 L 636.78 152.95 L 630.63 155.50 L 624.18 157.30 L 617.13 158.35 L 609.63 158.80 L 600.48 158.05 L 591.03 156.10 L 583.68 153.25 L 581.88 151.90 L 580.68 149.50 L 581.73 146.95 L 584.43 146.05 L 587.13 146.35 L 597.78 149.50 L 602.73 150.25 L 609.48 150.70 L 616.83 150.25 L 623.88 148.90 L 630.48 146.65 L 636.93 143.65 L 642.78 140.05 L 648.18 135.55 L 652.98 130.60 L 657.03 125.05 L 660.48 118.90 L 663.18 112.45 L 665.13 105.55 L 666.18 98.20 L 666.18 90.85 L 665.43 83.80 L 663.63 76.90 L 661.23 70.45 L 657.93 64.30 L 653.88 58.60 L 649.23 53.50 L 644.13 49.00 L 638.28 45.10 L 631.98 41.80 L 625.23 39.55 L 609.03 36.70 L 608.28 35.65 L 607.98 33.70 L 608.13 31.90 L 610.08 29.50 L 611.43 29.20 L 615.33 29.35 L 619.83 30.10 L 630.63 32.95 L 636.03 35.20 L 647.28 41.35 L 652.68 45.40 L 657.78 50.20 L 662.28 55.60 L 666.33 61.75 L 669.78 68.65 L 671.58 74.20 L 673.08 80.20 L 673.98 86.80 L 674.43 94.15 Z" fill="#000000" fill-rule="nonzero" group-id="1" node-id="61" stroke="none" target-height="129.6" target-width="93.75" target-x="580.68054" target-y="29.200018"/><path d="M 970.68 312.40 L 956.43 310.90 L 947.13 308.50 L 943.83 307.00 L 940.98 304.45 L 940.68 303.10 L 940.98 301.60 L 941.73 300.40 L 943.08 299.65 L 946.98 299.80 L 957.78 302.95 L 962.73 303.70 L 969.48 304.15 L 975.78 303.85 L 987.18 301.45 L 997.38 296.95 L 1002.03 293.95 L 1010.28 286.90 L 1014.93 281.20 L 1018.98 275.20 L 1022.13 268.60 L 1024.38 261.85 L 1025.73 254.65 L 1026.33 247.30 L 1025.88 240.25 L 1024.53 233.50 L 1022.58 227.20 L 1019.73 221.05 L 1016.43 215.35 L 1012.38 210.10 L 1007.73 205.45 L 1002.63 201.25 L 996.93 197.65 L 990.78 194.80 L 984.33 192.70 L 977.43 191.20 L 970.23 190.60 L 969.03 190.15 L 968.28 189.10 L 967.83 186.85 L 968.13 185.20 L 969.18 183.70 L 970.68 182.80 L 972.33 182.65 L 981.63 183.55 L 987.18 184.90 L 997.98 189.25 L 1008.78 195.85 L 1013.88 200.05 L 1018.83 204.85 L 1023.03 210.25 L 1026.78 216.40 L 1030.08 223.30 L 1033.23 234.40 L 1034.43 247.75 L 1033.53 257.80 L 1032.48 263.35 L 1028.58 274.15 L 1022.58 284.95 L 1018.53 290.05 L 1013.88 294.85 L 1008.78 299.05 L 1002.63 302.95 L 995.73 306.40 L 984.48 310.15 L 970.68 312.40 Z" fill="#000000" fill-rule="nonzero" group-id="1" node-id="63" stroke="none" target-height="129.75" target-width="93.75" target-x="940.6808" target-y="182.65002"/><path d="M 277.23 283.75 L 277.53 290.05 L 276.78 293.80 L 275.13 295.45 L 273.33 295.90 L 271.23 295.30 L 269.58 293.20 L 269.28 283.75 L 266.43 282.40 L 261.93 278.80 L 260.58 276.85 L 259.23 273.40 L 259.53 271.90 L 260.43 270.55 L 261.78 269.65 L 263.28 269.35 L 265.23 269.80 L 270.78 274.90 L 272.88 275.35 L 277.38 273.70 L 279.33 272.05 L 281.13 269.05 L 281.43 266.95 L 281.13 265.30 L 279.18 262.60 L 264.48 254.80 L 262.08 252.40 L 260.13 248.35 L 259.83 245.65 L 260.58 240.25 L 263.13 236.20 L 267.78 232.75 L 267.63 224.35 L 268.38 221.80 L 270.18 220.30 L 272.88 220.30 L 274.98 221.95 L 275.73 224.50 L 276.03 231.55 L 283.38 233.35 L 286.08 235.60 L 286.38 237.25 L 285.78 239.35 L 284.13 240.85 L 282.78 241.00 L 275.88 239.95 L 271.08 240.70 L 268.98 242.80 L 268.53 245.35 L 268.98 247.15 L 270.48 248.50 L 278.43 251.80 L 285.03 256.30 L 287.73 259.30 L 289.83 264.40 L 290.28 267.55 L 289.83 270.85 L 287.73 275.80 L 285.18 278.65 L 277.23 283.75 Z" fill="#000000" fill-rule="nonzero" group-id="1" node-id="65" stroke="none" target-height="75.59999" target-width="31.049988" target-x="259.23053" target-y="220.3"/><path d="M 904.53 247.45 L 904.98 238.90 L 906.18 231.70 L 907.98 225.40 L 910.68 219.25 L 913.68 213.70 L 920.88 204.40 L 928.98 196.90 L 935.58 192.40 L 947.58 186.40 L 952.38 184.60 L 958.68 183.25 L 961.38 184.00 L 962.58 185.05 L 963.03 186.85 L 962.13 189.55 L 959.88 191.35 L 947.13 195.70 L 941.88 198.40 L 935.88 202.15 L 928.38 208.45 L 921.48 216.70 L 918.63 221.50 L 916.23 227.20 L 914.43 233.05 L 913.23 239.80 L 912.78 247.45 L 913.98 259.90 L 913.68 261.55 L 912.93 262.75 L 911.58 263.65 L 910.08 263.95 L 907.38 262.90 L 906.48 261.40 L 905.13 255.25 L 904.53 247.45 Z" fill="#000000" fill-rule="nonzero" group-id="1" node-id="67" stroke="none" target-height="80.70001" target-width="58.5" target-x="904.5305" target-y="183.25"/><path d="M 195.48 255.70 L 196.08 247.00 L 197.28 239.95 L 199.08 233.50 L 201.63 227.35 L 204.63 221.95 L 211.98 212.50 L 220.23 205.15 L 226.68 200.50 L 238.83 194.50 L 243.63 192.85 L 250.08 191.50 L 251.58 191.80 L 252.93 192.85 L 253.98 195.55 L 253.38 197.65 L 251.58 199.30 L 238.98 203.50 L 233.58 206.05 L 227.58 209.80 L 219.93 216.10 L 212.88 224.35 L 209.88 229.30 L 207.33 235.00 L 205.53 241.00 L 204.33 247.75 L 203.88 255.70 L 205.08 268.45 L 204.03 271.00 L 201.03 272.20 L 198.63 271.15 L 197.73 269.65 L 196.23 263.35 L 195.48 255.70 Z" fill="#000000" fill-rule="nonzero" group-id="1" node-id="69" stroke="none" target-height="80.70001" target-width="58.5" target-x="195.48053" target-y="191.5"/><path d="M 544.38 93.85 L 544.83 85.00 L 546.18 77.35 L 548.28 70.75 L 550.98 64.30 L 554.28 58.60 L 557.88 53.80 L 561.93 49.15 L 570.48 42.10 L 577.23 37.75 L 589.23 32.35 L 598.68 29.95 L 601.38 30.55 L 602.43 31.60 L 603.03 33.40 L 602.13 36.10 L 599.88 37.90 L 587.13 42.40 L 581.88 44.95 L 575.88 48.70 L 568.38 55.00 L 561.48 63.25 L 558.63 68.20 L 556.23 73.75 L 554.43 79.60 L 553.23 86.35 L 552.78 94.15 L 553.98 106.30 L 553.83 107.95 L 552.93 109.30 L 551.73 110.20 L 550.08 110.50 L 548.73 110.35 L 546.78 108.70 L 545.43 103.00 L 544.38 93.85 Z" fill="#000000" fill-rule="nonzero" group-id="1" node-id="71" stroke="none" target-height="80.549995" target-width="58.650024" target-x="544.3805" target-y="29.950018"/><path d="M 628.68 73.45 L 631.38 74.65 L 633.93 76.30 L 634.68 77.50 L 634.68 80.65 L 633.93 81.85 L 631.23 83.05 L 626.88 81.85 L 625.38 82.30 L 624.48 83.35 L 625.08 85.00 L 633.78 93.25 L 636.03 96.10 L 637.83 100.60 L 638.13 103.45 L 637.68 107.20 L 636.48 110.50 L 634.38 113.50 L 630.78 116.35 L 629.73 118.00 L 629.73 126.40 L 629.13 127.45 L 627.48 128.50 L 624.18 128.35 L 622.98 127.45 L 621.78 124.15 L 621.63 118.00 L 613.53 113.05 L 612.48 110.20 L 612.78 108.55 L 615.03 106.45 L 618.03 106.30 L 623.58 109.00 L 625.08 109.15 L 626.73 108.70 L 628.68 106.45 L 629.43 103.30 L 628.83 101.35 L 627.18 99.10 L 617.88 89.50 L 616.68 87.55 L 615.63 83.50 L 616.08 81.10 L 620.13 74.80 L 620.58 66.85 L 621.63 64.45 L 622.68 63.70 L 624.33 63.25 L 626.28 63.70 L 627.33 64.90 L 628.38 68.65 L 628.68 73.45 Z" fill="#000000" fill-rule="nonzero" group-id="1" node-id="73" stroke="none" target-height="65.25" target-width="25.650024" target-x="612.4805" target-y="63.25002"/><path d="M 243.18 271.75 L 243.18 274.45 L 250.68 274.75 L 253.68 275.80 L 254.43 277.00 L 254.88 278.80 L 254.43 280.75 L 252.33 282.55 L 249.48 283.15 L 233.28 283.00 L 228.48 282.40 L 226.23 281.80 L 225.18 280.90 L 224.58 278.50 L 224.88 276.85 L 225.63 275.65 L 228.03 274.60 L 234.33 274.30 L 234.33 246.70 L 228.93 250.60 L 227.43 250.90 L 225.78 250.60 L 224.43 249.70 L 223.53 248.35 L 223.08 246.70 L 224.28 243.85 L 237.03 232.75 L 238.98 232.15 L 240.48 232.45 L 242.28 233.95 L 243.33 237.70 L 243.18 271.75 Z" fill="#000000" fill-rule="nonzero" group-id="1" node-id="75" stroke="none" target-height="50.999985" target-width="31.799988" target-x="223.08054" target-y="232.15004"/><path d="M 987.63 226.15 L 992.28 227.95 L 994.23 229.30 L 995.88 232.00 L 995.88 235.30 L 993.78 237.40 L 992.28 237.85 L 989.73 236.65 L 987.93 234.55 L 985.08 235.90 L 984.03 237.85 L 984.63 239.20 L 986.13 240.55 L 993.18 245.05 L 995.43 247.30 L 997.23 251.05 L 997.53 253.75 L 997.08 256.75 L 996.03 259.00 L 992.88 262.45 L 990.03 264.25 L 990.93 271.15 L 990.78 273.40 L 990.03 274.90 L 988.83 275.65 L 987.18 276.10 L 984.63 275.20 L 983.28 272.95 L 982.38 266.95 L 981.78 265.30 L 976.23 260.95 L 975.18 259.45 L 974.73 257.65 L 975.18 256.00 L 976.08 254.80 L 978.93 253.45 L 980.28 253.75 L 984.03 256.15 L 985.23 256.30 L 987.48 255.70 L 988.23 254.80 L 988.68 253.75 L 988.08 252.10 L 986.58 250.75 L 979.68 246.70 L 977.58 244.45 L 975.93 240.55 L 975.63 237.70 L 975.93 234.70 L 976.68 233.05 L 979.38 229.60 L 979.68 228.10 L 979.08 221.35 L 979.53 219.10 L 980.43 217.90 L 982.98 216.85 L 984.93 217.30 L 985.98 218.50 L 987.18 222.10 L 987.63 226.15 Z" fill="#000000" fill-rule="nonzero" group-id="1" node-id="77" stroke="none" target-height="59.25" target-width="22.799988" target-x="974.73083" target-y="216.85"/><path d="M 944.73 235.75 L 945.48 241.30 L 951.63 240.70 L 955.83 241.45 L 959.58 243.70 L 960.93 245.35 L 962.58 249.40 L 962.58 254.65 L 960.78 259.30 L 958.68 262.15 L 956.13 264.40 L 953.28 266.05 L 950.58 267.10 L 945.78 267.85 L 944.13 267.70 L 942.78 266.80 L 941.88 265.45 L 941.58 263.80 L 942.48 261.25 L 952.08 256.45 L 953.73 253.90 L 954.03 251.80 L 953.73 250.45 L 952.83 249.70 L 951.33 249.40 L 942.18 251.05 L 940.68 250.90 L 939.33 250.15 L 938.28 248.80 L 937.38 245.35 L 936.78 233.05 L 937.08 230.50 L 937.83 229.00 L 939.18 227.95 L 941.28 227.35 L 953.58 227.50 L 955.08 228.25 L 956.13 229.75 L 956.58 231.40 L 956.28 233.05 L 954.48 234.85 L 944.73 235.75 Z" fill="#000000" fill-rule="nonzero" group-id="1" node-id="79" stroke="none" target-height="40.5" target-width="25.799988" target-x="936.7805" target-y="227.35"/><path d="M 599.13 89.65 L 603.63 92.65 L 606.18 96.25 L 607.08 100.90 L 605.88 106.30 L 602.73 110.95 L 598.08 114.25 L 592.53 116.05 L 589.08 116.35 L 585.33 115.60 L 583.23 113.65 L 582.78 111.70 L 583.23 110.05 L 584.13 108.70 L 585.63 107.80 L 592.08 107.20 L 594.48 106.15 L 597.48 103.30 L 598.38 100.75 L 597.93 99.55 L 597.03 98.65 L 595.23 98.35 L 590.43 98.50 L 588.93 97.45 L 587.88 96.10 L 587.43 94.30 L 587.73 92.50 L 591.93 84.55 L 586.38 85.30 L 584.73 85.00 L 583.38 84.25 L 582.48 82.90 L 582.33 81.40 L 582.63 79.60 L 583.98 78.25 L 585.48 77.65 L 593.88 76.15 L 597.48 75.85 L 599.58 76.15 L 601.08 77.05 L 602.13 78.40 L 602.28 81.85 L 599.13 89.65 Z" fill="#000000" fill-rule="nonzero" group-id="1" node-id="81" stroke="none" target-height="40.5" target-width="24.75" target-x="582.3305" target-y="75.85005"/><path d="M 229.83 305.35 L 229.08 307.30 L 228.33 308.20 L 224.73 309.10 L 217.53 304.15 L 213.93 300.70 L 207.48 292.90 L 205.08 289.45 L 203.43 286.15 L 202.98 284.05 L 203.13 282.55 L 203.88 281.20 L 205.23 280.15 L 206.73 279.85 L 208.98 280.60 L 217.53 292.75 L 220.98 296.35 L 228.18 302.20 L 229.38 303.70 L 229.83 305.20 Z" fill="#000000" fill-rule="nonzero" group-id="1" node-id="83" stroke="none" target-height="29.25" target-width="26.850006" target-x="202.9805" target-y="279.85"/><path d="M 573.78 147.55 L 570.48 145.60 L 562.98 139.15 L 559.53 135.40 L 554.13 127.75 L 552.48 124.30 L 552.03 121.90 L 553.08 119.35 L 555.48 118.30 L 558.03 119.05 L 559.38 120.55 L 563.58 127.30 L 566.73 131.35 L 578.28 142.15 L 578.73 143.65 L 578.28 145.30 L 577.23 146.50 L 573.78 147.55 Z" fill="#000000" fill-rule="nonzero" group-id="1" node-id="85" stroke="none" target-height="29.25" target-width="26.700012" target-x="552.0305" target-y="118.30003"/><path d="M 915.48 271.75 L 918.33 272.65 L 926.58 284.50 L 938.28 295.60 L 938.73 297.25 L 938.28 298.75 L 936.03 300.70 L 934.38 301.00 L 931.08 299.20 L 922.23 291.55 L 916.38 284.65 L 912.63 278.05 L 912.18 275.35 L 912.33 274.00 L 912.93 272.80 L 915.48 271.75 Z" fill="#000000" fill-rule="nonzero" group-id="1" node-id="87" stroke="none" target-height="29.25" target-width="26.549988" target-x="912.1805" target-y="271.75"/><path d="M 676.53 541.60 L 676.83 535.60 L 677.73 530.50 L 679.83 524.65 L 682.98 520.90 L 684.78 520.00 L 687.03 519.70 L 688.68 520.00 L 691.53 521.80 L 695.13 526.75 L 698.43 530.35 L 702.18 533.65 L 709.53 537.55 L 712.68 538.45 L 718.23 538.75 L 719.28 539.35 L 720.03 541.60 L 719.28 545.80 L 716.58 553.00 L 711.78 560.95 L 708.63 564.55 L 704.88 567.40 L 702.18 568.90 L 699.03 569.80 L 695.73 570.10 L 692.43 569.80 L 689.43 568.75 L 686.43 566.80 L 683.73 564.55 L 681.48 561.40 L 679.38 557.35 L 677.88 553.00 L 676.98 547.75 L 676.53 541.60 Z" fill="#000000" fill-rule="nonzero" group-id="1" node-id="89" stroke="none" target-height="50.399963" target-width="43.5" target-x="676.53046" target-y="519.7"/><path d="M 544.98 478.75 L 544.38 435.55 L 544.68 433.45 L 545.43 432.10 L 546.78 431.05 L 549.63 430.90 L 551.58 432.40 L 552.03 433.60 L 552.33 437.95 L 553.53 483.55 L 553.23 485.65 L 552.03 487.45 L 550.23 488.65 L 548.13 488.95 L 546.18 488.80 L 539.43 485.50 L 538.68 487.15 L 538.98 493.00 L 542.28 521.50 L 541.98 523.30 L 540.63 524.95 L 538.53 525.55 L 537.03 525.10 L 535.83 523.90 L 534.93 521.65 L 532.23 505.45 L 530.43 489.10 L 530.58 486.25 L 531.63 482.35 L 532.53 480.40 L 534.03 478.75 L 535.83 477.70 L 538.68 477.25 L 541.83 477.70 L 544.98 478.75 Z" fill="#000000" fill-rule="nonzero" group-id="1" node-id="91" stroke="none" target-height="94.649994" target-width="23.099976" target-x="530.4305" target-y="430.9"/><path d="M 758.58 427.00 L 763.83 428.80 L 772.38 433.00 L 777.63 436.90 L 781.08 440.20 L 783.03 442.60 L 784.08 445.45 L 783.03 447.70 L 780.78 448.75 L 778.68 447.85 L 773.13 442.30 L 767.28 438.10 L 763.08 436.00 L 754.23 433.15 L 753.48 430.75 L 753.78 429.40 L 755.43 427.75 L 758.58 427.00 Z" fill="#000000" fill-rule="nonzero" group-id="1" node-id="93" stroke="none" target-height="21.75" target-width="30.599976" target-x="753.48047" target-y="427.0001"/><path d="M 691.83 586.00 L 684.03 584.65 L 681.18 583.60 L 677.58 581.20 L 675.18 578.80 L 672.33 574.15 L 671.58 571.60 L 671.73 570.70 L 673.08 569.35 L 675.33 569.65 L 680.43 577.00 L 684.78 579.85 L 690.93 580.75 L 697.53 579.85 L 699.48 580.60 L 700.23 582.40 L 699.18 584.35 L 691.83 586.00 Z" fill="#000000" fill-rule="nonzero" group-id="1" node-id="95" stroke="none" target-height="16.650024" target-width="28.650024" target-x="671.58044" target-y="569.35"/><path d="M 746.73 477.55 L 745.83 485.50 L 744.48 490.00 L 743.28 491.05 L 741.48 491.50 L 739.83 491.20 L 738.48 490.30 L 737.73 488.80 L 737.43 487.30 L 738.33 478.00 L 739.83 473.65 L 741.03 472.75 L 742.68 472.45 L 745.23 473.20 L 746.58 475.75 L 746.73 477.55 Z" fill="#000000" fill-rule="nonzero" group-id="1" node-id="97" stroke="none" target-height="19.049988" target-width="9.299988" target-x="737.43036" target-y="472.45"/><path d="M 704.13 480.25 L 703.98 486.25 L 703.08 488.35 L 700.68 489.25 L 699.18 488.95 L 698.13 488.20 L 697.38 486.55 L 696.93 483.40 L 696.93 473.80 L 697.98 471.25 L 700.38 470.50 L 701.88 470.80 L 703.53 472.45 L 703.98 475.75 L 703.98 480.25 Z" fill="#000000" fill-rule="nonzero" group-id="1" node-id="99" stroke="none" target-height="18.75" target-width="7.200012" target-x="696.93054" target-y="470.5001"/><path d="M 755.13 502.00 L 753.93 501.85 L 752.13 500.35 L 751.83 499.15 L 752.28 497.50 L 756.03 493.75 L 760.38 491.20 L 761.73 490.75 L 763.83 491.80 L 764.73 494.05 L 764.43 495.40 L 762.93 497.05 L 756.48 501.55 L 755.13 502.00 Z" fill="#000000" fill-rule="nonzero" group-id="1" node-id="101" stroke="none" target-height="11.25" target-width="12.900024" target-x="751.83044" target-y="490.7501"/><path d="M 673.98 489.55 L 675.03 487.15 L 677.58 486.10 L 681.03 488.20 L 684.78 493.15 L 685.08 494.35 L 683.88 496.60 L 682.83 497.35 L 680.58 497.50 L 675.93 493.15 L 674.28 490.75 L 673.98 489.55 Z" fill="#000000" fill-rule="nonzero" group-id="1" node-id="103" stroke="none" target-height="11.399994" target-width="11.099976" target-x="673.98047" target-y="486.10007"/></g></svg>
