<svg height="253" node-id="1" sillyvg="true" template-height="253" template-width="257" version="1.1" viewBox="0 0 257 253" width="257" xmlns="http://www.w3.org/2000/svg" xmlns:xlink="http://www.w3.org/1999/xlink"><defs node-id="319"></defs><g node-id="806"><g node-id="812"><path d="M 247.80 121.50 L 247.60 115.50 L 246.90 109.70 L 245.70 104.10 L 244.10 98.70 L 242.10 93.30 L 239.70 88.30 L 237.00 83.40 L 233.90 78.80 L 230.40 74.50 L 226.60 70.40 L 222.60 66.70 L 218.20 63.20 L 213.60 60.10 L 208.70 57.30 L 203.60 55.00 L 198.30 52.90 L 192.90 51.40 L 187.20 50.20 L 181.40 49.50 L 173.60 49.30 L 170.20 44.10 L 166.40 39.30 L 162.20 34.90 L 157.70 30.70 L 152.80 27.00 L 147.70 23.70 L 142.20 20.80 L 136.40 18.40 L 130.50 16.50 L 124.30 15.10 L 117.90 14.30 L 111.30 13.90 L 105.30 14.20 L 99.50 14.90 L 93.90 16.00 L 88.40 17.60 L 83.10 19.60 L 78.00 22.00 L 73.10 24.80 L 68.50 27.90 L 64.10 31.30 L 60.10 35.10 L 56.30 39.20 L 52.80 43.50 L 49.70 48.10 L 47.00 53.00 L 44.60 58.00 L 42.60 63.40 L 41.00 68.80 L 39.80 74.40 L 39.10 80.20 L 38.60 91.30 L 37.70 94.70 L 36.20 98.00 L 32.10 104.40 L 29.40 107.60 L 16.10 122.00 L 9.20 130.60 L 5.00 138.00 L 3.50 142.00 L 2.60 146.10 L 2.30 150.50 L 2.50 156.50 L 3.20 162.30 L 4.40 167.90 L 6.00 173.40 L 8.00 178.70 L 10.40 183.80 L 13.10 188.60 L 16.30 193.20 L 19.70 197.60 L 23.50 201.60 L 27.60 205.40 L 31.90 208.80 L 36.60 212.00 L 41.40 214.70 L 46.50 217.10 L 51.80 219.10 L 57.30 220.70 L 62.90 221.80 L 68.70 222.50 L 74.70 222.80 L 81.40 222.50 L 86.30 222.70 L 90.50 223.40 L 94.20 224.40 L 97.80 225.80 L 104.00 229.30 L 108.10 232.40 L 119.40 241.90 L 123.20 244.60 L 127.40 246.80 L 130.40 247.80 L 133.60 248.50 L 137.30 248.70 L 148.30 247.90 L 158.60 245.60 L 163.60 243.90 L 172.90 239.40 L 177.30 236.70 L 185.50 230.50 L 192.60 223.10 L 195.80 219.10 L 201.30 210.40 L 203.60 205.70 L 207.10 195.90 L 209.20 185.40 L 213.20 177.60 L 219.50 168.80 L 236.40 149.80 L 242.30 141.50 L 245.70 134.10 L 246.80 130.30 L 247.60 126.10 L 247.80 121.50 Z" fill="#bddbff" fill-opacity="0.39" fill-rule="nonzero" group-id="1,7" node-id="323" stroke="none" target-height="234.8" target-width="245.5" target-x="2.3" target-y="13.9"/></g></g><g node-id="807"><g node-id="813"><g node-id="838"><g node-id="886"><path d="M 219.30 245.50 L 78.90 219.20 L 93.20 143.30 L 233.60 169.60 Z" fill="#d3e8df" fill-rule="nonzero" group-id="2,8,33,81" node-id="334" stroke="none" target-height="102.2" target-width="154.70001" target-x="78.9" target-y="143.3"/></g><path d="M 219.60 244.10 L 79.20 217.70 L 80.20 218.40 L 80.40 219.50 L 94.70 143.60 L 94.00 144.50 L 92.90 144.80 L 233.30 171.10 L 232.30 170.50 L 232.10 169.30 L 217.90 245.30 L 218.50 244.30 L 219.60 244.10 Z M 233.80 168.10 L 92.90 141.80 L 92.30 142.10 L 91.70 143.00 L 77.50 218.90 L 77.70 220.10 L 78.70 220.70 L 219.70 247.00 L 220.60 246.40 L 220.80 245.80 L 235.00 169.90 L 234.80 168.80 L 233.80 168.10 Z" fill="#ccccde" fill-rule="nonzero" group-id="2,8,33" node-id="337" stroke="none" target-height="105.2" target-width="157.5" target-x="77.5" target-y="141.8"/></g><g node-id="839"><path d="M 219.70 185.00 L 218.30 184.50 L 216.30 182.70 L 215.30 180.20 L 215.70 177.70 L 107.80 157.50 L 107.30 159.90 L 105.50 162.00 L 102.90 162.90 L 100.40 162.50 L 92.70 203.90 L 95.10 204.50 L 97.20 206.30 L 98.10 208.90 L 97.70 211.30 L 205.60 231.50 L 206.20 229.10 L 208.00 227.10 L 210.50 226.10 L 212.10 226.20 L 219.70 185.00 Z" fill="#e3ffe8" fill-rule="nonzero" group-id="2,8,34" node-id="342" stroke="none" target-height="74" target-width="127" target-x="92.7" target-y="157.5"/><path d="M 220.00 183.50 L 218.60 182.90 L 217.50 181.90 L 216.90 180.50 L 217.20 177.60 L 217.00 177.00 L 216.00 176.20 L 108.10 156.00 L 107.40 156.00 L 106.50 156.80 L 105.70 159.60 L 104.60 160.70 L 103.20 161.30 L 100.30 161.00 L 99.70 161.20 L 98.90 162.20 L 91.20 203.70 L 91.20 204.30 L 92.00 205.30 L 94.80 206.10 L 95.90 207.10 L 96.50 208.50 L 96.20 211.40 L 96.90 212.50 L 205.30 233.00 L 206.00 233.00 L 207.00 232.20 L 207.80 229.40 L 208.80 228.30 L 210.20 227.70 L 212.30 227.70 L 213.30 227.10 L 213.60 226.50 L 221.30 185.30 L 221.10 184.10 L 220.00 183.50 Z M 218.40 184.70 L 210.60 226.00 L 211.30 225.00 L 212.40 224.80 L 210.40 224.60 L 208.70 225.00 L 207.10 225.80 L 205.80 227.00 L 204.80 228.50 L 204.10 231.50 L 204.60 230.40 L 205.90 230.10 L 98.00 209.80 L 99.00 210.60 L 99.10 211.90 L 99.60 208.80 L 99.20 207.10 L 98.40 205.40 L 97.20 204.10 L 95.70 203.10 L 92.60 202.40 L 93.80 203.00 L 94.10 204.20 L 101.90 162.80 L 101.10 163.80 L 99.90 163.90 L 103.00 164.40 L 104.70 164.00 L 106.30 163.20 L 107.70 162.00 L 108.60 160.50 L 109.30 157.50 L 108.80 158.60 L 107.50 158.90 L 215.40 179.20 L 214.40 178.40 L 214.30 177.10 L 213.90 180.30 L 214.20 182.00 L 215.00 183.60 L 216.20 184.90 L 217.70 185.90 L 219.60 186.50 L 218.60 185.90 L 218.40 184.70 Z" fill="#ccccde" fill-rule="nonzero" group-id="2,8,34" node-id="344" stroke="none" target-height="77" target-width="130.1" target-x="91.2" target-y="156"/></g><g node-id="840"><g node-id="887"><path d="M 138.30 191.00 L 139.30 187.30 L 140.70 184.10 L 142.40 181.10 L 144.60 178.50 L 146.90 176.50 L 149.40 174.90 L 152.20 173.80 L 155.00 173.40 L 157.90 173.60 L 160.70 174.50 L 163.20 175.90 L 165.40 177.90 L 167.20 180.30 L 168.60 183.00 L 169.70 186.30 L 170.20 189.60 L 170.30 193.20 L 169.90 197.00 L 168.90 200.70 L 167.60 203.90 L 165.80 206.90 L 163.70 209.50 L 161.30 211.50 L 158.80 213.10 L 156.00 214.20 L 153.20 214.60 L 150.30 214.40 L 147.50 213.50 L 145.00 212.10 L 142.80 210.10 L 141.00 207.70 L 139.60 205.00 L 138.50 201.70 L 138.00 198.40 L 137.90 194.80 L 138.30 191.00 Z" fill="#d3e8df" fill-rule="nonzero" group-id="2,8,35,82" node-id="351" stroke="none" target-height="41.200012" target-width="32.40001" target-x="137.9" target-y="173.4"/></g><path d="M 157.70 175.10 L 159.90 175.80 L 161.90 176.90 L 163.80 178.40 L 165.50 180.50 L 166.80 182.80 L 167.80 185.30 L 168.80 190.80 L 168.40 196.70 L 167.50 200.10 L 166.30 203.20 L 164.70 205.90 L 162.70 208.30 L 160.60 210.20 L 158.30 211.70 L 155.70 212.70 L 153.20 213.10 L 150.60 212.90 L 148.30 212.30 L 146.30 211.20 L 144.40 209.60 L 142.70 207.50 L 141.40 205.20 L 140.40 202.80 L 139.40 197.20 L 139.80 191.30 L 140.70 187.90 L 141.90 184.80 L 143.50 182.10 L 145.50 179.70 L 147.60 177.80 L 150.00 176.30 L 152.50 175.30 L 155.00 174.90 L 157.70 175.10 Z M 136.80 190.80 L 136.40 197.50 L 136.80 200.70 L 137.50 203.80 L 138.70 206.60 L 140.20 209.20 L 142.20 211.70 L 144.60 213.60 L 147.20 215.00 L 150.00 215.90 L 152.40 216.10 L 157.00 215.40 L 159.30 214.50 L 162.10 212.80 L 164.60 210.60 L 166.90 207.80 L 168.80 204.70 L 170.30 201.20 L 171.40 197.20 L 171.80 193.80 L 171.40 187.40 L 170.70 184.30 L 169.50 181.40 L 168.00 178.80 L 166.00 176.30 L 163.70 174.40 L 161.00 173.00 L 158.20 172.10 L 153.50 172.00 L 148.90 173.50 L 146.20 175.20 L 143.60 177.40 L 141.30 180.20 L 139.40 183.30 L 137.90 186.80 L 136.80 190.80 Z" fill="#ccccde" fill-rule="nonzero" group-id="2,8,35" node-id="354" stroke="none" target-height="44.100006" target-width="35.40001" target-x="136.4" target-y="172"/></g><g node-id="841"><path d="M 155.70 196.70 L 157.90 194.80 L 161.10 190.60 L 161.60 189.40 L 161.70 187.20 L 161.40 185.30 L 160.60 183.70 L 159.50 182.40 L 158.00 181.40 L 156.30 180.80 L 154.50 180.60 L 152.80 180.80 L 150.80 182.00 L 149.90 183.10 L 148.50 186.30 L 147.70 190.80 L 147.90 192.60 L 149.30 195.70 L 147.00 196.20 L 144.90 197.20 L 143.10 198.60 L 141.60 200.30 L 140.50 202.20 L 139.90 204.10 L 139.80 205.70 L 140.70 208.70 L 143.00 211.10 L 144.60 212.10 L 147.30 213.30 L 150.50 214.20 L 153.90 214.60 L 156.60 214.50 L 158.80 214.00 L 160.20 213.20 L 161.30 212.20 L 162.10 210.80 L 162.70 209.00 L 162.80 206.90 L 162.20 204.50 L 161.20 202.10 L 159.70 199.90 L 157.80 198.00 L 155.70 196.70 Z" fill="#ccccde" fill-rule="nonzero" group-id="2,8,36" node-id="359" stroke="none" target-height="34" target-width="23" target-x="139.8" target-y="180.6"/></g><g node-id="842"><path d="M 100.80 152.50 L 98.90 152.90 L 97.90 154.50 L 98.30 156.40 L 99.90 157.40 L 101.80 157.00 L 102.80 155.40 L 102.40 153.60 L 100.80 152.50 Z M 223.30 175.50 L 222.30 175.50 L 220.80 176.60 L 220.40 178.50 L 221.50 180.00 L 223.40 180.40 L 224.90 179.30 L 225.30 177.40 L 224.30 175.90 L 223.30 175.50 Z" fill="#ccccde" fill-rule="nonzero" group-id="2,8,37" node-id="364" stroke="none" target-height="27.899994" target-width="127.4" target-x="97.9" target-y="152.5"/></g><g node-id="843"><path d="M 90.20 208.90 L 88.40 209.30 L 87.30 210.90 L 87.70 212.80 L 89.30 213.80 L 91.20 213.40 L 92.20 211.80 L 91.80 210.00 L 90.20 208.90 Z M 212.80 231.90 L 210.90 232.30 L 209.90 233.90 L 210.20 235.70 L 211.80 236.80 L 213.70 236.40 L 214.70 234.80 L 214.40 232.90 L 212.80 231.90 Z" fill="#ccccde" fill-rule="nonzero" group-id="2,8,38" node-id="369" stroke="none" target-height="27.90001" target-width="127.399994" target-x="87.3" target-y="208.9"/></g><g node-id="844"><path d="M 117.70 181.10 L 119.20 181.30 L 121.60 182.70 L 123.10 185.10 L 123.30 186.70 L 123.10 188.10 L 121.60 190.60 L 120.50 191.50 L 117.70 192.30 L 116.20 192.10 L 113.70 190.60 L 112.80 189.40 L 112.10 186.70 L 112.80 183.90 L 113.70 182.70 L 116.20 181.30 L 117.70 181.10 Z M 109.10 186.70 L 109.20 188.40 L 110.50 191.40 L 112.90 193.80 L 116.00 195.10 L 119.40 195.10 L 122.40 193.80 L 124.80 191.40 L 126.10 188.40 L 126.30 186.70 L 126.00 184.40 L 125.10 182.30 L 123.80 180.60 L 122.00 179.20 L 120.00 178.40 L 117.70 178.10 L 114.40 178.70 L 111.60 180.60 L 109.70 183.40 L 109.10 186.70 Z" fill="#ccccde" fill-rule="nonzero" group-id="2,8,39" node-id="374" stroke="none" target-height="17" target-width="17.200005" target-x="109.1" target-y="178.1"/></g><g node-id="845"><path d="M 200.20 200.80 L 200.00 202.70 L 199.30 204.40 L 198.10 205.80 L 196.70 206.90 L 195.00 207.70 L 193.10 207.90 L 191.20 207.70 L 189.50 206.90 L 188.10 205.80 L 187.00 204.40 L 186.30 202.70 L 186.00 200.80 L 186.30 198.90 L 187.00 197.20 L 188.10 195.80 L 189.50 194.70 L 191.20 194.00 L 193.10 193.70 L 195.00 194.00 L 196.70 194.70 L 198.10 195.80 L 199.30 197.20 L 200.00 198.90 L 200.20 200.80 Z" fill="#d3e8df" fill-rule="nonzero" group-id="2,8,40" node-id="379" stroke="none" target-height="14.199997" target-width="14.199997" target-x="186" target-y="193.7"/><path d="M 193.10 195.20 L 194.60 195.40 L 197.10 196.90 L 198.50 199.30 L 198.70 200.80 L 198.00 203.60 L 197.10 204.80 L 194.60 206.20 L 193.10 206.40 L 190.30 205.70 L 188.30 203.60 L 187.50 200.80 L 187.70 199.30 L 189.20 196.90 L 191.60 195.40 L 193.10 195.20 Z M 184.50 200.80 L 184.80 203.10 L 185.70 205.10 L 187.00 206.90 L 188.80 208.20 L 190.80 209.10 L 193.10 209.40 L 194.80 209.20 L 197.90 208.00 L 200.30 205.60 L 201.60 202.50 L 201.70 200.80 L 201.40 198.50 L 200.60 196.50 L 199.20 194.70 L 197.50 193.40 L 195.40 192.50 L 193.10 192.20 L 190.80 192.50 L 188.80 193.40 L 187.00 194.70 L 185.70 196.50 L 184.80 198.50 L 184.50 200.80 Z" fill="#ccccde" fill-rule="nonzero" group-id="2,8,40" node-id="381" stroke="none" target-height="17.199997" target-width="17.199997" target-x="184.5" target-y="192.2"/></g></g><g node-id="814"><g node-id="846"><path d="M 222.90 91.70 L 222.50 95.40 L 221.60 98.70 L 220.10 101.80 L 218.10 104.60 L 215.80 107.00 L 213.00 109.00 L 209.90 110.40 L 206.50 111.40 L 202.90 111.70 L 199.20 111.40 L 195.90 110.40 L 192.80 109.00 L 190.00 107.00 L 187.60 104.60 L 185.60 101.80 L 184.20 98.70 L 183.30 95.40 L 182.90 91.70 L 183.30 88.10 L 184.20 84.70 L 185.60 81.60 L 187.60 78.80 L 190.00 76.50 L 192.80 74.50 L 195.90 73.00 L 199.20 72.10 L 202.90 71.80 L 206.50 72.10 L 209.90 73.00 L 213.00 74.50 L 215.80 76.50 L 218.10 78.80 L 220.10 81.60 L 221.60 84.70 L 222.50 88.10 L 222.90 91.70 Z" fill="#ffe2d6" fill-rule="nonzero" group-id="2,9,41" node-id="389" stroke="none" target-height="39.899994" target-width="40" target-x="182.9" target-y="71.8"/><path d="M 202.90 73.30 L 206.20 73.60 L 209.30 74.40 L 212.20 75.80 L 214.80 77.60 L 217.00 79.80 L 218.80 82.40 L 220.20 85.30 L 221.00 88.40 L 221.40 91.70 L 221.00 95.10 L 220.20 98.20 L 218.80 101.00 L 217.00 103.60 L 214.80 105.80 L 212.20 107.70 L 209.30 109.00 L 206.20 109.90 L 202.90 110.20 L 199.50 109.90 L 196.40 109.00 L 193.60 107.70 L 191.00 105.80 L 188.80 103.60 L 186.90 101.00 L 185.60 98.20 L 184.70 95.10 L 184.40 91.70 L 184.70 88.40 L 185.60 85.30 L 186.90 82.40 L 188.80 79.80 L 191.00 77.60 L 193.60 75.80 L 196.40 74.40 L 199.50 73.60 L 202.90 73.30 Z M 181.40 91.70 L 181.60 94.70 L 183.10 100.10 L 184.40 102.60 L 186.50 105.60 L 189.00 108.10 L 192.10 110.30 L 194.50 111.50 L 199.90 113.00 L 202.90 113.20 L 205.90 113.00 L 211.20 111.50 L 213.70 110.30 L 216.70 108.10 L 219.30 105.60 L 221.40 102.60 L 223.60 97.50 L 224.10 94.70 L 224.40 91.70 L 223.60 86.00 L 221.40 80.90 L 219.30 77.90 L 216.70 75.30 L 213.70 73.20 L 211.20 71.90 L 205.90 70.50 L 202.90 70.30 L 199.90 70.50 L 194.50 71.90 L 192.10 73.20 L 189.00 75.30 L 186.50 77.90 L 184.40 80.90 L 183.10 83.40 L 181.60 88.80 L 181.40 91.70 Z" fill="#ccccde" fill-rule="nonzero" group-id="2,9,41" node-id="391" stroke="none" target-height="42.899994" target-width="43" target-x="181.4" target-y="70.3"/></g><g node-id="847"><path d="M 217.20 91.60 L 217.00 94.20 L 216.30 96.60 L 215.30 98.80 L 213.90 100.80 L 212.20 102.40 L 210.20 103.90 L 208.00 104.90 L 205.60 105.60 L 203.00 105.80 L 200.40 105.60 L 198.00 104.90 L 195.80 103.90 L 193.80 102.40 L 192.20 100.80 L 190.70 98.80 L 189.70 96.60 L 189.00 94.20 L 188.80 91.60 L 189.00 89.00 L 189.70 86.60 L 190.70 84.40 L 192.20 82.40 L 193.80 80.70 L 195.80 79.30 L 198.00 78.30 L 200.40 77.60 L 203.00 77.40 L 205.60 77.60 L 208.00 78.30 L 210.20 79.30 L 212.20 80.70 L 213.90 82.40 L 215.30 84.40 L 216.30 86.60 L 217.00 89.00 L 217.20 91.60 Z" fill="#fff6d6" fill-rule="nonzero" group-id="2,9,42" node-id="396" stroke="none" target-height="28.400002" target-width="28.399994" target-x="188.8" target-y="77.4"/><path d="M 203.00 78.90 L 207.50 79.70 L 211.20 81.90 L 214.00 85.20 L 214.90 87.20 L 215.70 91.60 L 214.90 96.00 L 212.70 99.80 L 209.40 102.60 L 205.30 104.10 L 203.00 104.30 L 200.70 104.10 L 198.60 103.50 L 194.80 101.30 L 192.00 98.00 L 191.10 96.00 L 190.30 91.60 L 190.60 89.10 L 191.30 86.70 L 192.40 84.60 L 194.00 82.60 L 196.00 81.00 L 198.10 79.90 L 200.50 79.10 L 203.00 78.90 Z M 187.30 91.60 L 187.60 94.50 L 188.30 97.10 L 189.50 99.50 L 191.00 101.70 L 192.90 103.60 L 195.10 105.20 L 197.50 106.30 L 200.20 107.00 L 203.00 107.30 L 205.90 107.00 L 208.50 106.30 L 210.90 105.20 L 213.10 103.60 L 215.00 101.70 L 216.60 99.50 L 217.70 97.10 L 218.40 94.50 L 218.70 91.60 L 218.40 88.70 L 217.70 86.10 L 216.60 83.70 L 215.00 81.50 L 213.10 79.60 L 210.90 78.00 L 208.50 76.90 L 205.90 76.20 L 203.00 75.90 L 199.90 76.20 L 197.00 77.10 L 194.30 78.50 L 191.90 80.50 L 189.90 82.90 L 188.50 85.60 L 187.60 88.50 L 187.30 91.60 Z" fill="#ccccde" fill-rule="nonzero" group-id="2,9,42" node-id="398" stroke="none" target-height="31.400002" target-width="31.399994" target-x="187.3" target-y="75.9"/></g></g><g node-id="815"><g node-id="848"><path d="M 98.80 169.70 L 241.70 169.70 L 241.70 246.90 L 98.80 246.90 Z" fill="#d3e8df" fill-rule="nonzero" group-id="2,10,43" node-id="406" stroke="none" target-height="77.2" target-width="142.9" target-x="98.8" target-y="169.7"/><path d="M 98.80 171.20 L 241.70 171.20 L 240.60 170.70 L 240.20 169.70 L 240.20 246.90 L 240.60 245.90 L 241.70 245.40 L 98.80 245.40 L 99.90 245.90 L 100.30 246.90 L 100.30 169.70 L 99.90 170.70 L 98.80 171.20 Z M 98.80 248.40 L 242.30 248.30 L 243.10 247.50 L 243.20 246.90 L 243.20 169.70 L 243.10 169.10 L 242.30 168.30 L 98.30 168.30 L 97.50 169.10 L 97.30 169.70 L 97.30 246.90 L 97.80 248.00 L 98.80 248.40 Z" fill="#ccccde" fill-rule="nonzero" group-id="2,10,43" node-id="408" stroke="none" target-height="80.09999" target-width="145.9" target-x="97.3" target-y="168.3"/></g><g node-id="849"><path d="M 230.90 187.40 L 229.40 187.10 L 227.10 185.80 L 225.70 183.40 L 225.60 180.90 L 115.80 180.90 L 115.70 183.40 L 114.40 185.80 L 112.00 187.10 L 109.50 187.30 L 109.50 229.40 L 112.00 229.50 L 114.40 230.90 L 115.70 233.20 L 115.80 235.70 L 225.60 235.70 L 225.70 233.20 L 227.10 230.90 L 229.40 229.50 L 231.00 229.30 L 230.90 187.40 Z" fill="#e3ffe8" fill-rule="nonzero" group-id="2,10,44" node-id="413" stroke="none" target-height="54.800003" target-width="121.5" target-x="109.5" target-y="180.9"/><path d="M 230.90 185.90 L 229.40 185.50 L 228.20 184.70 L 227.30 183.50 L 227.10 180.50 L 226.80 180.00 L 225.60 179.40 L 115.80 179.40 L 114.70 180.00 L 114.40 180.50 L 114.10 183.50 L 113.30 184.70 L 112.10 185.50 L 109.10 185.80 L 108.50 186.10 L 108.00 187.30 L 108.00 229.40 L 108.50 230.50 L 109.10 230.80 L 112.10 231.10 L 113.30 231.90 L 114.10 233.20 L 114.40 236.10 L 115.20 237.10 L 225.60 237.20 L 226.80 236.70 L 227.10 236.10 L 227.30 233.20 L 228.20 231.90 L 229.40 231.10 L 231.50 230.70 L 232.40 229.90 L 232.50 229.30 L 232.50 187.40 L 232.10 186.30 L 230.90 185.90 Z M 229.50 187.40 L 229.50 229.30 L 230.00 228.20 L 231.00 227.80 L 229.10 228.10 L 227.50 228.70 L 226.00 229.80 L 224.90 231.20 L 224.30 232.80 L 224.10 236.00 L 224.40 234.70 L 225.60 234.20 L 115.80 234.20 L 117.00 234.70 L 117.30 236.00 L 117.20 232.80 L 116.50 231.20 L 115.40 229.80 L 114.00 228.70 L 112.40 228.00 L 109.20 227.90 L 110.40 228.20 L 111.00 229.40 L 111.00 187.20 L 110.40 188.40 L 109.20 188.70 L 112.40 188.60 L 114.00 187.90 L 115.40 186.80 L 116.50 185.40 L 117.20 183.80 L 117.30 180.60 L 117.00 181.90 L 115.80 182.40 L 225.60 182.40 L 224.50 181.90 L 224.10 180.60 L 224.30 183.80 L 225.00 185.40 L 226.00 186.80 L 227.40 187.90 L 229.10 188.60 L 231.10 188.80 L 230.00 188.40 L 229.50 187.40 Z" fill="#ccccde" fill-rule="nonzero" group-id="2,10,44" node-id="415" stroke="none" target-height="57.800003" target-width="124.5" target-x="108" target-y="179.4"/></g><g node-id="850"><path d="M 184.10 208.30 L 183.80 212.10 L 183.10 215.60 L 181.90 218.80 L 180.30 221.80 L 178.40 224.20 L 176.20 226.20 L 173.60 227.80 L 171.00 228.70 L 168.10 229.10 L 165.20 228.70 L 162.50 227.80 L 160.00 226.20 L 157.70 224.20 L 155.80 221.80 L 154.20 218.80 L 153.00 215.60 L 152.30 212.10 L 152.00 208.30 L 152.30 204.50 L 153.00 201.00 L 154.20 197.80 L 155.80 194.90 L 157.70 192.40 L 160.00 190.40 L 162.50 188.80 L 165.20 187.90 L 168.10 187.50 L 171.00 187.90 L 173.60 188.80 L 176.20 190.40 L 178.40 192.40 L 180.30 194.90 L 181.90 197.80 L 183.10 201.00 L 183.80 204.50 L 184.10 208.30 Z" fill="#d3e8df" fill-rule="nonzero" group-id="2,10,45" node-id="420" stroke="none" target-height="41.600006" target-width="32.100006" target-x="152" target-y="187.5"/><path d="M 168.10 189.00 L 170.70 189.40 L 173.10 190.20 L 175.40 191.70 L 177.40 193.50 L 179.10 195.80 L 180.60 198.60 L 181.70 201.50 L 182.40 204.80 L 182.60 208.30 L 182.40 211.80 L 181.70 215.10 L 180.60 218.00 L 179.10 220.80 L 177.40 223.10 L 175.40 224.90 L 173.10 226.40 L 170.70 227.20 L 168.10 227.60 L 165.40 227.20 L 163.00 226.40 L 160.70 224.90 L 158.70 223.10 L 157.00 220.80 L 155.50 218.00 L 154.40 215.10 L 153.80 211.80 L 153.50 208.30 L 153.80 204.80 L 154.40 201.50 L 155.50 198.60 L 157.00 195.80 L 158.70 193.50 L 160.70 191.70 L 163.00 190.20 L 165.40 189.40 L 168.10 189.00 Z M 150.50 208.30 L 150.80 212.40 L 151.60 216.10 L 152.90 219.50 L 154.70 222.70 L 156.80 225.40 L 159.20 227.50 L 161.30 228.80 L 165.70 230.40 L 168.10 230.60 L 172.70 229.80 L 176.90 227.50 L 179.30 225.40 L 181.40 222.70 L 183.20 219.50 L 184.50 216.10 L 185.30 212.40 L 185.60 208.30 L 185.30 204.20 L 184.50 200.50 L 183.20 197.10 L 181.40 193.90 L 179.30 191.30 L 176.90 189.10 L 174.90 187.80 L 170.50 186.30 L 168.10 186.00 L 163.40 186.80 L 159.20 189.10 L 156.80 191.30 L 154.70 193.90 L 152.90 197.10 L 151.60 200.50 L 150.80 204.20 L 150.50 208.30 Z" fill="#ccccde" fill-rule="nonzero" group-id="2,10,45" node-id="422" stroke="none" target-height="44.600006" target-width="35.100006" target-x="150.5" target-y="186"/></g><g node-id="851"><path d="M 170.10 210.60 L 171.90 208.40 L 174.30 203.70 L 174.50 202.40 L 174.30 200.20 L 173.60 198.40 L 172.60 197.00 L 171.20 195.90 L 169.60 195.20 L 167.80 194.90 L 165.90 195.10 L 164.40 195.60 L 162.60 197.10 L 161.90 198.40 L 161.10 201.70 L 161.20 206.30 L 161.70 208.10 L 163.70 210.80 L 161.50 211.80 L 159.60 213.20 L 158.10 214.90 L 156.90 216.80 L 156.20 218.90 L 155.90 220.80 L 156.10 222.50 L 157.60 225.20 L 160.30 227.10 L 162.00 227.80 L 164.90 228.50 L 168.30 228.80 L 171.70 228.60 L 174.30 228.00 L 176.30 227.10 L 177.60 226.10 L 178.50 224.80 L 179.00 223.30 L 179.30 221.50 L 178.90 219.40 L 178.00 217.10 L 176.50 215.00 L 174.70 213.10 L 172.50 211.60 L 170.10 210.60 Z" fill="#ccccde" fill-rule="nonzero" group-id="2,10,46" node-id="427" stroke="none" target-height="33.90001" target-width="23.40001" target-x="155.9" target-y="194.9"/></g><g node-id="852"><path d="M 108.00 177.40 L 107.10 177.60 L 105.70 178.90 L 105.70 180.80 L 107.10 182.10 L 109.00 182.10 L 110.30 180.80 L 110.30 178.90 L 109.00 177.60 L 108.00 177.40 Z M 232.70 177.40 L 231.70 177.60 L 230.40 178.90 L 230.40 180.80 L 231.70 182.10 L 233.70 182.10 L 235.00 180.80 L 235.20 179.90 L 235.00 178.90 L 233.70 177.60 L 232.70 177.40 Z" fill="#ccccde" fill-rule="nonzero" group-id="2,10,47" node-id="432" stroke="none" target-height="4.700012" target-width="129.5" target-x="105.7" target-y="177.4"/></g><g node-id="853"><path d="M 108.00 234.70 L 106.30 235.50 L 105.60 237.20 L 106.30 239.00 L 108.00 239.70 L 109.80 239.00 L 110.50 237.20 L 109.80 235.50 L 108.00 234.70 Z M 232.70 234.70 L 230.90 235.50 L 230.20 237.20 L 230.90 239.00 L 232.70 239.70 L 234.50 239.00 L 235.20 237.20 L 234.50 235.50 L 232.70 234.70 Z" fill="#ccccde" fill-rule="nonzero" group-id="2,10,48" node-id="437" stroke="none" target-height="5" target-width="129.6" target-x="105.6" target-y="234.7"/></g><g node-id="854"><path d="M 130.90 202.20 L 132.40 202.40 L 134.90 203.80 L 136.30 206.30 L 136.50 207.80 L 135.80 210.60 L 134.90 211.80 L 132.40 213.20 L 130.90 213.40 L 128.10 212.70 L 127.00 211.80 L 125.50 209.30 L 125.30 207.80 L 126.00 205.00 L 128.10 202.90 L 130.90 202.20 Z M 122.30 207.80 L 123.00 211.10 L 124.80 213.90 L 127.60 215.70 L 130.90 216.40 L 134.20 215.70 L 137.00 213.90 L 138.90 211.10 L 139.50 207.80 L 139.20 205.50 L 138.30 203.50 L 137.00 201.70 L 135.30 200.40 L 133.20 199.50 L 130.90 199.20 L 127.60 199.80 L 124.80 201.70 L 123.00 204.50 L 122.30 207.80 Z" fill="#ccccde" fill-rule="nonzero" group-id="2,10,49" node-id="442" stroke="none" target-height="17.199997" target-width="17.199997" target-x="122.3" target-y="199.2"/></g><g node-id="855"><path d="M 214.80 207.80 L 214.20 210.50 L 212.70 212.80 L 210.40 214.40 L 207.70 214.90 L 205.00 214.40 L 202.70 212.80 L 201.10 210.50 L 200.60 207.80 L 201.10 205.10 L 202.70 202.80 L 205.00 201.20 L 207.70 200.70 L 210.40 201.20 L 212.70 202.80 L 214.20 205.10 L 214.80 207.80 Z" fill="#d3e8df" fill-rule="nonzero" group-id="2,10,50" node-id="447" stroke="none" target-height="14.199997" target-width="14.199997" target-x="200.6" target-y="200.7"/><path d="M 207.70 202.20 L 209.20 202.40 L 211.60 203.80 L 213.10 206.30 L 213.30 207.80 L 213.10 209.30 L 211.60 211.80 L 209.20 213.20 L 207.70 213.40 L 206.20 213.20 L 203.70 211.80 L 202.30 209.30 L 202.10 207.80 L 202.30 206.30 L 203.70 203.80 L 206.20 202.40 L 207.70 202.20 Z M 199.10 207.80 L 199.40 210.10 L 200.20 212.10 L 201.60 213.90 L 203.30 215.20 L 205.40 216.10 L 207.70 216.40 L 209.40 216.20 L 212.40 215.00 L 214.80 212.60 L 216.10 209.50 L 216.30 207.80 L 216.00 205.50 L 215.10 203.50 L 213.80 201.70 L 212.00 200.40 L 210.00 199.50 L 207.70 199.20 L 205.40 199.50 L 203.30 200.40 L 201.60 201.70 L 200.20 203.50 L 199.40 205.50 L 199.10 207.80 Z" fill="#ccccde" fill-rule="nonzero" group-id="2,10,50" node-id="449" stroke="none" target-height="17.199997" target-width="17.199997" target-x="199.1" target-y="199.2"/></g></g><g node-id="816"><g node-id="856"><path d="M 61.80 216.60 L 61.40 220.30 L 60.50 223.60 L 59.00 226.70 L 57.10 229.50 L 54.70 231.90 L 51.90 233.90 L 48.80 235.40 L 45.50 236.30 L 41.80 236.60 L 38.20 236.30 L 34.80 235.40 L 31.70 233.90 L 28.90 231.90 L 26.50 229.50 L 24.60 226.70 L 23.10 223.60 L 22.20 220.30 L 21.80 216.60 L 22.20 213.00 L 23.10 209.70 L 24.60 206.60 L 26.50 203.80 L 28.90 201.40 L 31.70 199.40 L 34.80 197.90 L 38.20 197.00 L 41.80 196.70 L 45.50 197.00 L 48.80 197.90 L 51.90 199.40 L 54.70 201.40 L 57.10 203.80 L 59.00 206.60 L 60.50 209.70 L 61.40 213.00 L 61.80 216.60 Z" fill="#ffe2d6" fill-rule="nonzero" group-id="2,11,51" node-id="457" stroke="none" target-height="39.90001" target-width="40" target-x="21.8" target-y="196.7"/><path d="M 41.80 198.20 L 45.20 198.50 L 48.30 199.30 L 51.10 200.70 L 53.70 202.50 L 55.90 204.70 L 57.70 207.30 L 59.10 210.20 L 60.00 213.30 L 60.30 216.60 L 60.00 220.00 L 59.10 223.10 L 57.70 226.00 L 55.90 228.50 L 53.70 230.70 L 51.10 232.60 L 48.30 234.00 L 45.20 234.80 L 41.80 235.10 L 38.40 234.80 L 35.40 234.00 L 32.50 232.60 L 29.90 230.70 L 27.70 228.50 L 25.90 226.00 L 24.50 223.10 L 23.70 220.00 L 23.30 216.60 L 23.70 213.30 L 24.50 210.20 L 25.90 207.30 L 27.70 204.70 L 29.90 202.50 L 32.50 200.70 L 35.40 199.30 L 38.40 198.50 L 41.80 198.20 Z M 20.30 216.60 L 20.60 219.60 L 22.00 225.00 L 23.30 227.50 L 25.40 230.50 L 28.00 233.00 L 31.00 235.20 L 33.50 236.40 L 38.80 237.90 L 41.80 238.10 L 44.80 237.90 L 50.20 236.40 L 52.60 235.20 L 55.60 233.00 L 58.20 230.50 L 60.30 227.50 L 61.60 225.00 L 63.10 219.60 L 63.30 216.60 L 63.10 213.70 L 61.60 208.30 L 60.30 205.80 L 58.20 202.80 L 55.60 200.20 L 52.60 198.10 L 50.20 196.90 L 44.80 195.40 L 41.80 195.20 L 38.80 195.40 L 33.50 196.90 L 31.00 198.10 L 28.00 200.20 L 25.40 202.80 L 23.30 205.80 L 22.00 208.30 L 20.60 213.70 L 20.30 216.60 Z" fill="#ccccde" fill-rule="nonzero" group-id="2,11,51" node-id="459" stroke="none" target-height="42.90001" target-width="43" target-x="20.3" target-y="195.2"/></g><g node-id="857"><path d="M 56.10 216.50 L 55.90 219.10 L 55.30 221.50 L 54.20 223.70 L 52.80 225.70 L 51.10 227.40 L 49.10 228.80 L 46.90 229.80 L 44.50 230.50 L 41.90 230.70 L 39.30 230.50 L 37.00 229.80 L 34.80 228.80 L 32.80 227.40 L 31.10 225.70 L 29.70 223.70 L 28.60 221.50 L 28.00 219.10 L 27.70 216.50 L 28.00 213.90 L 28.60 211.50 L 29.70 209.30 L 31.10 207.30 L 32.80 205.70 L 34.80 204.20 L 37.00 203.20 L 39.30 202.50 L 41.90 202.30 L 44.50 202.50 L 46.90 203.20 L 49.10 204.20 L 51.10 205.70 L 52.80 207.30 L 54.20 209.30 L 55.30 211.50 L 55.90 213.90 L 56.10 216.50 Z" fill="#fff6d6" fill-rule="nonzero" group-id="2,11,52" node-id="464" stroke="none" target-height="28.399994" target-width="28.399998" target-x="27.7" target-y="202.3"/><path d="M 41.90 203.80 L 46.40 204.60 L 48.30 205.50 L 51.60 208.30 L 53.80 212.10 L 54.60 216.50 L 54.40 219.00 L 53.70 221.40 L 52.50 223.50 L 50.90 225.50 L 49.00 227.10 L 46.80 228.30 L 44.40 229.00 L 41.90 229.20 L 37.50 228.40 L 35.50 227.50 L 32.20 224.70 L 30.00 221.00 L 29.20 216.50 L 30.00 212.10 L 32.20 208.30 L 35.50 205.50 L 37.50 204.60 L 41.90 203.80 Z M 26.20 216.50 L 26.50 219.40 L 27.20 222.00 L 28.40 224.40 L 29.90 226.60 L 31.80 228.50 L 34.00 230.10 L 36.40 231.20 L 39.10 231.90 L 41.90 232.20 L 45.00 231.90 L 47.90 231.00 L 50.60 229.60 L 53.00 227.60 L 55.00 225.20 L 56.50 222.50 L 57.30 219.60 L 57.60 216.50 L 57.40 213.60 L 56.70 211.00 L 55.50 208.60 L 53.90 206.40 L 52.10 204.50 L 49.90 203.00 L 47.40 201.80 L 44.80 201.10 L 41.90 200.80 L 39.10 201.10 L 36.40 201.80 L 34.00 203.00 L 31.80 204.50 L 29.90 206.40 L 28.40 208.60 L 27.20 211.00 L 26.50 213.60 L 26.20 216.50 Z" fill="#ccccde" fill-rule="nonzero" group-id="2,11,52" node-id="466" stroke="none" target-height="31.399994" target-width="31.399998" target-x="26.2" target-y="200.8"/></g></g><g node-id="817"><g node-id="858"><path d="M 238.90 107.70 L 238.50 111.40 L 237.60 114.70 L 236.10 117.80 L 234.10 120.60 L 231.80 123.00 L 229.00 125.00 L 225.90 126.40 L 222.50 127.40 L 218.90 127.70 L 215.20 127.40 L 211.90 126.40 L 208.80 125.00 L 206.00 123.00 L 203.60 120.60 L 201.60 117.80 L 200.20 114.70 L 199.30 111.40 L 198.90 107.70 L 199.30 104.10 L 200.20 100.70 L 201.60 97.60 L 203.60 94.80 L 206.00 92.50 L 208.80 90.50 L 211.90 89.00 L 215.20 88.10 L 218.90 87.80 L 222.50 88.10 L 225.90 89.00 L 229.00 90.50 L 231.80 92.50 L 234.10 94.80 L 236.10 97.60 L 237.60 100.70 L 238.50 104.10 L 238.90 107.70 Z" fill="#ffe2d6" fill-rule="nonzero" group-id="2,12,53" node-id="474" stroke="none" target-height="39.899994" target-width="40" target-x="198.9" target-y="87.8"/><path d="M 218.90 89.30 L 222.20 89.60 L 225.30 90.40 L 228.20 91.80 L 230.80 93.60 L 233.00 95.80 L 234.80 98.40 L 236.20 101.30 L 237.00 104.40 L 237.40 107.70 L 237.00 111.10 L 236.20 114.20 L 234.80 117.00 L 233.00 119.60 L 230.80 121.80 L 228.20 123.70 L 225.30 125.00 L 222.20 125.90 L 218.90 126.20 L 215.50 125.90 L 212.40 125.00 L 209.60 123.70 L 207.00 121.80 L 204.80 119.60 L 202.90 117.00 L 201.60 114.20 L 200.70 111.10 L 200.40 107.70 L 200.70 104.40 L 201.60 101.30 L 202.90 98.40 L 204.80 95.80 L 207.00 93.60 L 209.60 91.80 L 212.40 90.40 L 215.50 89.60 L 218.90 89.30 Z M 197.40 107.70 L 197.60 110.70 L 199.10 116.10 L 200.40 118.60 L 202.50 121.60 L 205.00 124.10 L 208.10 126.30 L 210.50 127.50 L 215.90 129.00 L 218.90 129.20 L 221.90 129.00 L 227.20 127.50 L 229.70 126.30 L 232.70 124.10 L 235.30 121.60 L 237.40 118.60 L 239.60 113.50 L 240.10 110.70 L 240.40 107.70 L 239.60 102.00 L 237.40 96.90 L 235.30 93.90 L 232.70 91.30 L 229.70 89.20 L 227.20 87.90 L 221.90 86.50 L 218.90 86.30 L 215.90 86.50 L 210.50 87.90 L 208.10 89.20 L 205.00 91.30 L 202.50 93.90 L 200.40 96.90 L 199.10 99.40 L 197.60 104.80 L 197.40 107.70 Z" fill="#ccccde" fill-rule="nonzero" group-id="2,12,53" node-id="476" stroke="none" target-height="42.899994" target-width="43" target-x="197.4" target-y="86.3"/></g><g node-id="859"><path d="M 233.20 107.60 L 233.00 110.20 L 232.30 112.60 L 231.30 114.80 L 229.90 116.80 L 228.20 118.40 L 226.20 119.90 L 224.00 120.90 L 221.60 121.60 L 219.00 121.80 L 216.40 121.60 L 214.00 120.90 L 211.80 119.90 L 209.80 118.40 L 208.20 116.80 L 206.70 114.80 L 205.70 112.60 L 205.00 110.20 L 204.80 107.60 L 205.00 105.00 L 205.70 102.60 L 206.70 100.40 L 208.20 98.40 L 209.80 96.70 L 211.80 95.30 L 214.00 94.30 L 216.40 93.60 L 219.00 93.40 L 221.60 93.60 L 224.00 94.30 L 226.20 95.30 L 228.20 96.70 L 229.90 98.40 L 231.30 100.40 L 232.30 102.60 L 233.00 105.00 L 233.20 107.60 Z" fill="#fff6d6" fill-rule="nonzero" group-id="2,12,54" node-id="481" stroke="none" target-height="28.400002" target-width="28.399994" target-x="204.8" target-y="93.4"/><path d="M 219.00 94.90 L 223.50 95.70 L 227.20 97.90 L 230.00 101.20 L 230.90 103.20 L 231.70 107.60 L 230.90 112.00 L 228.70 115.80 L 225.40 118.60 L 221.30 120.10 L 219.00 120.30 L 216.70 120.10 L 214.60 119.50 L 210.80 117.30 L 208.00 114.00 L 207.10 112.00 L 206.30 107.60 L 206.60 105.10 L 207.30 102.70 L 208.40 100.60 L 210.00 98.60 L 212.00 97.00 L 214.10 95.90 L 216.50 95.10 L 219.00 94.90 Z M 203.30 107.60 L 203.60 110.50 L 204.30 113.10 L 205.50 115.50 L 207.00 117.70 L 208.90 119.60 L 211.10 121.20 L 213.50 122.30 L 216.20 123.00 L 219.00 123.30 L 221.90 123.00 L 224.50 122.30 L 226.90 121.20 L 229.10 119.60 L 231.00 117.70 L 232.60 115.50 L 233.70 113.10 L 234.40 110.50 L 234.70 107.60 L 234.40 104.70 L 233.70 102.10 L 232.60 99.70 L 231.00 97.50 L 229.10 95.60 L 226.90 94.00 L 224.50 92.90 L 221.90 92.20 L 219.00 91.90 L 215.90 92.20 L 213.00 93.10 L 210.30 94.50 L 207.90 96.50 L 205.90 98.90 L 204.50 101.60 L 203.60 104.50 L 203.30 107.60 Z" fill="#ccccde" fill-rule="nonzero" group-id="2,12,54" node-id="483" stroke="none" target-height="31.400002" target-width="31.399994" target-x="203.3" target-y="91.9"/></g></g><g node-id="818"><g node-id="860"><path d="M 69.30 154.70 L 69.00 158.30 L 68.10 161.70 L 66.60 164.80 L 64.60 167.60 L 62.20 169.90 L 59.40 171.90 L 56.30 173.40 L 53.00 174.30 L 49.30 174.60 L 45.70 174.30 L 42.30 173.40 L 39.30 171.90 L 36.50 169.90 L 34.10 167.60 L 32.10 164.80 L 30.60 161.70 L 29.70 158.30 L 29.40 154.70 L 29.70 151.00 L 30.60 147.70 L 32.10 144.60 L 34.10 141.80 L 36.50 139.40 L 39.30 137.40 L 42.30 136.00 L 45.70 135.10 L 49.30 134.70 L 53.00 135.10 L 56.30 136.00 L 59.40 137.40 L 62.20 139.40 L 64.60 141.80 L 66.60 144.60 L 68.10 147.70 L 69.00 151.00 L 69.30 154.70 Z" fill="#ffe2d6" fill-rule="nonzero" group-id="2,13,55" node-id="491" stroke="none" target-height="39.90001" target-width="39.9" target-x="29.4" target-y="134.7"/><path d="M 49.30 136.20 L 52.70 136.50 L 55.80 137.40 L 58.60 138.70 L 61.20 140.60 L 63.40 142.80 L 65.30 145.40 L 66.60 148.20 L 67.50 151.30 L 67.80 154.70 L 67.50 158.00 L 66.60 161.10 L 65.30 164.00 L 63.40 166.60 L 61.20 168.80 L 58.60 170.60 L 55.80 172.00 L 52.70 172.80 L 49.30 173.10 L 46.00 172.80 L 42.90 172.00 L 40.00 170.60 L 37.40 168.80 L 35.20 166.60 L 33.40 164.00 L 32.00 161.10 L 31.20 158.00 L 30.90 154.70 L 31.20 151.30 L 32.00 148.20 L 33.40 145.40 L 35.20 142.80 L 37.40 140.60 L 40.00 138.70 L 42.90 137.40 L 46.00 136.50 L 49.30 136.20 Z M 27.90 154.70 L 28.10 157.60 L 29.50 163.00 L 30.80 165.50 L 32.90 168.50 L 35.50 171.10 L 38.50 173.20 L 41.00 174.50 L 46.40 175.90 L 49.30 176.10 L 52.30 175.90 L 57.70 174.50 L 60.20 173.20 L 63.20 171.10 L 65.70 168.50 L 67.90 165.50 L 69.10 163.00 L 70.60 157.60 L 70.80 154.70 L 70.60 151.70 L 69.10 146.30 L 67.90 143.90 L 65.70 140.80 L 63.20 138.30 L 60.20 136.10 L 57.70 134.90 L 52.30 133.40 L 49.30 133.20 L 46.40 133.40 L 41.00 134.90 L 38.50 136.10 L 35.50 138.30 L 32.90 140.80 L 30.80 143.90 L 29.50 146.30 L 28.10 151.70 L 27.90 154.70 Z" fill="#ccccde" fill-rule="nonzero" group-id="2,13,55" node-id="493" stroke="none" target-height="42.90001" target-width="42.9" target-x="27.9" target-y="133.2"/></g><g node-id="861"><path d="M 63.70 154.60 L 63.40 157.10 L 62.80 159.50 L 61.70 161.70 L 60.30 163.70 L 58.60 165.40 L 56.60 166.80 L 54.40 167.90 L 52.10 168.50 L 49.50 168.80 L 46.90 168.50 L 44.50 167.90 L 42.30 166.80 L 40.30 165.40 L 38.60 163.70 L 37.20 161.70 L 36.10 159.50 L 35.50 157.10 L 35.30 154.60 L 35.50 152.00 L 36.10 149.60 L 37.20 147.40 L 38.60 145.40 L 40.30 143.70 L 42.30 142.30 L 44.50 141.20 L 46.90 140.60 L 49.50 140.30 L 52.10 140.60 L 54.40 141.20 L 56.60 142.30 L 58.60 143.70 L 60.30 145.40 L 61.70 147.40 L 62.80 149.60 L 63.40 152.00 L 63.70 154.60 Z" fill="#fff6d6" fill-rule="nonzero" group-id="2,13,56" node-id="498" stroke="none" target-height="28.5" target-width="28.400002" target-x="35.3" target-y="140.3"/><path d="M 49.50 141.80 L 52.00 142.10 L 54.30 142.80 L 56.50 144.00 L 58.40 145.60 L 60.00 147.50 L 61.20 149.70 L 61.90 152.00 L 62.20 154.60 L 61.40 159.00 L 59.20 162.70 L 55.90 165.50 L 51.80 167.00 L 49.50 167.30 L 47.10 167.00 L 45.00 166.50 L 41.30 164.30 L 38.50 161.00 L 37.60 159.00 L 36.80 154.60 L 37.00 152.00 L 37.70 149.70 L 38.90 147.50 L 40.50 145.60 L 42.40 144.00 L 44.60 142.80 L 47.00 142.10 L 49.50 141.80 Z M 33.80 154.60 L 34.00 157.40 L 34.70 160.00 L 35.90 162.50 L 37.50 164.70 L 39.30 166.50 L 41.50 168.10 L 44.00 169.30 L 46.60 170.00 L 49.50 170.30 L 52.30 170.00 L 54.90 169.30 L 57.40 168.10 L 59.60 166.50 L 61.50 164.70 L 63.00 162.50 L 64.20 160.00 L 64.90 157.40 L 65.20 154.60 L 64.90 151.50 L 64.00 148.50 L 62.50 145.90 L 60.60 143.40 L 58.20 141.50 L 55.50 140.00 L 52.60 139.10 L 49.50 138.80 L 46.40 139.10 L 43.40 140.00 L 40.80 141.50 L 38.40 143.40 L 36.40 145.90 L 34.90 148.50 L 34.10 151.50 L 33.80 154.60 Z" fill="#ccccde" fill-rule="nonzero" group-id="2,13,56" node-id="500" stroke="none" target-height="31.5" target-width="31.399998" target-x="33.8" target-y="138.8"/></g></g><g node-id="819"><g node-id="862"><g node-id="888"><path d="M 231.10 238.00 L 88.50 229.00 L 93.40 151.90 L 235.90 160.90 Z" fill="#d3e8df" fill-rule="nonzero" group-id="2,14,57,83" node-id="510" stroke="none" target-height="86.100006" target-width="147.4" target-x="88.5" target-y="151.9"/></g><path d="M 231.20 236.50 L 88.60 227.50 L 89.60 228.00 L 90.00 229.10 L 94.90 152.00 L 94.40 153.10 L 93.30 153.40 L 235.80 162.40 L 234.80 161.90 L 234.40 160.80 L 229.60 237.90 L 230.10 236.90 L 231.20 236.50 Z M 236.00 159.40 L 92.90 150.50 L 92.40 150.80 L 91.90 151.80 L 87.00 228.90 L 87.40 230.00 L 88.40 230.50 L 231.60 239.40 L 232.40 238.70 L 232.60 238.10 L 237.40 161.00 L 237.10 159.90 L 236.00 159.40 Z" fill="#ccccde" fill-rule="nonzero" group-id="2,14,57" node-id="513" stroke="none" target-height="88.899994" target-width="150.4" target-x="87" target-y="150.5"/></g><g node-id="863"><path d="M 224.10 177.90 L 222.60 177.60 L 220.40 176.00 L 219.10 173.60 L 219.20 171.10 L 109.60 164.20 L 109.40 166.70 L 107.80 168.90 L 105.40 170.20 L 102.90 170.10 L 100.30 212.20 L 102.70 212.40 L 105.00 214.00 L 106.20 216.40 L 106.20 218.90 L 215.70 225.80 L 216.00 223.30 L 217.50 221.10 L 220.00 219.80 L 221.50 219.70 L 224.10 177.90 Z" fill="#e3ffe8" fill-rule="nonzero" group-id="2,14,58" node-id="518" stroke="none" target-height="61.600006" target-width="123.8" target-x="100.3" target-y="164.2"/><path d="M 224.20 176.40 L 222.70 176.00 L 221.50 175.00 L 220.70 173.80 L 220.70 170.80 L 220.40 170.20 L 219.30 169.60 L 109.70 162.70 L 109.10 162.80 L 108.20 163.70 L 107.80 166.60 L 106.90 167.80 L 105.50 168.60 L 102.60 168.60 L 102.00 168.90 L 101.40 170.00 L 98.80 212.10 L 98.90 212.70 L 99.80 213.60 L 102.70 214.00 L 103.90 215.00 L 104.60 216.20 L 104.70 219.20 L 105.50 220.20 L 215.60 227.30 L 216.80 226.80 L 217.20 226.30 L 217.60 223.40 L 218.50 222.20 L 219.80 221.40 L 222.00 221.10 L 222.50 220.90 L 223.00 219.80 L 225.70 178.00 L 225.30 176.90 L 224.20 176.40 Z M 222.70 177.80 L 220.10 219.60 L 220.60 218.60 L 221.70 218.20 L 219.70 218.30 L 218.00 218.90 L 216.50 219.90 L 215.40 221.30 L 214.60 222.80 L 214.20 226.00 L 214.60 224.80 L 215.80 224.30 L 106.30 217.40 L 107.40 218.00 L 107.60 219.20 L 107.70 216.10 L 107.10 214.40 L 106.10 213.00 L 104.80 211.80 L 103.20 211.00 L 100.10 210.70 L 101.30 211.10 L 101.80 212.30 L 104.40 170.20 L 103.80 171.30 L 102.50 171.60 L 105.70 171.70 L 107.30 171.10 L 108.80 170.10 L 110.00 168.70 L 110.80 167.10 L 111.10 164.00 L 110.70 165.20 L 109.50 165.70 L 219.10 172.60 L 218.00 172.00 L 217.70 170.70 L 217.70 173.90 L 218.20 175.60 L 219.20 177.00 L 220.60 178.20 L 222.20 179.00 L 224.10 179.40 L 223.10 178.80 L 222.70 177.80 Z" fill="#ccccde" fill-rule="nonzero" group-id="2,14,58" node-id="520" stroke="none" target-height="64.600006" target-width="126.899994" target-x="98.8" target-y="162.7"/></g><g node-id="864"><g node-id="889"><path d="M 144.00 193.80 L 144.50 190.00 L 145.50 186.60 L 146.90 183.50 L 148.70 180.60 L 150.70 178.30 L 153.10 176.40 L 155.70 175.00 L 158.40 174.30 L 161.30 174.10 L 164.20 174.60 L 166.80 175.70 L 169.30 177.40 L 171.30 179.60 L 173.10 182.20 L 174.50 185.20 L 175.50 188.50 L 176.00 192.00 L 176.10 195.80 L 175.50 199.60 L 174.60 203.00 L 173.20 206.10 L 171.40 209.00 L 169.30 211.30 L 167.00 213.20 L 164.40 214.60 L 161.60 215.40 L 158.70 215.50 L 155.90 215.00 L 153.20 213.90 L 150.80 212.20 L 148.70 210.00 L 147.00 207.50 L 145.50 204.40 L 144.60 201.20 L 144.00 197.60 L 144.00 193.80 Z" fill="#d3e8df" fill-rule="nonzero" group-id="2,14,59,84" node-id="527" stroke="none" target-height="41.399994" target-width="32.100006" target-x="144" target-y="174.1"/></g><path d="M 161.20 175.60 L 163.80 176.10 L 166.20 177.10 L 168.40 178.70 L 170.30 180.70 L 171.90 183.10 L 173.20 185.90 L 174.10 188.90 L 174.50 192.20 L 174.60 195.70 L 174.10 199.20 L 173.20 202.40 L 172.00 205.30 L 170.30 208.00 L 168.40 210.10 L 166.30 211.90 L 163.90 213.20 L 161.50 213.90 L 158.80 214.00 L 156.20 213.60 L 153.90 212.50 L 151.70 210.90 L 149.80 209.00 L 148.20 206.60 L 146.90 203.70 L 146.00 200.70 L 145.50 197.40 L 145.50 193.90 L 146.60 188.10 L 148.90 183.00 L 150.40 180.80 L 152.30 178.90 L 154.40 177.30 L 156.60 176.30 L 158.90 175.70 L 161.20 175.60 Z M 142.50 193.70 L 142.60 197.80 L 143.10 201.60 L 144.20 205.10 L 145.80 208.30 L 147.70 211.10 L 150.00 213.40 L 152.00 214.90 L 156.30 216.70 L 158.60 217.00 L 161.00 217.00 L 165.50 215.70 L 167.70 214.50 L 170.20 212.50 L 172.50 210.00 L 174.50 207.00 L 176.00 203.60 L 177.00 200.00 L 177.60 195.90 L 177.50 191.80 L 176.90 188.10 L 175.90 184.60 L 174.30 181.30 L 172.40 178.50 L 170.10 176.20 L 168.10 174.70 L 163.80 173.00 L 161.40 172.60 L 158.50 172.70 L 155.60 173.40 L 152.90 174.70 L 150.30 176.70 L 148.20 178.80 L 146.40 181.30 L 144.90 184.10 L 143.70 187.10 L 142.50 193.70 Z" fill="#ccccde" fill-rule="nonzero" group-id="2,14,59" node-id="530" stroke="none" target-height="44.399994" target-width="35.100006" target-x="142.5" target-y="172.6"/></g><g node-id="865"><path d="M 161.90 197.30 L 163.90 195.10 L 166.60 190.60 L 166.90 189.30 L 166.70 187.10 L 166.20 185.30 L 165.20 183.80 L 163.90 182.60 L 162.40 181.80 L 160.60 181.50 L 158.80 181.50 L 157.10 181.90 L 155.30 183.30 L 154.50 184.50 L 153.50 187.80 L 153.30 192.40 L 153.70 194.20 L 155.50 197.10 L 153.30 197.90 L 151.30 199.10 L 149.70 200.80 L 148.40 202.60 L 147.50 204.60 L 147.10 206.50 L 147.20 208.20 L 148.50 211.00 L 151.10 213.10 L 152.80 213.90 L 155.60 214.80 L 159.00 215.20 L 162.40 215.30 L 165.00 214.80 L 167.10 214.00 L 168.40 213.10 L 169.40 212.00 L 170.00 210.50 L 170.40 208.70 L 170.20 206.60 L 169.40 204.20 L 168.10 202.00 L 166.30 200.00 L 164.20 198.30 L 161.90 197.30 Z" fill="#ccccde" fill-rule="nonzero" group-id="2,14,60" node-id="535" stroke="none" target-height="33.800003" target-width="23.299988" target-x="147.1" target-y="181.5"/></g><g node-id="866"><path d="M 102.10 160.20 L 101.10 160.30 L 99.70 161.50 L 99.60 163.50 L 100.80 164.90 L 102.70 165.00 L 104.10 163.80 L 104.30 161.80 L 103.00 160.40 L 102.10 160.20 Z M 226.50 168.00 L 225.50 168.10 L 224.10 169.40 L 224.00 171.30 L 225.20 172.70 L 227.20 172.80 L 228.60 171.60 L 228.70 169.70 L 227.40 168.30 L 226.50 168.00 Z" fill="#ccccde" fill-rule="nonzero" group-id="2,14,61" node-id="540" stroke="none" target-height="12.600006" target-width="129.1" target-x="99.6" target-y="160.2"/></g><g node-id="867"><path d="M 98.50 217.40 L 97.50 217.50 L 96.10 218.80 L 96.00 220.70 L 97.20 222.10 L 99.10 222.20 L 100.50 221.00 L 100.70 219.10 L 99.40 217.70 L 98.50 217.40 Z M 222.90 225.30 L 221.10 225.90 L 220.20 227.60 L 220.90 229.40 L 222.60 230.20 L 224.40 229.60 L 225.20 227.90 L 224.60 226.10 L 222.90 225.30 Z" fill="#ccccde" fill-rule="nonzero" group-id="2,14,62" node-id="545" stroke="none" target-height="12.800003" target-width="129.2" target-x="96" target-y="217.4"/></g><g node-id="868"><path d="M 123.00 186.40 L 124.50 186.60 L 126.90 188.00 L 128.40 190.50 L 128.60 192.00 L 127.80 194.80 L 125.80 196.80 L 124.50 197.40 L 123.00 197.60 L 120.20 196.80 L 119.00 195.90 L 117.60 193.40 L 117.40 192.00 L 118.10 189.10 L 120.20 187.10 L 123.00 186.40 Z M 114.40 192.00 L 114.60 193.70 L 115.80 196.70 L 118.20 199.10 L 121.30 200.40 L 123.00 200.60 L 125.30 200.30 L 127.30 199.40 L 129.10 198.10 L 130.40 196.30 L 131.30 194.30 L 131.60 192.00 L 131.30 189.70 L 130.40 187.60 L 129.10 185.90 L 127.30 184.50 L 125.30 183.70 L 123.00 183.40 L 120.70 183.70 L 118.60 184.50 L 116.90 185.90 L 115.60 187.60 L 114.70 189.70 L 114.40 192.00 Z" fill="#ccccde" fill-rule="nonzero" group-id="2,14,63" node-id="550" stroke="none" target-height="17.200012" target-width="17.200005" target-x="114.4" target-y="183.4"/></g><g node-id="869"><path d="M 206.70 196.80 L 206.60 198.20 L 205.50 200.70 L 203.50 202.70 L 201.00 203.80 L 198.20 203.80 L 195.70 202.70 L 193.70 200.70 L 192.60 198.20 L 192.60 195.40 L 193.70 192.90 L 195.70 190.90 L 198.20 189.80 L 201.00 189.80 L 203.50 190.90 L 205.50 192.90 L 206.60 195.40 L 206.70 196.80 Z" fill="#d3e8df" fill-rule="nonzero" group-id="2,14,64" node-id="555" stroke="none" target-height="14" target-width="14.099991" target-x="192.6" target-y="189.8"/><path d="M 199.60 191.20 L 201.10 191.40 L 203.60 192.80 L 205.00 195.30 L 205.20 196.80 L 204.40 199.60 L 202.40 201.60 L 201.10 202.20 L 199.60 202.40 L 196.80 201.70 L 195.60 200.80 L 194.20 198.30 L 194.00 196.80 L 194.80 194.00 L 196.80 192.00 L 199.60 191.20 Z M 191.00 196.80 L 191.20 198.50 L 192.40 201.60 L 194.80 204.00 L 197.90 205.20 L 199.60 205.40 L 201.90 205.10 L 203.90 204.20 L 205.70 202.90 L 207.00 201.10 L 207.90 199.10 L 208.20 196.80 L 207.90 194.50 L 207.00 192.50 L 205.70 190.70 L 203.90 189.40 L 201.90 188.50 L 199.60 188.20 L 197.30 188.50 L 195.30 189.40 L 193.50 190.70 L 192.20 192.50 L 191.30 194.50 L 191.00 196.80 Z" fill="#ccccde" fill-rule="nonzero" group-id="2,14,64" node-id="557" stroke="none" target-height="17.199997" target-width="17.199997" target-x="191" target-y="188.2"/></g></g><g node-id="820"><g node-id="870"><g node-id="890"><path d="M 219.80 198.60 L 219.50 200.30 L 218.90 201.90 L 217.80 203.20 L 216.50 204.20 L 215.00 204.90 L 213.20 205.10 L 74.00 205.10 L 72.20 204.90 L 70.70 204.20 L 69.40 203.20 L 68.40 201.90 L 67.70 200.30 L 67.50 198.60 L 67.50 103.00 L 67.70 101.20 L 68.40 99.70 L 69.40 98.40 L 70.70 97.30 L 72.20 96.70 L 74.00 96.50 L 213.20 96.50 L 215.00 96.70 L 216.50 97.30 L 217.80 98.40 L 218.90 99.70 L 219.50 101.20 L 219.80 103.00 L 219.80 198.60 Z" fill="#e6eeff" fill-rule="nonzero" group-id="2,15,65,85" node-id="567" stroke="none" target-height="108.600006" target-width="152.3" target-x="67.5" target-y="96.5"/></g><path d="M 218.30 198.60 L 218.10 199.90 L 216.80 202.10 L 214.60 203.40 L 213.20 203.60 L 74.00 203.60 L 72.60 203.40 L 70.40 202.10 L 69.20 199.90 L 69.00 198.60 L 69.00 103.00 L 69.20 101.60 L 70.40 99.40 L 72.60 98.10 L 74.00 98.00 L 213.20 98.00 L 215.80 98.60 L 217.60 100.50 L 218.30 103.00 L 218.30 198.60 Z M 221.30 198.60 L 221.30 103.00 L 221.00 100.80 L 220.20 98.90 L 218.90 97.30 L 217.30 96.10 L 215.40 95.20 L 213.20 95.00 L 74.00 95.00 L 71.90 95.20 L 70.00 96.10 L 68.30 97.30 L 67.10 98.90 L 66.30 100.80 L 66.00 103.00 L 66.00 198.60 L 66.30 200.70 L 67.10 202.60 L 68.30 204.30 L 70.00 205.50 L 71.90 206.30 L 74.00 206.60 L 213.20 206.60 L 215.40 206.30 L 217.30 205.50 L 218.90 204.30 L 220.20 202.60 L 221.00 200.70 L 221.30 198.60 Z" fill="#ccccde" fill-rule="nonzero" group-id="2,15,65,86" node-id="572" stroke="none" target-height="111.600006" target-width="155.3" target-x="66" target-y="95"/></g><g node-id="871"><path d="M 67.50 116.80 L 219.70 116.80 L 219.70 142.30 L 67.50 142.30 Z" fill="#d8d8f0" fill-rule="nonzero" group-id="2,15,66" node-id="578" stroke="none" target-height="25.5" target-width="152.2" target-x="67.5" target-y="116.8"/><path d="M 67.50 118.30 L 219.70 118.30 L 218.20 116.80 L 218.20 142.30 L 219.70 140.80 L 67.50 140.80 L 69.00 142.30 L 69.00 116.80 L 67.50 118.30 Z M 67.50 143.80 L 221.20 143.80 L 221.20 115.30 L 66.00 115.30 L 66.00 143.80 L 67.50 143.80 Z" fill="#ccccde" fill-rule="nonzero" group-id="2,15,66" node-id="580" stroke="none" target-height="28.5" target-width="155.2" target-x="66" target-y="115.3"/></g><g node-id="872"><path d="M 78.80 162.10 L 208.90 162.10 L 208.90 183.10 L 78.80 183.10 Z" fill="#ffe7d1" fill-rule="nonzero" group-id="2,15,67" node-id="585" stroke="none" target-height="21" target-width="130.09999" target-x="78.8" target-y="162.1"/></g><g node-id="873"><g node-id="892"><path d="M 78.80 183.10 L 99.70 162.10 L 107.40 162.10 L 86.50 183.10 Z" fill="#ffffff" fill-rule="nonzero" group-id="2,15,68,87" node-id="592" stroke="none" target-height="21" target-width="28.599998" target-x="78.8" target-y="162.1"/></g><g node-id="893"><path d="M 99.10 183.10 L 120.00 162.10 L 127.70 162.10 L 106.80 183.10 Z" fill="#ffffff" fill-rule="nonzero" group-id="2,15,68,88" node-id="597" stroke="none" target-height="21" target-width="28.599998" target-x="99.1" target-y="162.1"/></g><g node-id="894"><path d="M 119.40 183.10 L 140.30 162.10 L 148.00 162.10 L 127.10 183.10 Z" fill="#ffffff" fill-rule="nonzero" group-id="2,15,68,89" node-id="602" stroke="none" target-height="21" target-width="28.599998" target-x="119.4" target-y="162.1"/></g><g node-id="895"><path d="M 139.70 183.10 L 160.60 162.10 L 168.30 162.10 L 147.40 183.10 Z" fill="#ffffff" fill-rule="nonzero" group-id="2,15,68,90" node-id="607" stroke="none" target-height="21" target-width="28.600006" target-x="139.7" target-y="162.1"/></g><g node-id="896"><path d="M 160.00 183.10 L 181.00 162.10 L 188.60 162.10 L 167.70 183.10 Z" fill="#ffffff" fill-rule="nonzero" group-id="2,15,68,91" node-id="612" stroke="none" target-height="21" target-width="28.600006" target-x="160" target-y="162.1"/></g><path d="M 180.40 183.10 L 201.30 162.10 L 208.90 162.10 L 188.00 183.10 Z" fill="#ffffff" fill-rule="nonzero" group-id="2,15,68,92" node-id="617" stroke="none" target-height="21" target-width="28.5" target-x="180.4" target-y="162.1"/></g></g><g node-id="821"><g node-id="874"><path d="M 172.30 139.20 L 172.00 140.90 L 171.40 142.50 L 170.30 143.90 L 168.90 144.90 L 167.40 145.60 L 165.60 145.90 L 28.20 145.90 L 26.40 145.60 L 24.80 144.90 L 23.40 143.90 L 22.40 142.50 L 21.70 140.90 L 21.50 139.20 L 21.50 41.20 L 21.70 39.40 L 22.40 37.90 L 23.40 36.50 L 24.80 35.40 L 26.40 34.80 L 28.20 34.50 L 165.60 34.50 L 167.40 34.80 L 168.90 35.40 L 170.30 36.50 L 171.40 37.90 L 172.00 39.40 L 172.30 41.20 L 172.30 139.20 Z" fill="#c2d3ff" fill-rule="nonzero" group-id="2,16,69" node-id="626" stroke="none" target-height="111.399994" target-width="150.8" target-x="21.5" target-y="34.5"/></g><g node-id="875"><path d="M 21.50 81.50 L 172.30 81.50 L 172.30 85.40 L 21.50 85.40 Z" fill="#ffffff" fill-opacity="0.35" fill-rule="nonzero" group-id="2,16,70" node-id="631" stroke="none" target-height="3.9000015" target-width="150.8" target-x="21.5" target-y="81.5"/></g><g node-id="876"><path d="M 21.50 55.40 L 172.20 55.40 L 172.20 81.50 L 21.50 81.50 Z" fill="#9c9cb5" fill-rule="nonzero" group-id="2,16,71" node-id="636" stroke="none" target-height="26.099998" target-width="150.7" target-x="21.5" target-y="55.4"/></g><g node-id="877"><path d="M 30.80 101.80 L 164.20 101.80 L 164.20 123.30 L 30.80 123.30 Z" fill="#ffe7d1" fill-rule="nonzero" group-id="2,16,72" node-id="641" stroke="none" target-height="21.5" target-width="133.4" target-x="30.8" target-y="101.8"/></g><g node-id="878"><g node-id="898"><path d="M 30.80 123.30 L 52.30 101.80 L 60.10 101.80 L 38.70 123.30 Z" fill="#ffffff" fill-rule="nonzero" group-id="2,16,73,93" node-id="648" stroke="none" target-height="21.5" target-width="29.3" target-x="30.8" target-y="101.8"/></g><g node-id="899"><path d="M 51.60 123.30 L 73.10 101.80 L 80.90 101.80 L 59.50 123.30 Z" fill="#ffffff" fill-rule="nonzero" group-id="2,16,73,94" node-id="653" stroke="none" target-height="21.5" target-width="29.300003" target-x="51.6" target-y="101.8"/></g><g node-id="900"><path d="M 72.40 123.30 L 93.90 101.80 L 101.70 101.80 L 80.30 123.30 Z" fill="#ffffff" fill-rule="nonzero" group-id="2,16,73,95" node-id="658" stroke="none" target-height="21.5" target-width="29.299995" target-x="72.4" target-y="101.8"/></g><g node-id="901"><path d="M 93.30 123.30 L 114.70 101.80 L 122.60 101.80 L 101.10 123.30 Z" fill="#ffffff" fill-rule="nonzero" group-id="2,16,73,96" node-id="663" stroke="none" target-height="21.5" target-width="29.299995" target-x="93.3" target-y="101.8"/></g><g node-id="902"><path d="M 114.10 123.30 L 135.50 101.80 L 143.40 101.80 L 121.90 123.30 Z" fill="#ffffff" fill-rule="nonzero" group-id="2,16,73,97" node-id="668" stroke="none" target-height="21.5" target-width="29.299995" target-x="114.1" target-y="101.8"/></g><path d="M 134.90 123.30 L 156.30 101.80 L 164.20 101.80 L 142.70 123.30 Z" fill="#ffffff" fill-rule="nonzero" group-id="2,16,73,98" node-id="673" stroke="none" target-height="21.5" target-width="29.300003" target-x="134.9" target-y="101.8"/></g><g node-id="879"><path d="M 21.50 55.40 L 172.60 55.40 L 172.60 61.30 L 21.50 61.30 Z" fill="#6e6e96" fill-opacity="0.25" fill-rule="nonzero" group-id="2,16,74" node-id="679" stroke="none" target-height="5.8999977" target-width="151.1" target-x="21.5" target-y="55.4"/></g><g node-id="880"><path d="M 165.80 141.10 L 28.40 141.10 L 26.60 140.90 L 25.00 140.20 L 23.70 139.10 L 22.60 137.80 L 22.00 136.20 L 21.70 134.40 L 21.70 138.10 L 22.00 139.90 L 22.60 141.50 L 23.70 142.90 L 25.00 143.90 L 26.60 144.60 L 28.40 144.80 L 165.80 144.80 L 167.60 144.60 L 169.20 143.90 L 170.60 142.90 L 171.60 141.50 L 172.30 139.90 L 172.50 138.10 L 172.50 134.40 L 172.30 136.20 L 171.60 137.80 L 170.60 139.10 L 169.20 140.20 L 167.60 140.80 L 165.80 141.10 Z" fill="#6e6e96" fill-opacity="0.15" fill-rule="nonzero" group-id="2,16,75" node-id="684" stroke="none" target-height="10.400009" target-width="150.8" target-x="21.7" target-y="134.4"/></g><g node-id="881"><path d="M 28.40 39.00 L 165.80 39.00 L 167.60 39.20 L 169.20 39.90 L 170.60 41.00 L 171.60 42.30 L 172.30 43.90 L 172.50 45.70 L 172.50 42.00 L 172.30 40.10 L 171.60 38.60 L 170.60 37.20 L 169.20 36.20 L 167.60 35.50 L 165.80 35.30 L 28.40 35.30 L 26.60 35.50 L 25.00 36.20 L 23.70 37.20 L 22.60 38.60 L 22.00 40.10 L 21.70 42.00 L 21.70 45.70 L 22.00 43.90 L 22.60 42.30 L 23.70 41.00 L 25.00 39.90 L 26.60 39.20 L 28.40 39.00 Z" fill="#ffffff" fill-opacity="0.35" fill-rule="nonzero" group-id="2,16,76" node-id="689" stroke="none" target-height="10.400002" target-width="150.8" target-x="21.7" target-y="35.3"/></g><g node-id="882"><path d="M 170.80 139.20 L 170.60 140.60 L 169.30 142.80 L 167.00 144.20 L 165.60 144.40 L 28.20 144.40 L 26.80 144.20 L 24.50 142.80 L 23.20 140.60 L 23.00 139.20 L 23.00 41.20 L 23.20 39.80 L 24.50 37.60 L 26.80 36.20 L 28.20 36.00 L 165.60 36.00 L 168.20 36.70 L 170.10 38.60 L 170.80 41.20 L 170.80 139.20 Z M 173.80 41.20 L 173.50 39.00 L 172.70 37.10 L 171.40 35.40 L 169.70 34.20 L 167.80 33.30 L 165.60 33.00 L 28.20 33.00 L 26.00 33.30 L 24.00 34.20 L 22.40 35.40 L 21.10 37.10 L 20.30 39.00 L 20.00 41.20 L 20.00 139.20 L 20.30 141.30 L 21.10 143.30 L 22.40 144.90 L 24.00 146.20 L 26.00 147.10 L 28.20 147.40 L 165.60 147.40 L 167.80 147.10 L 169.70 146.20 L 171.40 144.90 L 172.70 143.30 L 173.50 141.30 L 173.80 139.20 L 173.80 41.20 Z" fill="#6e6e96" fill-rule="nonzero" group-id="2,16,77" node-id="694" stroke="none" target-height="114.399994" target-width="153.8" target-x="20" target-y="33"/></g><g node-id="883"><path d="M 21.50 56.90 L 172.20 56.90 L 170.70 55.40 L 170.70 81.50 L 172.20 80.00 L 21.50 80.00 L 23.00 81.50 L 23.00 55.40 L 21.50 56.90 Z M 21.50 83.00 L 173.70 83.00 L 173.70 53.90 L 20.00 53.90 L 20.00 83.00 L 21.50 83.00 Z" fill="#6e6e96" fill-rule="nonzero" group-id="2,16,78" node-id="699" stroke="none" target-height="29.099998" target-width="153.7" target-x="20" target-y="53.9"/></g><g node-id="884"><path d="M 41.90 80.10 L 65.60 56.40 L 88.50 56.40 L 64.80 80.10 Z" fill="#f0f0ff" fill-opacity="0.2" fill-rule="nonzero" group-id="2,16,79" node-id="704" stroke="none" target-height="23.699997" target-width="46.6" target-x="41.9" target-y="56.4"/></g><path d="M 82.20 80.10 L 105.90 56.40 L 111.90 56.40 L 88.20 80.10 Z" fill="#f0f0ff" fill-opacity="0.2" fill-rule="nonzero" group-id="2,16,80" node-id="709" stroke="none" target-height="23.699997" target-width="29.700005" target-x="82.2" target-y="56.4"/></g></g><g node-id="808"><g node-id="822"><path d="M 205.20 231.50 L 207.70 227.30 L 210.10 224.90 L 212.50 223.30 L 213.30 221.60 L 212.50 220.00 L 209.50 217.90 L 207.60 216.10 L 206.00 214.20 L 204.20 211.30 L 203.60 210.70 L 202.40 210.70 L 198.40 216.10 L 196.50 217.90 L 193.50 220.00 L 192.90 220.80 L 192.90 222.50 L 193.50 223.30 L 197.10 226.00 L 199.30 228.70 L 200.20 230.20 L 202.00 234.70 L 202.50 235.30 L 203.50 235.30 L 204.00 234.70 L 205.20 231.50 Z" fill="#ffd25f" fill-rule="nonzero" group-id="3,17" node-id="717" stroke="none" target-height="24.600006" target-width="20.40001" target-x="192.9" target-y="210.7"/></g><g node-id="823"><path d="M 196.50 26.00 L 199.00 21.80 L 201.40 19.40 L 203.80 17.80 L 204.60 16.10 L 203.80 14.50 L 200.80 12.40 L 198.90 10.60 L 197.20 8.70 L 195.50 5.80 L 194.90 5.20 L 193.60 5.20 L 189.60 10.60 L 187.70 12.40 L 184.70 14.50 L 184.20 15.30 L 184.20 17.00 L 184.70 17.80 L 188.40 20.50 L 190.60 23.20 L 191.50 24.70 L 193.20 29.20 L 193.80 29.80 L 194.80 29.80 L 195.30 29.20 L 196.50 26.00 Z" fill="#dec2ff" fill-rule="nonzero" group-id="3,18" node-id="722" stroke="none" target-height="24.599998" target-width="20.40001" target-x="184.2" target-y="5.2"/></g><g node-id="824"><path d="M 244.10 168.90 L 245.70 166.20 L 249.00 163.30 L 249.20 162.50 L 249.00 161.70 L 245.60 159.00 L 243.20 155.70 L 242.60 155.50 L 242.00 155.70 L 239.70 159.00 L 236.30 161.70 L 236.10 162.50 L 236.30 163.30 L 239.60 166.20 L 240.60 167.50 L 242.20 171.10 L 242.60 171.40 L 243.10 171.10 L 244.10 168.90 Z" fill="#a8ffd1" fill-rule="nonzero" group-id="3,19" node-id="727" stroke="none" target-height="15.899994" target-width="13.099991" target-x="236.1" target-y="155.5"/></g><path d="M 16.80 130.10 L 18.30 127.40 L 21.60 124.50 L 21.90 123.70 L 21.60 123.00 L 18.30 120.20 L 15.90 116.90 L 15.30 116.70 L 14.70 116.90 L 12.40 120.20 L 9.00 123.00 L 8.70 123.70 L 9.00 124.50 L 12.30 127.40 L 13.30 128.70 L 14.80 132.30 L 15.30 132.60 L 15.80 132.30 L 16.80 130.10 Z" fill="#ffc2c2" fill-rule="nonzero" group-id="3,20" node-id="732" stroke="none" target-height="15.900009" target-width="13.2" target-x="8.7" target-y="116.7"/></g><g node-id="811"><g node-id="826"><path d="M 208.00 97.60 L 207.20 93.10 L 206.20 91.10 L 203.40 87.80 L 199.60 85.50 L 195.10 84.70 L 66.60 84.70 L 64.30 85.00 L 60.10 86.50 L 58.30 87.80 L 55.50 91.10 L 54.00 95.20 L 53.80 97.60 L 53.80 190.60 L 54.00 193.30 L 54.50 195.70 L 55.40 197.70 L 56.60 199.40 L 58.10 200.80 L 59.90 201.90 L 62.10 202.60 L 64.70 202.80 L 190.80 202.80 L 193.20 202.60 L 197.70 201.10 L 201.50 198.40 L 203.10 196.60 L 205.20 193.60 L 206.70 190.30 L 207.70 186.80 L 208.00 183.30 L 208.00 97.60 Z" fill="#c7b0a9" fill-rule="nonzero" group-id="6,21" node-id="741" stroke="none" target-height="118.100006" target-width="154.2" target-x="53.8" target-y="84.7"/><path d="M 209.50 97.60 L 209.20 95.00 L 208.60 92.60 L 207.50 90.30 L 206.10 88.30 L 204.40 86.60 L 202.40 85.20 L 200.20 84.10 L 197.80 83.50 L 195.10 83.20 L 66.60 83.20 L 64.00 83.50 L 61.60 84.10 L 59.40 85.20 L 57.40 86.60 L 55.70 88.30 L 54.20 90.30 L 53.20 92.60 L 52.50 95.00 L 52.30 97.60 L 52.30 190.60 L 52.50 193.80 L 53.20 196.50 L 54.20 198.70 L 55.70 200.60 L 57.40 202.20 L 59.50 203.30 L 61.90 204.10 L 64.70 204.30 L 190.80 204.30 L 193.50 204.10 L 196.00 203.50 L 198.30 202.50 L 202.50 199.50 L 205.80 195.50 L 208.10 190.80 L 209.30 185.80 L 209.50 97.60 Z M 206.50 97.60 L 206.50 183.30 L 206.30 186.20 L 205.60 189.00 L 204.50 191.80 L 203.00 194.40 L 201.10 196.60 L 199.00 198.60 L 196.50 200.10 L 193.80 201.00 L 190.80 201.30 L 64.70 201.30 L 62.50 201.10 L 60.60 200.60 L 59.10 199.70 L 56.70 197.10 L 55.50 193.20 L 55.30 97.60 L 55.50 95.50 L 56.80 91.90 L 59.30 88.90 L 60.90 87.80 L 64.60 86.40 L 66.60 86.20 L 195.10 86.20 L 199.10 86.90 L 200.90 87.80 L 203.80 90.30 L 205.80 93.60 L 206.50 97.60 Z" fill="#6e6e96" fill-rule="nonzero" group-id="6,21" node-id="743" stroke="none" target-height="121.100006" target-width="157.2" target-x="52.3" target-y="83.2"/></g><g node-id="827"><path d="M 53.80 85.90 L 53.80 190.60 L 54.00 193.10 L 54.50 189.40 L 55.10 188.00 L 56.10 186.90 L 57.50 185.90 L 59.60 185.10 L 64.70 184.30 L 179.60 184.10 L 183.40 183.40 L 185.70 182.60 L 189.40 180.30 L 191.80 177.50 L 193.20 173.60 L 193.40 171.00 L 193.40 82.70 L 192.40 78.10 L 191.50 76.40 L 189.50 74.00 L 186.90 73.10 L 66.60 73.00 L 62.10 73.80 L 58.30 76.10 L 55.50 79.40 L 54.60 81.40 L 53.80 85.90 Z" fill="#d9c0b8" fill-rule="nonzero" group-id="6,22" node-id="748" stroke="none" target-height="120.100006" target-width="139.59999" target-x="53.8" target-y="73"/><path d="M 52.30 85.90 L 52.30 190.60 L 52.50 193.40 L 55.50 193.10 L 55.60 190.90 L 56.10 189.40 L 57.70 187.50 L 61.00 186.30 L 64.10 185.90 L 180.30 185.60 L 185.90 184.10 L 190.30 181.50 L 193.10 178.20 L 194.00 176.30 L 194.60 173.90 L 194.90 171.00 L 194.90 82.70 L 193.60 77.20 L 192.60 75.30 L 190.10 72.60 L 187.10 71.60 L 66.60 71.50 L 64.00 71.80 L 61.60 72.40 L 59.40 73.50 L 57.40 74.90 L 55.70 76.60 L 54.20 78.70 L 53.20 80.90 L 52.50 83.30 L 52.30 85.90 Z M 66.60 74.50 L 186.90 74.60 L 188.40 75.00 L 189.50 76.00 L 191.00 78.80 L 191.90 82.80 L 191.70 173.30 L 190.50 176.70 L 189.00 178.70 L 187.20 180.10 L 183.20 181.90 L 179.70 182.60 L 68.50 182.70 L 63.30 182.90 L 59.70 183.50 L 57.60 184.20 L 54.70 186.20 L 53.00 189.00 L 52.50 193.20 L 55.50 192.80 L 55.30 190.60 L 55.50 83.80 L 56.80 80.20 L 59.30 77.20 L 62.70 75.30 L 66.60 74.50 Z" fill="#6e6e96" fill-rule="nonzero" group-id="6,22" node-id="750" stroke="none" target-height="121.899994" target-width="142.59999" target-x="52.3" target-y="71.5"/></g><g node-id="828"><path d="M 66.30 171.60 L 66.10 88.40 L 66.40 86.90 L 67.20 85.50 L 68.70 84.10 L 71.70 83.10 L 74.30 82.90 L 181.80 82.90 L 181.70 78.80 L 181.50 75.60 L 180.80 73.10 L 64.30 73.20 L 59.60 75.60 L 57.30 77.10 L 55.50 78.90 L 54.60 80.30 L 54.20 81.80 L 54.20 180.80 L 55.20 178.00 L 56.20 176.20 L 57.70 174.60 L 59.90 173.00 L 61.60 172.30 L 66.30 171.60 Z" fill="#fafafa" fill-opacity="0.25" fill-rule="nonzero" group-id="6,23" node-id="755" stroke="none" target-height="107.700005" target-width="127.600006" target-x="54.2" target-y="73.1"/></g><g node-id="829"><path d="M 187.40 72.20 L 67.10 72.10 L 62.60 72.90 L 58.80 75.20 L 56.00 78.50 L 55.00 80.50 L 54.20 85.00 L 54.20 189.70 L 54.50 192.20 L 54.90 188.50 L 55.60 187.10 L 56.50 186.00 L 58.00 185.00 L 60.00 184.20 L 65.20 183.40 L 178.50 183.30 L 183.90 182.50 L 186.10 181.70 L 189.90 179.40 L 192.20 176.60 L 193.10 174.80 L 193.80 170.10 L 193.80 81.80 L 193.40 79.00 L 192.00 75.50 L 189.90 73.10 L 187.40 72.20 Z M 181.80 161.00 L 181.10 165.20 L 180.30 166.80 L 178.80 168.80 L 176.90 170.30 L 174.90 171.40 L 169.40 172.70 L 65.70 173.00 L 62.60 173.50 L 58.80 175.10 L 57.40 176.30 L 56.50 177.70 L 55.90 179.40 L 55.80 181.50 L 56.40 178.60 L 56.40 84.60 L 57.20 80.50 L 59.20 77.10 L 62.20 74.60 L 65.90 73.20 L 176.00 73.10 L 178.20 73.90 L 180.10 76.00 L 180.80 77.60 L 181.80 81.70 L 181.80 161.00 Z" fill="#6e6e96" fill-opacity="0.15" fill-rule="nonzero" group-id="6,24" node-id="760" stroke="none" target-height="120.1" target-width="139.6" target-x="54.2" target-y="72.1"/></g><g node-id="830"><path d="M 64.70 202.80 L 62.90 199.30 L 62.30 196.30 L 62.50 194.90 L 63.20 193.80 L 65.10 192.90 L 181.60 192.70 L 188.30 191.30 L 191.10 190.30 L 194.00 188.90 L 196.60 187.10 L 198.70 185.00 L 199.80 183.30 L 200.40 181.30 L 200.70 179.10 L 200.70 150.40 L 204.90 150.40 L 204.90 142.80 L 193.40 142.80 L 193.40 171.00 L 193.90 173.80 L 193.50 175.70 L 192.10 178.20 L 190.70 179.60 L 186.60 181.80 L 179.70 183.50 L 169.00 184.20 L 65.50 184.20 L 62.30 184.60 L 58.50 185.90 L 56.80 187.00 L 55.30 188.60 L 54.20 191.50 L 54.00 193.40 L 54.20 195.80 L 54.80 197.60 L 55.70 199.10 L 57.40 200.80 L 59.30 201.80 L 61.40 202.50 L 64.70 202.80 Z" fill="#6e6e96" fill-opacity="0.15" fill-rule="nonzero" group-id="6,25" node-id="765" stroke="none" target-height="60" target-width="150.9" target-x="54" target-y="142.8"/></g><g node-id="831"><path d="M 194.90 86.00 L 200.30 86.00 L 200.30 113.00 L 194.90 113.00 Z" fill="#6e6e96" fill-opacity="0.15" fill-rule="nonzero" group-id="6,26" node-id="770" stroke="none" target-height="27" target-width="5.400009" target-x="194.9" target-y="86"/></g><g node-id="832"><path d="M 160.60 128.10 L 161.40 132.20 L 163.80 138.00 L 165.80 141.00 L 167.50 142.80 L 172.00 145.90 L 174.70 147.00 L 177.90 147.70 L 181.80 148.00 L 181.80 140.10 L 174.30 137.30 L 165.10 132.90 L 161.50 130.10 L 160.60 128.10 Z" fill="#6e6e96" fill-opacity="0.15" fill-rule="nonzero" group-id="6,27" node-id="775" stroke="none" target-height="19.899994" target-width="21.199997" target-x="160.6" target-y="128.1"/></g><g node-id="833"><path d="M 101.90 91.30 L 110.20 91.30 L 110.20 87.60 L 101.90 87.60 L 101.90 91.30 Z M 66.10 91.30 L 74.40 91.30 L 74.40 87.60 L 66.10 87.60 L 66.10 91.30 Z M 84.00 91.30 L 92.30 91.30 L 92.30 87.60 L 84.00 87.60 L 84.00 91.30 Z M 137.70 91.30 L 146.00 91.30 L 146.00 87.60 L 137.70 87.60 L 137.70 91.30 Z M 119.80 91.30 L 128.10 91.30 L 128.10 87.60 L 119.80 87.60 L 119.80 91.30 Z M 155.60 91.30 L 163.90 91.30 L 163.90 87.60 L 155.60 87.60 L 155.60 91.30 Z M 173.50 87.60 L 173.50 91.30 L 181.80 91.30 L 181.80 87.60 L 173.50 87.60 Z M 173.50 165.60 L 181.80 165.60 L 181.80 161.80 L 173.50 161.80 L 173.50 165.60 Z M 84.00 165.60 L 92.30 165.60 L 92.30 161.80 L 84.00 161.80 L 84.00 165.60 Z M 137.70 165.60 L 146.00 165.60 L 146.00 161.80 L 137.70 161.80 L 137.70 165.60 Z M 66.10 165.60 L 74.40 165.60 L 74.40 161.80 L 66.10 161.80 L 66.10 165.60 Z M 101.90 165.60 L 110.20 165.60 L 110.20 161.80 L 101.90 161.80 L 101.90 165.60 Z M 155.60 165.60 L 163.90 165.60 L 163.90 161.80 L 155.60 161.80 L 155.60 165.60 Z M 119.80 165.60 L 128.10 165.60 L 128.10 161.80 L 119.80 161.80 L 119.80 165.60 Z" fill="#6e6e96" fill-opacity="0.39" fill-rule="nonzero" group-id="6,28" node-id="780" stroke="none" target-height="78.00001" target-width="115.700005" target-x="66.1" target-y="87.6"/></g><g node-id="834"><path d="M 52.30 85.90 L 52.30 190.60 L 52.50 193.40 L 55.50 193.10 L 55.60 190.90 L 56.10 189.40 L 57.70 187.50 L 61.00 186.30 L 64.10 185.90 L 180.30 185.60 L 185.90 184.10 L 190.30 181.50 L 193.10 178.20 L 194.00 176.30 L 194.60 173.90 L 194.90 171.00 L 194.90 82.70 L 193.60 77.20 L 192.60 75.30 L 190.10 72.60 L 187.10 71.60 L 66.60 71.50 L 64.00 71.80 L 61.60 72.40 L 59.40 73.50 L 57.40 74.90 L 55.70 76.60 L 54.20 78.70 L 53.20 80.90 L 52.50 83.30 L 52.30 85.90 Z M 66.60 74.50 L 186.90 74.60 L 188.40 75.00 L 189.50 76.00 L 191.00 78.80 L 191.90 82.80 L 191.70 173.30 L 190.50 176.70 L 189.00 178.70 L 187.20 180.10 L 183.20 181.90 L 179.70 182.60 L 68.50 182.70 L 63.30 182.90 L 59.70 183.50 L 57.60 184.20 L 54.70 186.20 L 53.00 189.00 L 52.50 193.20 L 55.50 192.80 L 55.30 190.60 L 55.50 83.80 L 56.80 80.20 L 59.30 77.20 L 62.70 75.30 L 66.60 74.50 Z" fill="#6e6e96" fill-rule="nonzero" group-id="6,29" node-id="785" stroke="none" target-height="121.899994" target-width="142.59999" target-x="52.3" target-y="71.5"/></g><g node-id="835"><path d="M 213.10 126.40 L 213.00 135.40 L 212.00 139.10 L 210.30 141.20 L 209.10 141.80 L 205.40 142.40 L 178.40 142.40 L 175.40 142.20 L 172.80 141.40 L 170.30 140.20 L 168.00 138.70 L 166.10 136.70 L 164.50 134.50 L 163.30 132.00 L 162.60 129.30 L 162.30 126.40 L 162.60 123.40 L 163.30 120.80 L 164.50 118.30 L 166.10 116.00 L 168.00 114.10 L 170.30 112.50 L 172.80 111.30 L 175.40 110.60 L 178.40 110.30 L 205.40 110.30 L 209.10 110.90 L 211.30 112.50 L 212.50 115.00 L 213.10 120.10 L 213.10 126.40 Z" fill="#f0f0ff" fill-rule="nonzero" group-id="6,30" node-id="790" stroke="none" target-height="32.09999" target-width="50.800003" target-x="162.3" target-y="110.3"/><path d="M 211.60 126.40 L 211.50 135.40 L 210.60 138.50 L 209.90 139.50 L 208.90 140.30 L 207.40 140.80 L 205.40 140.90 L 178.40 140.90 L 175.70 140.70 L 173.30 140.00 L 171.00 139.00 L 169.00 137.50 L 167.20 135.80 L 165.80 133.70 L 164.70 131.50 L 164.10 129.00 L 163.80 126.40 L 164.10 123.70 L 164.70 121.30 L 165.80 119.00 L 167.20 117.00 L 169.00 115.30 L 171.00 113.80 L 173.30 112.70 L 175.70 112.10 L 178.40 111.80 L 205.40 111.80 L 207.40 112.00 L 208.90 112.50 L 209.90 113.20 L 211.20 115.60 L 211.60 120.20 L 211.60 126.40 Z M 214.60 126.40 L 214.40 116.40 L 213.90 114.30 L 213.10 112.60 L 212.10 111.10 L 209.40 109.40 L 205.40 108.80 L 178.40 108.80 L 175.20 109.10 L 172.20 109.90 L 169.50 111.20 L 167.00 113.00 L 165.00 115.10 L 163.20 117.50 L 161.90 120.20 L 161.10 123.20 L 160.80 126.40 L 161.10 129.60 L 161.90 132.50 L 163.20 135.20 L 165.00 137.70 L 167.10 139.80 L 169.50 141.50 L 172.20 142.80 L 175.20 143.60 L 178.40 143.90 L 205.40 143.90 L 209.40 143.30 L 212.10 141.70 L 213.10 140.20 L 213.90 138.40 L 214.60 133.00 L 214.60 126.40 Z" fill="#6e6e96" fill-rule="nonzero" group-id="6,30" node-id="792" stroke="none" target-height="35.09999" target-width="53.800003" target-x="160.8" target-y="108.8"/></g><g node-id="836"><path d="M 184.60 126.00 L 184.40 127.60 L 182.90 130.10 L 181.70 131.10 L 178.90 131.80 L 177.30 131.60 L 174.80 130.10 L 173.30 127.60 L 173.10 126.00 L 173.80 123.10 L 175.90 121.00 L 178.90 120.20 L 180.40 120.50 L 182.90 121.90 L 184.40 124.50 L 184.60 126.00 Z" fill="#ccccde" fill-rule="nonzero" group-id="6,31" node-id="797" stroke="none" target-height="11.600006" target-width="11.5" target-x="173.1" target-y="120.2"/><path d="M 178.90 121.70 L 180.00 121.90 L 181.90 123.00 L 183.00 124.90 L 183.10 126.00 L 183.00 127.20 L 181.90 129.10 L 180.00 130.20 L 178.90 130.30 L 177.70 130.20 L 175.80 129.10 L 174.70 127.20 L 174.60 126.00 L 174.70 124.90 L 175.80 123.00 L 177.70 121.90 L 178.90 121.70 Z M 171.60 126.00 L 171.80 128.00 L 172.60 129.70 L 173.70 131.20 L 175.20 132.30 L 176.90 133.10 L 178.90 133.30 L 180.80 133.10 L 182.50 132.30 L 184.00 131.20 L 185.10 129.70 L 185.90 128.00 L 186.10 126.00 L 185.90 124.10 L 185.10 122.30 L 184.00 120.90 L 182.50 119.70 L 180.80 119.00 L 178.90 118.70 L 176.90 119.00 L 175.20 119.70 L 173.70 120.90 L 172.60 122.30 L 171.80 124.10 L 171.60 126.00 Z" fill="#6e6e96" fill-rule="nonzero" group-id="6,31" node-id="799" stroke="none" target-height="14.600006" target-width="14.5" target-x="171.6" target-y="118.7"/></g><path d="M 206.70 110.30 L 179.70 110.30 L 176.80 110.60 L 174.10 111.30 L 171.60 112.50 L 169.40 114.10 L 167.50 116.00 L 165.90 118.30 L 164.70 120.80 L 163.90 123.40 L 163.70 126.40 L 163.90 129.30 L 164.70 132.00 L 165.90 134.50 L 167.50 136.70 L 169.40 138.70 L 171.60 140.20 L 174.10 141.40 L 176.80 142.20 L 179.70 142.40 L 206.70 142.40 L 210.50 141.80 L 212.70 140.30 L 213.90 137.70 L 214.50 132.60 L 214.50 120.10 L 213.90 115.00 L 213.40 113.60 L 211.70 111.60 L 208.90 110.50 L 206.70 110.30 Z M 203.30 136.20 L 177.70 136.20 L 173.60 135.50 L 170.20 133.40 L 167.60 130.40 L 166.80 128.60 L 166.10 124.60 L 166.30 122.50 L 166.80 120.50 L 168.80 117.10 L 171.80 114.60 L 175.50 113.20 L 203.30 113.00 L 205.30 113.20 L 206.70 113.70 L 208.20 115.60 L 208.90 118.70 L 208.70 132.10 L 207.60 134.60 L 206.70 135.40 L 205.30 136.00 L 203.30 136.20 Z" fill="#6e6e96" fill-opacity="0.15" fill-rule="nonzero" group-id="6,32" node-id="804" stroke="none" target-height="32.09999" target-width="50.800003" target-x="163.7" target-y="110.3"/></g></svg>
